<svg width="30" height="30" viewBox="0 0 30 30" fill="none" xmlns="http://www.w3.org/2000/svg">
<rect width="30" height="30" fill="#FDFBF5"/>
<path d="M25.0819 10.9812C24.9874 10.006 24.1407 9.59399 23.2732 9.4302C23.0294 9.38421 22.7837 9.35775 22.5531 9.34389C22.2936 9.32814 22.0321 9.32121 21.7713 9.32247C21.503 9.32373 21.234 9.33507 20.9656 9.35523C20.7124 9.37476 20.4604 9.40248 20.2096 9.43902C19.6067 9.52784 19.0127 9.66959 18.4381 9.86929C18.1987 9.95245 17.9625 10.0457 17.7307 10.1496C17.422 10.2876 17.1215 10.4445 16.833 10.6202C16.7605 10.6643 16.6893 10.709 16.6188 10.7557C16.5847 10.7777 16.5507 10.8004 16.5173 10.8237C16.4695 10.8565 16.4222 10.8905 16.375 10.9245C16.3227 10.9623 16.271 11.0014 16.2206 11.041C16.1847 11.0694 16.1488 11.099 16.1135 11.1286C16.0575 11.1759 16.002 11.225 15.9491 11.276C15.9176 11.3063 15.8861 11.3365 15.8559 11.3674C15.854 11.3693 15.8521 11.3718 15.8502 11.3737C15.7998 11.426 15.7513 11.4795 15.7047 11.5349C15.6398 11.6131 15.5793 11.6943 15.5232 11.7794C15.4426 11.9029 15.3727 12.0333 15.3172 12.1731C15.236 12.3791 15.1938 12.5908 15.19 12.7987C15.1893 12.8403 15.19 12.8818 15.1925 12.9234C15.2171 13.3367 15.3972 13.7298 15.7299 14.0303C15.917 14.1991 16.1268 14.3194 16.3498 14.4013C14.3225 14.39 3.3124 12.7722 3.3124 12.7722C3.2954 14.1739 3.52282 19.2118 4.15468 19.8714C4.89427 20.6431 16.5287 23.25 16.5287 23.25C16.5287 23.25 24.3757 20.8699 24.7511 20.5562C25.0334 20.32 24.5836 15.248 24.3429 12.7464C24.8236 12.2821 25.1505 11.7082 25.0806 10.9812H25.0819ZM24.6106 20.4315C24.0267 20.7276 19.7271 22.0789 16.8519 22.9545C16.8166 21.8307 16.8103 20.6639 16.8046 19.5325C16.7964 17.8549 16.7876 16.1199 16.6843 14.4461C16.6843 14.4448 16.6755 14.2722 16.6755 14.2722L16.5098 14.2117C16.3094 14.1386 16.1305 14.0315 15.9774 13.8936C15.5396 13.4986 15.408 12.8995 15.6335 12.3293C15.8187 11.8625 16.1998 11.4512 16.833 11.0354C17.3609 10.6889 17.9531 10.4004 18.5931 10.178C19.8172 9.75274 21.1666 9.58076 22.6035 9.66644C22.8473 9.68093 23.0785 9.70865 23.2896 9.74897C24.2799 9.93607 24.816 10.3789 24.8822 11.065C24.9363 11.6276 24.7215 12.1347 24.2238 12.6154L24.1319 12.7042L24.1438 12.8308C24.6245 17.8316 24.7007 20.0182 24.6094 20.4321L24.6106 20.4315Z" fill="#EFA220"/>
<path d="M24.1327 12.7042L24.2247 12.6154C24.7217 12.1347 24.9372 11.6282 24.883 11.065C24.8169 10.379 24.2808 9.93609 23.2904 9.74898C23.0794 9.70929 22.8482 9.68158 22.6044 9.66646C21.1674 9.58015 19.818 9.75213 18.594 10.178C17.9539 10.4004 17.3617 10.6889 16.8338 11.0354C16.2001 11.4512 15.8189 11.8619 15.6343 12.3294C15.4088 12.8995 15.5405 13.4986 15.9783 13.8936C16.1314 14.0316 16.3103 14.1387 16.5106 14.2117L16.6763 14.2722L16.6851 14.4448C16.7878 16.1206 16.7966 17.8549 16.8055 19.5331C16.8111 20.6646 16.8168 21.8313 16.8527 22.9552C19.7279 22.0795 24.0275 20.7282 24.6115 20.4321C24.7029 20.0182 24.6273 17.8316 24.146 12.8308L24.134 12.7042H24.1327ZM20.5185 14.2949C20.6697 14.2376 20.8814 14.2382 20.9746 14.3913C21.0786 14.562 20.9098 14.6987 20.7718 14.7661C20.6578 14.8216 20.5551 14.8997 20.4209 14.8946C20.2993 14.8896 20.2067 14.7989 20.2023 14.6779C20.1954 14.4883 20.3547 14.3566 20.5179 14.2949H20.5185ZM20.642 15.432C20.6433 15.4937 20.6187 15.5523 20.5765 15.5977C20.5507 15.6254 20.5135 15.6443 20.4757 15.6493C20.4663 15.6506 20.4568 15.6519 20.448 15.6531C20.4209 15.6601 20.3944 15.6601 20.3674 15.6531C20.3478 15.6487 20.3302 15.6393 20.3157 15.626C20.2798 15.5989 20.2527 15.5548 20.2558 15.5076C20.2558 15.4981 20.2571 15.4887 20.2577 15.4792C20.2584 15.4679 20.2603 15.4572 20.2615 15.4452C20.2672 15.4049 20.2842 15.3696 20.3125 15.34C20.3346 15.3167 20.3629 15.3003 20.3925 15.2884C20.4171 15.2783 20.4392 15.2732 20.4663 15.2714C20.4707 15.2714 20.4751 15.2714 20.4795 15.2714C20.5696 15.2669 20.6401 15.3488 20.6427 15.4326L20.642 15.432ZM17.5665 12.1813C17.4808 12.2242 17.4153 12.2645 17.3523 12.3224C17.3246 12.3483 17.3 12.376 17.2666 12.3955C17.2572 12.4012 17.2175 12.4106 17.1879 12.4169C17.1841 12.4201 17.1343 12.4346 17.1211 12.4377C17.0827 12.4465 17.053 12.4415 17.0152 12.4358C16.963 12.4283 16.9214 12.3754 16.9069 12.3287C16.8943 12.2884 16.8943 12.2506 16.905 12.2097C16.9069 12.199 16.9094 12.1889 16.9132 12.1794C16.9138 12.175 16.9151 12.1694 16.9163 12.1624C16.9327 12.0585 17.0008 12.01 17.0808 11.952C17.1784 11.8815 17.2874 11.8317 17.4002 11.7901C17.6314 11.7044 17.7826 12.0749 17.5665 12.182V12.1813ZM17.6635 12.7508C17.6774 12.7288 17.6925 12.7055 17.7114 12.6872C17.7347 12.6651 17.758 12.6557 17.7857 12.6431C17.8285 12.6236 17.8676 12.616 17.9136 12.6267C17.9558 12.6362 17.9898 12.667 18.0125 12.7023C18.0598 12.7754 18.0295 12.8863 17.9526 12.9272C17.9268 12.9411 17.9016 12.9562 17.8739 12.965C17.8474 12.9732 17.8172 12.9726 17.7895 12.9701C17.7366 12.965 17.6912 12.9455 17.6629 12.8982C17.637 12.8541 17.6358 12.7955 17.6629 12.7515L17.6635 12.7508ZM18.0396 21.8823C18.015 21.9056 17.9898 21.9302 17.9602 21.9478C17.9167 21.9737 17.872 21.9762 17.8241 21.9718C17.7687 21.9667 17.7246 21.9497 17.69 21.905C17.6547 21.8603 17.649 21.8118 17.6591 21.757C17.6679 21.711 17.683 21.6707 17.717 21.6354C17.7416 21.6102 17.7718 21.5944 17.8015 21.5774C17.8871 21.5283 17.9949 21.5516 18.0541 21.6272C18.112 21.7015 18.1095 21.8156 18.039 21.8823H18.0396ZM18.6967 19.9332C18.6803 19.9628 18.6652 19.9937 18.6469 20.022C18.6179 20.068 18.5776 20.1052 18.5398 20.1436C18.4251 20.2608 18.2393 20.2494 18.1234 20.1436C18.0692 20.0945 18.0371 20.0088 18.0371 19.937C18.0371 19.8525 18.073 19.794 18.1234 19.7303C18.1341 19.7165 18.1448 19.7032 18.1555 19.6894C18.1794 19.6591 18.2072 19.639 18.2374 19.6157C18.2639 19.5955 18.2903 19.576 18.3174 19.5565C18.3691 19.518 18.4711 19.5098 18.531 19.5287C18.577 19.5432 18.6179 19.5672 18.6532 19.5993C18.7445 19.6825 18.754 19.8292 18.6967 19.9326V19.9332ZM18.8327 18.8288C18.7981 18.8755 18.7647 18.9258 18.7124 18.9555C18.6847 18.9712 18.6507 18.9863 18.6204 18.9926C18.5618 19.0046 18.5102 19.0027 18.4554 18.98C18.4239 18.9699 18.3968 18.9523 18.3741 18.9284C18.3609 18.9114 18.3476 18.8943 18.3344 18.8773C18.3098 18.8251 18.2903 18.774 18.2903 18.7154C18.2903 18.6783 18.3004 18.6398 18.3117 18.6039C18.3338 18.534 18.3665 18.476 18.4258 18.4307C18.4472 18.4143 18.4692 18.3979 18.4913 18.3822C18.5656 18.3286 18.6834 18.3387 18.7584 18.3822C18.8397 18.4294 18.8882 18.5157 18.8894 18.609C18.8907 18.6858 18.8806 18.7652 18.8334 18.8288H18.8327ZM19.83 15.2707C19.8048 15.3514 19.7456 15.4282 19.6536 15.432C19.5635 15.4358 19.5005 15.3451 19.4772 15.2707C19.4596 15.2153 19.4759 15.1315 19.5244 15.0943C19.5263 15.0931 19.5282 15.0912 19.5307 15.0899C19.5692 15.0603 19.6051 15.0414 19.6542 15.0395C19.7034 15.0376 19.7412 15.0622 19.7777 15.0899C19.7796 15.0912 19.7815 15.0931 19.784 15.0943C19.8325 15.1315 19.8483 15.2153 19.8312 15.2707H19.83ZM20.4398 19.8381C20.4354 19.8399 20.4316 19.8425 20.4272 19.8444C20.419 19.8488 20.4108 19.8519 20.402 19.8551C20.3875 19.8633 20.3711 19.8677 20.3541 19.8677C20.3283 19.8714 20.3018 19.8708 20.276 19.8633C20.2621 19.8595 20.2382 19.85 20.2262 19.8418C20.213 19.8336 20.2004 19.8242 20.1878 19.8147C20.1424 19.7832 20.1116 19.7404 20.1116 19.6831C20.1116 19.6258 20.1424 19.5829 20.1878 19.5514C20.2004 19.5426 20.2136 19.5331 20.2262 19.5243C20.2684 19.4966 20.3308 19.489 20.3793 19.5023C20.4001 19.5079 20.4203 19.5187 20.4392 19.5287C20.4946 19.5565 20.5286 19.6232 20.5286 19.6831C20.5286 19.7429 20.4952 19.8097 20.4392 19.8374L20.4398 19.8381ZM20.4902 19.2175C20.4026 19.1709 20.3655 19.0531 20.3655 18.9599C20.3655 18.8395 20.4379 18.7476 20.5179 18.6657C20.6048 18.5775 20.7416 18.568 20.848 18.6235C20.9482 18.6757 21.0124 18.8213 20.9734 18.9284C20.957 18.9737 20.9425 19.0266 20.9173 19.067C20.8776 19.1312 20.8241 19.1841 20.7535 19.2137C20.6685 19.2497 20.5752 19.2629 20.4896 19.2175H20.4902ZM21.1548 20.8492C21.0912 20.8479 21.061 20.8712 21.0074 20.887C20.9709 20.8977 20.9293 20.8983 20.8909 20.8952C20.8613 20.8926 20.8386 20.8844 20.8115 20.8737C20.8247 20.8788 20.8222 20.8788 20.8096 20.875C20.7649 20.8611 20.7308 20.8208 20.7308 20.7729C20.7308 20.6608 20.8058 20.5606 20.9192 20.5336C21.0213 20.509 21.1347 20.5424 21.2273 20.5833C21.3621 20.6425 21.289 20.8517 21.1548 20.8492ZM21.2953 11.5324C21.294 11.5419 21.2922 11.5532 21.2909 11.5665C21.2859 11.5784 21.2814 11.5891 21.2777 11.598C21.2758 11.6162 21.2657 11.6414 21.2607 11.6591C21.2455 11.7126 21.2184 11.7586 21.1788 11.7983C21.1573 11.8159 21.1416 11.8279 21.1309 11.8361C21.0578 11.8991 20.9658 11.9268 20.8613 11.9029C20.8001 11.889 20.7466 11.8468 20.7088 11.7989C20.676 11.7573 20.6615 11.7151 20.6527 11.6679C20.6269 11.5841 20.6294 11.4909 20.6798 11.4159C20.7245 11.3485 20.7806 11.2735 20.8524 11.2319C20.9312 11.1866 21.0408 11.1664 21.1271 11.1891C21.2405 11.2187 21.2985 11.3183 21.3098 11.4266C21.3129 11.4575 21.3098 11.5009 21.2953 11.5318V11.5324ZM21.9461 11.448C21.8673 11.3876 21.8106 11.2647 21.8484 11.1645C21.8503 11.1601 21.8516 11.1557 21.8535 11.1513C21.8528 11.157 21.8516 11.1633 21.8509 11.1689C21.8963 10.9491 22.1357 10.8319 22.3505 10.8281C22.4658 10.8262 22.5622 10.9088 22.5968 11.014C22.6296 11.1135 22.5767 11.2534 22.4797 11.3C22.4727 11.3031 22.4557 11.3101 22.4406 11.3176C22.4267 11.3283 22.4123 11.339 22.3984 11.3498C22.3959 11.3523 22.3808 11.3649 22.3757 11.3699C22.3663 11.3787 22.3581 11.3882 22.3486 11.397C22.3341 11.4109 22.319 11.4222 22.3026 11.4348C22.285 11.4505 22.2648 11.4619 22.2434 11.4713C22.1559 11.5306 22.0242 11.5079 21.9461 11.448ZM22.576 12.158C22.5527 12.1706 22.5301 12.182 22.5061 12.1927C22.4847 12.2015 22.4626 12.2059 22.4406 12.209C22.3896 12.2216 22.3373 12.2336 22.285 12.2216C22.2157 12.2053 22.1779 12.1505 22.1754 12.083C22.1748 12.061 22.1804 12.0314 22.188 12.0093C22.1943 11.9917 22.2025 11.9747 22.21 11.9577C22.2113 11.9552 22.2138 11.9489 22.2163 11.9438C22.2157 11.9451 22.2151 11.9463 22.2144 11.9482C22.2018 11.9759 22.2113 11.9526 22.2132 11.9457C22.2233 11.9174 22.2352 11.8922 22.2535 11.8682C22.2692 11.8474 22.2856 11.8273 22.302 11.8071C22.3455 11.7536 22.4267 11.7372 22.4916 11.7454C22.5527 11.7536 22.6012 11.7813 22.639 11.8292C22.7184 11.9306 22.6951 12.0944 22.576 12.1574V12.158ZM23.0888 14.5418C23.1222 14.4543 23.1613 14.3856 23.2312 14.3214C23.2514 14.3025 23.2728 14.2854 23.2949 14.2691C23.2886 14.2735 23.2867 14.2747 23.298 14.2665C23.2967 14.2672 23.2961 14.2684 23.2949 14.2691C23.3005 14.2647 23.31 14.2577 23.3144 14.2546C23.3459 14.2294 23.3767 14.2029 23.4114 14.1815C23.482 14.138 23.5739 14.1563 23.6325 14.2098C23.6968 14.2684 23.6924 14.3566 23.6609 14.4291C23.6029 14.5639 23.5128 14.6924 23.383 14.7661C23.3125 14.8058 23.2243 14.7995 23.1607 14.7504C23.1027 14.7063 23.0611 14.6149 23.0888 14.5418ZM23.6476 19.5313C23.6476 19.5313 23.6432 19.535 23.6413 19.5369C23.5903 19.6069 23.4952 19.6428 23.4108 19.644C23.2986 19.6459 23.2048 19.5583 23.1903 19.4512C23.1752 19.3379 23.2445 19.2434 23.3509 19.2074C23.3837 19.1961 23.419 19.193 23.4536 19.1961C23.487 19.1986 23.5172 19.2024 23.5481 19.2156C23.5645 19.2226 23.5796 19.2314 23.5935 19.2415C23.6413 19.2654 23.6791 19.3001 23.6943 19.3555C23.7106 19.4147 23.6955 19.4903 23.647 19.5325L23.6476 19.5313ZM23.7787 17.8612C23.7081 17.9374 23.6155 18.0099 23.509 18.0155C23.4826 18.0244 23.4549 18.0313 23.4234 18.0344C23.3528 18.0426 23.2791 17.9765 23.2621 17.9128C23.2545 17.8845 23.2533 17.8587 23.2539 17.8316C23.24 17.7824 23.2369 17.7327 23.2526 17.676C23.2671 17.6231 23.2885 17.5714 23.3131 17.5223C23.3786 17.3906 23.5046 17.2841 23.6577 17.2816C23.7743 17.2797 23.8656 17.3622 23.9022 17.4662C23.9525 17.6079 23.8719 17.7585 23.778 17.8612H23.7787Z" fill="#FED76E"/>
<path d="M22.4141 11.3388C22.423 11.3317 22.432 11.3253 22.4403 11.3182C22.4275 11.3247 22.416 11.3317 22.4141 11.3388Z" fill="#FED76E"/>
<path d="M12.9824 13.8993C14.3444 14.1034 15.5515 14.2842 16.3503 14.4032C16.1273 14.3201 15.9175 14.1991 15.7304 14.0303C15.3978 13.7304 15.2176 13.3373 15.193 12.9234C15.1905 12.8818 15.1899 12.8403 15.1905 12.7987C15.1936 12.5902 15.2359 12.3785 15.3178 12.1731C15.3732 12.0333 15.4431 11.9029 15.5238 11.7794C15.5792 11.6943 15.6397 11.6131 15.7052 11.535C15.7518 11.4795 15.7997 11.426 15.8507 11.3737C15.8526 11.3718 15.8545 11.3693 15.8564 11.3674C15.8866 11.3365 15.9175 11.3056 15.9496 11.276C16.0032 11.2256 16.058 11.1765 16.114 11.1286C16.1493 11.099 16.1846 11.0694 16.2211 11.0411C16.2715 11.0014 16.3232 10.9623 16.3755 10.9245C16.4227 10.8899 16.47 10.8565 16.5179 10.8237C16.5512 10.8004 16.5853 10.7784 16.6193 10.7557C16.6898 10.7091 16.761 10.6643 16.8335 10.6202C17.122 10.4445 17.4225 10.2876 17.7312 10.1496C17.9624 10.0457 18.1993 9.95246 18.4387 9.8693C19.0132 9.6696 19.6073 9.52785 20.2102 9.43903C20.4609 9.40186 20.7135 9.37414 20.9661 9.35524C21.2345 9.33508 21.5029 9.32374 21.7719 9.32248C22.0327 9.32122 22.2941 9.32815 22.5537 9.3439C22.7842 9.35776 23.0299 9.38422 23.2737 9.43021L23.2857 9.42139C23.2857 9.42139 7.53754 7.39601 4.85006 8.67171C2.16259 9.94742 1.63215 11.5614 2.91919 12.5744C3.00487 12.6418 3.13905 12.708 3.31355 12.7722C3.31418 12.713 3.31544 12.6601 3.3167 12.6141C3.31481 12.6601 3.31418 12.713 3.31355 12.7722C3.31355 12.7722 14.3243 14.39 16.3515 14.4032C15.5527 14.2842 14.3457 14.1034 12.9837 13.8993H12.9824ZM3.74698 10.4495C3.91392 10.1188 3.71926 9.70551 7.64023 9.64503C11.5612 9.58518 15.5376 10.6971 13.9526 11.7466C12.3676 12.7962 3.08676 11.758 3.74698 10.4489V10.4495ZM3.32678 12.4541C3.32489 12.4667 3.32363 12.4812 3.32237 12.4988C3.32363 12.4812 3.32552 12.4667 3.32678 12.4541ZM4.16087 12.5543C3.65815 12.4736 3.35765 12.422 3.3419 12.4119C3.34001 12.4106 3.33812 12.4119 3.33623 12.4144C3.33812 12.4113 3.34001 12.4106 3.3419 12.4119C3.35765 12.422 3.65815 12.4736 4.16087 12.5543C4.29821 12.5763 4.45003 12.6002 4.61572 12.6267C4.45003 12.6009 4.29821 12.5763 4.16087 12.5543ZM6.42249 12.9064C6.19129 12.8711 5.9689 12.8365 5.7566 12.8037C5.5443 12.771 5.34145 12.7395 5.1512 12.7099C5.02394 12.6903 4.90235 12.6708 4.78581 12.6525C4.90172 12.6708 5.02394 12.6897 5.1512 12.7099C5.34208 12.7395 5.5443 12.771 5.7566 12.8037C5.9689 12.8365 6.19129 12.8705 6.42249 12.9064ZM11.6683 13.7014C11.4888 13.6744 11.3086 13.6473 11.1271 13.6202C10.9457 13.5931 10.7643 13.5654 10.5816 13.5383C10.2175 13.4835 9.85208 13.428 9.49047 13.3732C9.21895 13.3323 8.94932 13.2913 8.68284 13.251C8.50518 13.2239 8.32942 13.1975 8.15492 13.171C7.98104 13.1445 7.80906 13.1181 7.6396 13.0929C7.80906 13.1187 7.98104 13.1452 8.15492 13.171C8.32879 13.1975 8.50518 13.2239 8.68284 13.251C8.94932 13.2913 9.21895 13.3323 9.49047 13.3732C9.85271 13.428 10.2175 13.4828 10.5816 13.5383C10.7637 13.566 10.9457 13.5931 11.1271 13.6202C11.3086 13.6473 11.4888 13.6744 11.6683 13.7014C12.0268 13.7556 12.3808 13.8085 12.726 13.8602C12.3808 13.8085 12.0268 13.755 11.6683 13.7014Z" fill="#D87F00"/>
<path d="M18.7581 18.3834C18.6831 18.34 18.5653 18.3299 18.491 18.3834C18.469 18.3992 18.4469 18.4156 18.4255 18.4319C18.3663 18.4773 18.3341 18.5353 18.3115 18.6052C18.3001 18.6405 18.29 18.6789 18.29 18.7167C18.29 18.7753 18.3096 18.8269 18.3341 18.8786C18.3474 18.8956 18.3606 18.9126 18.3738 18.9296C18.3965 18.9542 18.4242 18.9712 18.4551 18.9813C18.5099 19.004 18.5616 19.0058 18.6201 18.9939C18.651 18.9876 18.6844 18.9718 18.7121 18.9567C18.7644 18.9277 18.7978 18.8767 18.8324 18.8301C18.8797 18.7665 18.8898 18.6871 18.8885 18.6102C18.8873 18.5176 18.8388 18.4307 18.7575 18.3834H18.7581Z" fill="#F4C151"/>
<path d="M18.531 19.53C18.4712 19.5111 18.3691 19.5193 18.3175 19.5577C18.291 19.5772 18.2639 19.5968 18.2374 19.6169C18.2066 19.6402 18.1789 19.6604 18.1555 19.6906C18.1448 19.7045 18.1341 19.7177 18.1234 19.7316C18.073 19.7952 18.0371 19.8538 18.0371 19.9382C18.0371 20.01 18.0692 20.0951 18.1234 20.1448C18.2393 20.2507 18.4252 20.262 18.5398 20.1448C18.5776 20.1064 18.618 20.0693 18.6469 20.0233C18.6652 19.9949 18.6803 19.964 18.6967 19.9344C18.754 19.8311 18.7446 19.685 18.6532 19.6012C18.6179 19.5691 18.5764 19.5451 18.531 19.5306V19.53Z" fill="#F4C151"/>
<path d="M20.9171 19.0682C20.9417 19.0279 20.9562 18.975 20.9732 18.9296C21.0122 18.8225 20.948 18.677 20.8478 18.6247C20.7413 18.5693 20.6046 18.5787 20.5177 18.6669C20.4377 18.7482 20.3652 18.8408 20.3652 18.9611C20.3652 19.0544 20.4024 19.1722 20.49 19.2188C20.5756 19.2641 20.6682 19.2509 20.7539 19.215C20.8245 19.1854 20.878 19.1325 20.9177 19.0682H20.9171Z" fill="#F4C151"/>
<path d="M22.3021 11.436C22.3185 11.4234 22.3336 11.4121 22.3481 11.3982C22.3576 11.3894 22.3664 11.38 22.3752 11.3712C22.3803 11.3661 22.396 11.3535 22.3979 11.351C22.4118 11.3403 22.4262 11.3296 22.4401 11.3189C22.4552 11.3113 22.4722 11.3044 22.4792 11.3012C22.5762 11.2552 22.6291 11.1148 22.5963 11.0152C22.5623 10.91 22.4659 10.8275 22.35 10.8294C22.1352 10.8332 21.8958 10.9503 21.8505 11.1702C21.8511 11.1645 21.8523 11.1582 21.853 11.1526C21.8511 11.157 21.8498 11.1614 21.8479 11.1658C21.8101 11.2653 21.8668 11.3888 21.9456 11.4493C22.0237 11.5091 22.1554 11.5318 22.2429 11.4726C22.2643 11.4631 22.2845 11.4518 22.3021 11.436ZM22.4401 11.3189C22.4313 11.3258 22.4225 11.3321 22.4143 11.339C22.4162 11.3327 22.4275 11.3258 22.4401 11.3189Z" fill="#F4C151"/>
<path d="M21.1263 11.1903C21.0399 11.1677 20.9297 11.1872 20.8516 11.2332C20.7798 11.2748 20.7237 11.3497 20.679 11.4171C20.6286 11.4921 20.626 11.586 20.6519 11.6691C20.6607 11.7164 20.6752 11.758 20.7079 11.8002C20.7451 11.848 20.7987 11.8902 20.8604 11.9041C20.965 11.9274 21.057 11.9003 21.13 11.8373C21.1407 11.8291 21.1565 11.8165 21.1779 11.7995C21.2176 11.7605 21.2447 11.7139 21.2598 11.6603C21.2648 11.6427 21.2749 11.6175 21.2768 11.5992C21.2806 11.5898 21.285 11.5797 21.29 11.5677C21.2919 11.5545 21.2932 11.5438 21.2945 11.5337C21.3083 11.5028 21.3121 11.4593 21.3089 11.4285C21.2976 11.3195 21.2396 11.2206 21.1263 11.191V11.1903Z" fill="#F4C151"/>
<path d="M22.4921 11.7466C22.4278 11.7378 22.3459 11.7542 22.3025 11.8084C22.2861 11.8285 22.2697 11.8493 22.2539 11.8695C22.2357 11.8934 22.2231 11.9186 22.2136 11.947C22.2111 11.9533 22.2023 11.9766 22.2149 11.9495C22.2155 11.9476 22.2161 11.9463 22.2168 11.9451C22.2143 11.9501 22.2117 11.9564 22.2105 11.9589C22.2029 11.9759 22.1941 11.993 22.1884 12.0106C22.1809 12.0326 22.1752 12.0623 22.1758 12.0843C22.1783 12.1517 22.2161 12.2071 22.2854 12.2229C22.3377 12.2349 22.39 12.2229 22.441 12.2103C22.4631 12.2072 22.4851 12.2027 22.5066 12.1939C22.5311 12.1838 22.5538 12.1719 22.5765 12.1593C22.6962 12.0956 22.7189 11.9325 22.6395 11.8311C22.6017 11.7825 22.5538 11.7548 22.4921 11.7473V11.7466Z" fill="#F4C151"/>
<path d="M17.4002 11.7901C17.2874 11.8317 17.1785 11.8821 17.0808 11.952C17.0008 12.01 16.9328 12.0585 16.9164 12.1624C16.9151 12.1694 16.9145 12.175 16.9132 12.1794C16.9095 12.1895 16.9063 12.1996 16.905 12.2097C16.8943 12.2506 16.895 12.2884 16.9069 12.3287C16.9214 12.3754 16.963 12.4283 17.0153 12.4358C17.0531 12.4415 17.0827 12.4465 17.1211 12.4377C17.135 12.4346 17.1848 12.4195 17.1879 12.4169C17.2181 12.4106 17.2572 12.4012 17.2667 12.3955C17.3 12.376 17.3246 12.3483 17.3523 12.3224C17.4153 12.2645 17.4802 12.2242 17.5665 12.1813C17.7826 12.0742 17.6308 11.7044 17.4002 11.7895V11.7901Z" fill="#F4C151"/>
<path d="M17.7899 12.97C17.817 12.9726 17.8478 12.9738 17.8743 12.965C17.902 12.9562 17.9278 12.9411 17.953 12.9272C18.0299 12.8862 18.0601 12.7747 18.0129 12.7023C17.9902 12.667 17.9562 12.6362 17.914 12.6267C17.868 12.6166 17.8289 12.6242 17.7861 12.6431C17.7584 12.6557 17.7351 12.6651 17.7118 12.6872C17.6929 12.7054 17.6777 12.7288 17.6639 12.7508C17.6368 12.7949 17.6381 12.8535 17.6639 12.8976C17.6922 12.9448 17.7376 12.9644 17.7905 12.9694L17.7899 12.97Z" fill="#F4C151"/>
<path d="M23.6575 17.2829C23.5045 17.2854 23.3785 17.3919 23.313 17.5235C23.2884 17.5727 23.267 17.6243 23.2525 17.6772C23.2374 17.7339 23.2399 17.7837 23.2537 17.8328C23.2531 17.8599 23.2537 17.8864 23.2619 17.9141C23.2783 17.9777 23.352 18.0439 23.4232 18.0357C23.4547 18.0319 23.4818 18.0256 23.5089 18.0168C23.6153 18.0111 23.7079 17.9387 23.7785 17.8624C23.8724 17.7604 23.953 17.6092 23.9026 17.4675C23.8654 17.3635 23.7747 17.281 23.6582 17.2829H23.6575Z" fill="#F4C151"/>
<path d="M23.5929 19.2415C23.579 19.2314 23.5639 19.2226 23.5475 19.2156C23.5167 19.2024 23.4864 19.1992 23.453 19.1961C23.4184 19.1929 23.3831 19.1961 23.3504 19.2074C23.2439 19.244 23.174 19.3378 23.1897 19.4512C23.2042 19.5583 23.2974 19.6459 23.4102 19.644C23.4946 19.6428 23.5897 19.6068 23.6408 19.5369C23.6427 19.535 23.6452 19.5331 23.6471 19.5312C23.6956 19.4897 23.7107 19.4134 23.6943 19.3542C23.6792 19.2988 23.6414 19.2641 23.5935 19.2402L23.5929 19.2415Z" fill="#F4C151"/>
<path d="M21.2269 20.5846C21.1343 20.5436 21.0209 20.5102 20.9188 20.5348C20.8054 20.5619 20.7311 20.6621 20.7305 20.7742C20.7305 20.8221 20.7639 20.8624 20.8092 20.8763C20.8212 20.88 20.8243 20.88 20.8111 20.875C20.8382 20.8857 20.8609 20.8939 20.8905 20.8964C20.9283 20.8996 20.9705 20.8989 21.007 20.8882C21.0612 20.8725 21.0908 20.8498 21.1544 20.8504C21.2893 20.8523 21.3617 20.6438 21.2269 20.5846Z" fill="#F4C151"/>
<path d="M20.4399 19.5306C20.4204 19.5212 20.4008 19.5098 20.38 19.5042C20.3315 19.4909 20.2692 19.4985 20.227 19.5262C20.2137 19.535 20.2011 19.5439 20.1885 19.5533C20.1432 19.5848 20.1123 19.6276 20.1123 19.685C20.1123 19.7423 20.1432 19.7851 20.1885 19.8166C20.2011 19.8255 20.2137 19.8349 20.227 19.8437C20.2389 19.8513 20.2629 19.8607 20.2767 19.8651C20.3026 19.8721 20.329 19.8727 20.3548 19.8696C20.3719 19.8696 20.3876 19.8651 20.4027 19.857C20.4115 19.8538 20.4197 19.8507 20.4279 19.8462C20.4323 19.8444 20.4361 19.8418 20.4405 19.8399C20.496 19.8122 20.53 19.7454 20.53 19.6856C20.53 19.6258 20.4966 19.559 20.4405 19.5313L20.4399 19.5306Z" fill="#F4C151"/>
<path d="M20.4223 14.8946C20.5564 14.9003 20.6591 14.8222 20.7732 14.7661C20.9111 14.6987 21.08 14.562 20.976 14.3913C20.8828 14.2382 20.6705 14.2376 20.5199 14.2949C20.3567 14.3573 20.198 14.4883 20.2043 14.6779C20.2087 14.7982 20.3013 14.8896 20.4229 14.8946H20.4223Z" fill="#F4C151"/>
<path d="M19.7822 15.095C19.7822 15.095 19.7784 15.0918 19.7759 15.0906C19.7393 15.0622 19.7015 15.0376 19.6524 15.0402C19.6033 15.042 19.5673 15.0609 19.5289 15.0906C19.527 15.0918 19.5251 15.0937 19.5226 15.095C19.4741 15.1321 19.4584 15.2159 19.4754 15.2714C19.4987 15.3457 19.5617 15.437 19.6518 15.4326C19.7437 15.4289 19.803 15.352 19.8282 15.2714C19.8458 15.2159 19.8294 15.1321 19.7809 15.095H19.7822Z" fill="#F4C151"/>
<path d="M20.4665 15.2713C20.4394 15.2732 20.4174 15.2783 20.3928 15.2884C20.3632 15.3003 20.3355 15.3167 20.3128 15.34C20.2845 15.3696 20.2674 15.4049 20.2618 15.4452C20.2599 15.4572 20.2586 15.4679 20.258 15.4792C20.258 15.4887 20.2567 15.4981 20.2561 15.5076C20.253 15.5542 20.28 15.5983 20.316 15.626C20.3304 15.6392 20.3481 15.6481 20.3676 15.6531C20.3947 15.66 20.4212 15.66 20.4482 15.6531C20.4577 15.6518 20.4672 15.6506 20.476 15.6493C20.5131 15.6443 20.5509 15.6248 20.5768 15.5977C20.619 15.5529 20.6435 15.4937 20.6423 15.432C20.6404 15.3476 20.5692 15.2663 20.4791 15.2707C20.4747 15.2707 20.4703 15.2707 20.4659 15.2707L20.4665 15.2713Z" fill="#F4C151"/>
<path d="M23.3821 14.7667C23.5119 14.6936 23.602 14.5645 23.6599 14.4297C23.6908 14.3572 23.6958 14.269 23.6316 14.2104C23.573 14.1569 23.481 14.1386 23.4104 14.1821C23.3758 14.2035 23.3449 14.23 23.3134 14.2552C23.3096 14.2583 23.3002 14.2653 23.2939 14.2697C23.2719 14.286 23.2504 14.3031 23.2303 14.322C23.1603 14.3868 23.1219 14.4549 23.0879 14.5424C23.0602 14.6155 23.1018 14.7069 23.1597 14.751C23.2233 14.7995 23.3115 14.8064 23.3821 14.7667Z" fill="#F4C151"/>
<path d="M23.2947 14.27C23.2947 14.27 23.2969 14.2679 23.2983 14.2672C23.2855 14.2764 23.2877 14.275 23.2947 14.27Z" fill="#F4C151"/>
<path d="M17.8024 21.5774C17.7728 21.5944 17.7425 21.6108 17.718 21.6354C17.684 21.67 17.6688 21.7109 17.66 21.7569C17.6493 21.8117 17.6556 21.8603 17.6909 21.905C17.7255 21.9497 17.7696 21.9667 17.8251 21.9718C17.8729 21.9762 17.9177 21.9736 17.9611 21.9478C17.9907 21.9302 18.0153 21.9062 18.0405 21.8823C18.1111 21.8155 18.1136 21.7015 18.0556 21.6272C17.9964 21.5509 17.8881 21.5283 17.803 21.5774H17.8024Z" fill="#F4C151"/>
<path d="M13.9526 11.7473C15.5376 10.6977 11.5612 9.58581 7.6402 9.64565C3.71922 9.7055 3.91388 10.1194 3.74694 10.4501C3.08673 11.7592 12.3675 12.7968 13.9526 11.7479V11.7473Z" fill="#EA9713"/>
</svg>
