<svg width="30" height="30" viewBox="0 0 30 30" fill="none" xmlns="http://www.w3.org/2000/svg">
<rect width="30" height="30" fill="#FDFBF5"/>
<path d="M8.86101 28.8924H7.5V2.25L8.86101 3.61008V28.8924Z" fill="#058065"/>
<path d="M19.5547 28.8924H20.9157V2.25L19.5547 3.61008V28.8924Z" fill="#058065"/>
<path d="M19.5549 3.61008L20.9159 2.25H7.5L8.86101 3.61008H19.5549Z" fill="#058065"/>
<path d="M19.5548 3.61008H8.86084V28.8914H19.5548V3.61008Z" fill="#01A983"/>
<path d="M17.8026 18.1046H10.613L10.1299 17.6215H18.2857L17.8026 18.1046Z" fill="#058065"/>
<path d="M10.613 26.8875V18.1046L10.1299 17.6215V27.3706L10.613 26.8875Z" fill="#058065"/>
<path d="M17.8027 26.8875V18.1046L18.2858 17.6215V27.3706L17.8027 26.8875Z" fill="#058065"/>
<path d="M17.8026 26.8875H10.613L10.1299 27.3706H18.2857L17.8026 26.8875Z" fill="#058065"/>
<path d="M17.8026 5.66877H10.613L10.1299 5.18475H18.2857L17.8026 5.66877Z" fill="#058065"/>
<path d="M10.613 14.4517V5.66877L10.1299 5.18475V14.9348L10.613 14.4517Z" fill="#058065"/>
<path d="M17.8027 14.4517V5.66877L18.2858 5.18475V14.9348L17.8027 14.4517Z" fill="#058065"/>
<path d="M17.8026 14.4517H10.613L10.1299 14.9348H18.2857L17.8026 14.4517Z" fill="#058065"/>
<path d="M9.79017 18.5505C9.79017 18.7345 9.64154 18.8831 9.45759 18.8831C9.27364 18.8831 9.125 18.7345 9.125 18.5505V16.5717C9.125 16.3887 9.27364 16.2391 9.45759 16.2391C9.64154 16.2391 9.79017 16.3878 9.79017 16.5717V18.5505Z" fill="#CCCCCC"/>
<path d="M10.679 17.0659C10.679 17.1328 10.614 17.1867 10.5332 17.1867H9.49454C9.41464 17.1867 9.34961 17.1328 9.34961 17.0659C9.34961 17 9.41464 16.9461 9.49454 16.9461H10.5332C10.6131 16.9461 10.679 17 10.679 17.0659Z" fill="#E5E5E5"/>
<path d="M17.8025 8.58032L10.6128 12.0734V14.4517H11.7118L17.8025 11.4919V8.58032Z" fill="#DDEDF9"/>
<path d="M17.8034 5.66876H16.2185L10.6138 8.39171V10.3975L17.8034 6.90436V5.66876Z" fill="#DDEDF9"/>
<path d="M17.8034 6.90433L10.6138 10.3974V12.0734L17.8034 8.58027V6.90433Z" fill="#C6E1F5"/>
<path d="M10.6138 5.66876V8.39171L16.2185 5.66876H10.6138Z" fill="#C6E1F5"/>
<path d="M17.8035 11.4918L11.7129 14.4517H17.8035V11.4918Z" fill="#C6E1F5"/>
<path d="M17.8025 21.0459L10.6128 24.539V26.9173H11.7118L17.8025 23.9574V21.0459Z" fill="#01A983"/>
<path d="M17.8034 18.1344H16.2185L10.6138 20.8573V22.8631L17.8034 19.37V18.1344Z" fill="#01A983"/>
<path d="M17.8034 19.3699L10.6138 22.863V24.539L17.8034 21.0459V19.3699Z" fill="#01A983"/>
<path d="M10.6138 18.1344V20.8573L16.2185 18.1344H10.6138Z" fill="#01A983"/>
<path d="M17.8035 23.9575L11.7129 26.9173H17.8035V23.9575Z" fill="#01A983"/>
</svg>
