<svg width="30" height="30" viewBox="0 0 30 30" fill="none" xmlns="http://www.w3.org/2000/svg">
<rect width="30" height="30" fill="#FDFBF5"/>
<path d="M15.0191 23.1429C15.3747 23.0061 17.2831 21.5539 18.5092 20.5928C19.6076 19.7319 20.6871 18.8428 21.6002 17.8308C21.8967 17.5022 22.1523 17.2126 22.3702 16.9605C23.1111 16.1044 23.7195 15.1672 24.1797 14.1728C24.317 13.8762 24.4485 13.5782 24.5514 13.3207C25.055 12.0609 25.1379 10.7016 24.7834 9.40391C24.6939 9.07599 24.6127 8.88377 24.6127 8.88377C23.6439 6.54123 21.0143 6.08222 21.0143 6.08222C18.0422 5.41939 14.9937 8.98191 14.9937 8.98191C14.9937 8.98191 11.9403 5.42657 8.9703 6.09658C8.9703 6.09658 6.34214 6.56185 5.38063 8.9066C5.38063 8.9066 5.30006 9.09901 5.21162 9.42711C4.86115 10.7257 4.94831 12.0847 5.45589 13.3433C5.55971 13.6007 5.6921 13.8982 5.83035 14.1947C6.29361 15.188 6.90501 16.1237 7.64844 16.978C7.86725 17.2295 8.1236 17.5186 8.42116 17.8465C9.33743 18.8562 10.4198 19.7427 11.5208 20.6011C12.7499 21.5593 14.663 23.007 15.0191 23.1429Z" fill="#F68E83"/>
</svg>
