<svg width="30" height="30" viewBox="0 0 30 30" fill="none" xmlns="http://www.w3.org/2000/svg">
<rect width="30" height="30" fill="#FDFBF5"/>
<path fill-rule="evenodd" clip-rule="evenodd" d="M6.60288 3.75H21.8919C22.4827 3.75 22.9592 4.23114 22.9592 4.81709V24.9345H5.53564V4.81709C5.53564 4.22638 6.01685 3.75 6.60288 3.75Z" fill="#D7D8D8"/>
<path fill-rule="evenodd" clip-rule="evenodd" d="M5.53564 24.3867V5.25537H5.8358C6.16455 5.25537 6.42659 5.51738 6.42659 5.84608V23.7864C6.42659 24.1151 6.16455 24.3867 5.8358 24.3867H5.53564Z" fill="#AEAEAF"/>
<path d="M23.25 24.9345H5.25V25.6586H23.25V24.9345Z" fill="#40484C"/>
<path d="M7.99881 27.3449H7.16504V27.6593H7.99881V27.3449Z" fill="#30302F"/>
<path fill-rule="evenodd" clip-rule="evenodd" d="M8.42306 26.3207C8.67081 26.3207 8.86138 26.5256 8.86138 26.759V28.2501C8.86138 28.4835 8.67081 28.6883 8.42306 28.6883C8.1896 28.6883 7.99902 28.4835 7.99902 28.2501V26.759C7.99902 26.5256 8.1896 26.3207 8.42306 26.3207Z" fill="#40484C"/>
<path fill-rule="evenodd" clip-rule="evenodd" d="M6.7269 26.3207C6.97465 26.3207 7.16523 26.5256 7.16523 26.759V28.2501C7.16523 28.4835 6.97465 28.6883 6.7269 28.6883C6.49344 28.6883 6.28857 28.4835 6.28857 28.2501V26.759C6.28857 26.5256 6.49344 26.3207 6.7269 26.3207Z" fill="#40484C"/>
<path fill-rule="evenodd" clip-rule="evenodd" d="M7.27539 25.6633H7.87571V27.8404C7.87571 27.9785 7.73754 28.0881 7.57555 28.0881C7.41356 28.0881 7.27539 27.9785 7.27539 27.8404V25.6633Z" fill="#40484C"/>
<path d="M7.87571 25.6633H7.27539V26.0206H7.87571V25.6633Z" fill="#30302F"/>
<path fill-rule="evenodd" clip-rule="evenodd" d="M6.4794 27.4688H6.98443C6.98443 27.4688 7.01302 27.4831 7.01302 27.4974C7.01302 27.5259 6.99873 27.5402 6.98443 27.5402H6.4794C6.45082 27.5402 6.43652 27.5259 6.43652 27.4974C6.43652 27.4974 6.45082 27.4688 6.4794 27.4688ZM6.4794 27.2211H6.98443C6.98443 27.2211 7.01302 27.2353 7.01302 27.2639C7.01302 27.2639 6.99873 27.2925 6.98443 27.2925H6.4794C6.45082 27.2925 6.43652 27.2782 6.43652 27.2639C6.43652 27.2353 6.45082 27.2211 6.4794 27.2211ZM6.4794 26.9733H6.98443C6.98443 26.9733 7.01302 26.9876 7.01302 27.0019C7.01302 27.0019 6.99873 27.0448 6.98443 27.0448H6.4794C6.45082 27.0448 6.43652 27.0162 6.43652 27.0019C6.43652 27.0019 6.45082 26.9733 6.4794 26.9733ZM6.4794 26.7113H6.98443C6.98443 26.7113 7.01302 26.7256 7.01302 26.7399C7.01302 26.7685 6.99873 26.7828 6.98443 26.7828H6.4794C6.45082 26.7828 6.43652 26.7685 6.43652 26.7399C6.43652 26.7399 6.45082 26.7113 6.4794 26.7113ZM6.63186 26.4779H6.82244C6.82244 26.4779 6.85103 26.4922 6.85103 26.5065C6.85103 26.5065 6.83673 26.5494 6.82244 26.5494H6.63186C6.63186 26.5494 6.60328 26.5208 6.60328 26.5065C6.60328 26.5065 6.61757 26.4779 6.63186 26.4779ZM6.4794 27.7784H6.98443C6.98443 27.7784 7.01302 27.7641 7.01302 27.7355C7.01302 27.7355 6.99873 27.707 6.98443 27.707H6.4794C6.45082 27.707 6.43652 27.7212 6.43652 27.7355C6.43652 27.7641 6.45082 27.7784 6.4794 27.7784ZM6.4794 28.0261H6.98443C6.98443 28.0261 7.01302 28.0118 7.01302 27.9975C7.01302 27.969 6.99873 27.9547 6.98443 27.9547H6.4794C6.45082 27.9547 6.43652 27.969 6.43652 27.9975C6.43652 27.9975 6.45082 28.0261 6.4794 28.0261ZM6.4794 28.2881H6.98443C6.98443 28.2881 7.01302 28.2738 7.01302 28.2453C7.01302 28.2453 6.99873 28.2167 6.98443 28.2167H6.4794C6.45082 28.2167 6.43652 28.231 6.43652 28.2453C6.43652 28.2738 6.45082 28.2881 6.4794 28.2881ZM6.63186 28.5216H6.82244C6.82244 28.5216 6.85103 28.5073 6.85103 28.493C6.85103 28.4644 6.83673 28.4501 6.82244 28.4501H6.63186C6.63186 28.4501 6.60328 28.4644 6.60328 28.493C6.60328 28.493 6.61757 28.5216 6.63186 28.5216Z" fill="#6B777E"/>
<path fill-rule="evenodd" clip-rule="evenodd" d="M8.17995 27.4688H8.68498C8.68498 27.4688 8.71357 27.4831 8.71357 27.4974C8.71357 27.5259 8.69928 27.5402 8.68498 27.5402H8.17995C8.17995 27.5402 8.15137 27.5259 8.15137 27.4974C8.15137 27.4974 8.16566 27.4688 8.17995 27.4688ZM8.17995 27.2211H8.68498C8.68498 27.2211 8.71357 27.2353 8.71357 27.2639C8.71357 27.2639 8.69928 27.2925 8.68498 27.2925H8.17995C8.17995 27.2925 8.15137 27.2782 8.15137 27.2639C8.15137 27.2353 8.16566 27.2211 8.17995 27.2211ZM8.17995 26.9733H8.68498C8.68498 26.9733 8.71357 26.9876 8.71357 27.0019C8.71357 27.0019 8.69928 27.0448 8.68498 27.0448H8.17995C8.17995 27.0448 8.15137 27.0162 8.15137 27.0019C8.15137 27.0019 8.16566 26.9733 8.17995 26.9733ZM8.17995 26.7113H8.68498C8.68498 26.7113 8.71357 26.7256 8.71357 26.7399C8.71357 26.7685 8.69928 26.7828 8.68498 26.7828H8.17995C8.17995 26.7828 8.15137 26.7685 8.15137 26.7399C8.15137 26.7399 8.16566 26.7113 8.17995 26.7113ZM8.34194 26.4779H8.51823C8.54681 26.4779 8.56111 26.4922 8.56111 26.5065C8.56111 26.5065 8.54681 26.5494 8.51823 26.5494H8.34194C8.31336 26.5494 8.29906 26.5208 8.29906 26.5065C8.29906 26.5065 8.31336 26.4779 8.34194 26.4779ZM8.17995 27.7784H8.68498C8.68498 27.7784 8.71357 27.7641 8.71357 27.7355C8.71357 27.7355 8.69928 27.707 8.68498 27.707H8.17995C8.17995 27.707 8.15137 27.7212 8.15137 27.7355C8.15137 27.7641 8.16566 27.7784 8.17995 27.7784ZM8.17995 28.0261H8.68498C8.68498 28.0261 8.71357 28.0118 8.71357 27.9975C8.71357 27.969 8.69928 27.9547 8.68498 27.9547H8.17995C8.17995 27.9547 8.15137 27.969 8.15137 27.9975C8.15137 27.9975 8.16566 28.0261 8.17995 28.0261ZM8.17995 28.2881H8.68498C8.68498 28.2881 8.71357 28.2738 8.71357 28.2453C8.71357 28.2453 8.69928 28.2167 8.68498 28.2167H8.17995C8.17995 28.2167 8.15137 28.231 8.15137 28.2453C8.15137 28.2738 8.16566 28.2881 8.17995 28.2881ZM8.34194 28.5216H8.51823C8.54681 28.5216 8.56111 28.5073 8.56111 28.493C8.56111 28.4644 8.54681 28.4501 8.51823 28.4501H8.34194C8.31336 28.4501 8.29906 28.4644 8.29906 28.493C8.29906 28.493 8.31336 28.5216 8.34194 28.5216Z" fill="#6B777E"/>
<path d="M21.3299 27.3449H20.4961V27.6593H21.3299V27.3449Z" fill="#30302F"/>
<path fill-rule="evenodd" clip-rule="evenodd" d="M21.7679 26.3207C22.0014 26.3207 22.1919 26.5256 22.1919 26.759V28.2501C22.1919 28.4835 22.0014 28.6883 21.7679 28.6883C21.5202 28.6883 21.3296 28.4835 21.3296 28.2501V26.759C21.3296 26.5256 21.5202 26.3207 21.7679 26.3207Z" fill="#40484C"/>
<path fill-rule="evenodd" clip-rule="evenodd" d="M20.0578 26.3207C20.3056 26.3207 20.4962 26.5256 20.4962 26.759V28.2501C20.4962 28.4835 20.3056 28.6883 20.0578 28.6883C19.8244 28.6883 19.6338 28.4835 19.6338 28.2501V26.759C19.6338 26.5256 19.8244 26.3207 20.0578 26.3207Z" fill="#40484C"/>
<path fill-rule="evenodd" clip-rule="evenodd" d="M20.606 25.6633H21.2206V27.8404C21.2206 27.9785 21.0824 28.0881 20.9204 28.0881C20.7441 28.0881 20.606 27.9785 20.606 27.8404V25.6633Z" fill="#40484C"/>
<path d="M21.2206 25.6633H20.606V26.0206H21.2206V25.6633Z" fill="#30302F"/>
<path fill-rule="evenodd" clip-rule="evenodd" d="M19.8108 27.4688H20.3158C20.3158 27.4688 20.3444 27.4831 20.3444 27.4974C20.3444 27.5259 20.3301 27.5402 20.3158 27.5402H19.8108C19.8108 27.5402 19.7822 27.5259 19.7822 27.4974C19.7822 27.4974 19.7965 27.4688 19.8108 27.4688ZM19.8108 27.2211H20.3158C20.3158 27.2211 20.3444 27.2353 20.3444 27.2639C20.3444 27.2639 20.3301 27.2925 20.3158 27.2925H19.8108C19.8108 27.2925 19.7822 27.2782 19.7822 27.2639C19.7822 27.2353 19.7965 27.2211 19.8108 27.2211ZM19.8108 26.9733H20.3158C20.3158 26.9733 20.3444 26.9876 20.3444 27.0019C20.3444 27.0019 20.3301 27.0448 20.3158 27.0448H19.8108C19.8108 27.0448 19.7822 27.0162 19.7822 27.0019C19.7822 27.0019 19.7965 26.9733 19.8108 26.9733ZM19.8108 26.7113H20.3158C20.3158 26.7113 20.3444 26.7256 20.3444 26.7399C20.3444 26.7685 20.3301 26.7828 20.3158 26.7828H19.8108C19.8108 26.7828 19.7822 26.7685 19.7822 26.7399C19.7822 26.7399 19.7965 26.7113 19.8108 26.7113ZM19.9728 26.4779H20.1491C20.1777 26.4779 20.192 26.4922 20.192 26.5065C20.192 26.5065 20.1777 26.5494 20.1491 26.5494H19.9728C19.9442 26.5494 19.9299 26.5208 19.9299 26.5065C19.9299 26.5065 19.9442 26.4779 19.9728 26.4779ZM19.8108 27.7784H20.3158C20.3158 27.7784 20.3444 27.7641 20.3444 27.7355C20.3444 27.7355 20.3301 27.707 20.3158 27.707H19.8108C19.8108 27.707 19.7822 27.7212 19.7822 27.7355C19.7822 27.7641 19.7965 27.7784 19.8108 27.7784ZM19.8108 28.0261H20.3158C20.3158 28.0261 20.3444 28.0118 20.3444 27.9975C20.3444 27.969 20.3301 27.9547 20.3158 27.9547H19.8108C19.8108 27.9547 19.7822 27.969 19.7822 27.9975C19.7822 27.9975 19.7965 28.0261 19.8108 28.0261ZM19.8108 28.2881H20.3158C20.3158 28.2881 20.3444 28.2738 20.3444 28.2453C20.3444 28.2453 20.3301 28.2167 20.3158 28.2167H19.8108C19.8108 28.2167 19.7822 28.231 19.7822 28.2453C19.7822 28.2738 19.7965 28.2881 19.8108 28.2881ZM19.9728 28.5216H20.1491C20.1777 28.5216 20.192 28.5073 20.192 28.493C20.192 28.4644 20.1777 28.4501 20.1491 28.4501H19.9728C19.9442 28.4501 19.9299 28.4644 19.9299 28.493C19.9299 28.493 19.9442 28.5216 19.9728 28.5216Z" fill="#6B777E"/>
<path fill-rule="evenodd" clip-rule="evenodd" d="M21.5105 27.4688H22.0155C22.0155 27.4688 22.0584 27.4831 22.0584 27.4974C22.0584 27.5259 22.0298 27.5402 22.0155 27.5402H21.5105C21.5105 27.5402 21.4819 27.5259 21.4819 27.4974C21.4819 27.4974 21.4962 27.4688 21.5105 27.4688ZM21.5105 27.2211H22.0155C22.0155 27.2211 22.0584 27.2353 22.0584 27.2639C22.0584 27.2639 22.0298 27.2925 22.0155 27.2925H21.5105C21.5105 27.2925 21.4819 27.2782 21.4819 27.2639C21.4819 27.2353 21.4962 27.2211 21.5105 27.2211ZM21.5105 26.9733H22.0155C22.0155 26.9733 22.0584 26.9876 22.0584 27.0019C22.0584 27.0019 22.0298 27.0448 22.0155 27.0448H21.5105C21.5105 27.0448 21.4819 27.0162 21.4819 27.0019C21.4819 27.0019 21.4962 26.9733 21.5105 26.9733ZM21.5105 26.7113H22.0155C22.0155 26.7113 22.0584 26.7256 22.0584 26.7399C22.0584 26.7685 22.0298 26.7828 22.0155 26.7828H21.5105C21.5105 26.7828 21.4819 26.7685 21.4819 26.7399C21.4819 26.7399 21.4962 26.7113 21.5105 26.7113ZM21.6725 26.4779H21.8488C21.8774 26.4779 21.8917 26.4922 21.8917 26.5065C21.8917 26.5065 21.8774 26.5494 21.8488 26.5494H21.6725C21.6725 26.5494 21.6296 26.5208 21.6296 26.5065C21.6296 26.5065 21.6582 26.4779 21.6725 26.4779ZM21.5105 27.7784H22.0155C22.0155 27.7784 22.0584 27.7641 22.0584 27.7355C22.0584 27.7355 22.0298 27.707 22.0155 27.707H21.5105C21.5105 27.707 21.4819 27.7212 21.4819 27.7355C21.4819 27.7641 21.4962 27.7784 21.5105 27.7784ZM21.5105 28.0261H22.0155C22.0155 28.0261 22.0584 28.0118 22.0584 27.9975C22.0584 27.969 22.0298 27.9547 22.0155 27.9547H21.5105C21.5105 27.9547 21.4819 27.969 21.4819 27.9975C21.4819 27.9975 21.4962 28.0261 21.5105 28.0261ZM21.5105 28.2881H22.0155C22.0155 28.2881 22.0584 28.2738 22.0584 28.2453C22.0584 28.2453 22.0298 28.2167 22.0155 28.2167H21.5105C21.5105 28.2167 21.4819 28.231 21.4819 28.2453C21.4819 28.2738 21.4962 28.2881 21.5105 28.2881ZM21.6725 28.5216H21.8488C21.8774 28.5216 21.8917 28.5073 21.8917 28.493C21.8917 28.4644 21.8774 28.4501 21.8488 28.4501H21.6725C21.6725 28.4501 21.6296 28.4644 21.6296 28.493C21.6296 28.493 21.6582 28.5216 21.6725 28.5216Z" fill="#6B777E"/>
<path fill-rule="evenodd" clip-rule="evenodd" d="M22.9596 24.3867V5.25537H22.6594C22.3307 5.25537 22.0591 5.51738 22.0591 5.84608V23.7864C22.0591 24.1151 22.3307 24.3867 22.6594 24.3867H22.9596Z" fill="#AEAEAF"/>
<path fill-rule="evenodd" clip-rule="evenodd" d="M8.02733 6.40341H20.4672C20.715 6.40341 20.9199 6.60825 20.9199 6.85597V21.8285C20.9199 22.0762 20.715 22.281 20.4672 22.281H8.02733C7.77958 22.281 7.57471 22.0762 7.57471 21.8285V6.85597C7.57471 6.60825 7.77958 6.40341 8.02733 6.40341Z" fill="#783412"/>
<path fill-rule="evenodd" clip-rule="evenodd" d="M8.49384 6.40341H20.0047C20.1667 8.92344 20.2524 11.5769 20.2524 14.3398C20.2524 17.1028 20.1715 19.761 20.0047 22.2763H8.49384C8.33185 19.7562 8.24609 17.0885 8.24609 14.3398C8.24609 11.5911 8.32709 8.91868 8.49384 6.40341Z" fill="#AA410E"/>
<path fill-rule="evenodd" clip-rule="evenodd" d="M9.97126 6.40341H18.5282C18.7902 8.82817 18.9379 11.5102 18.9379 14.3398C18.9379 17.1695 18.7855 19.8563 18.5282 22.2763H9.97126C9.70922 19.8515 9.56152 17.16 9.56152 14.3398C9.56152 11.5197 9.71399 8.8234 9.97126 6.40341Z" fill="#B94810"/>
<path fill-rule="evenodd" clip-rule="evenodd" d="M8.97058 4.21686C9.05158 4.21686 9.12304 4.28355 9.12304 4.3693V5.87465C9.12304 5.95564 9.05634 6.02709 8.97058 6.02709C8.88959 6.02709 8.81812 5.9604 8.81812 5.87465V4.3693C8.81812 4.28832 8.88482 4.21686 8.97058 4.21686ZM9.58519 4.21686C9.66619 4.21686 9.73765 4.28355 9.73765 4.3693V5.87465C9.73765 5.95564 9.67095 6.02709 9.58519 6.02709C9.5042 6.02709 9.43273 5.9604 9.43273 5.87465V4.3693C9.43273 4.28832 9.49943 4.21686 9.58519 4.21686ZM10.2141 4.21686C10.2951 4.21686 10.3666 4.28355 10.3666 4.3693V5.87465C10.3666 5.95564 10.2999 6.02709 10.2141 6.02709C10.1331 6.02709 10.0616 5.9604 10.0616 5.87465V4.3693C10.0616 4.28832 10.1283 4.21686 10.2141 4.21686ZM10.8287 4.21686C10.9097 4.21686 10.9812 4.28355 10.9812 4.3693V5.87465C10.9812 5.95564 10.9145 6.02709 10.8287 6.02709C10.7477 6.02709 10.6762 5.9604 10.6762 5.87465V4.3693C10.6762 4.28832 10.7429 4.21686 10.8287 4.21686ZM11.4433 4.21686C11.5243 4.21686 11.5958 4.28355 11.5958 4.3693V5.87465C11.5958 5.95564 11.5291 6.02709 11.4433 6.02709C11.3623 6.02709 11.2909 5.9604 11.2909 5.87465V4.3693C11.2909 4.28832 11.3576 4.21686 11.4433 4.21686ZM12.0722 4.21686C12.1532 4.21686 12.2247 4.28355 12.2247 4.3693V5.87465C12.2247 5.95564 12.158 6.02709 12.0722 6.02709C11.9912 6.02709 11.9198 5.9604 11.9198 5.87465V4.3693C11.9198 4.28832 11.9865 4.21686 12.0722 4.21686ZM12.6868 4.21686C12.7678 4.21686 12.8393 4.28355 12.8393 4.3693V5.87465C12.8393 5.95564 12.7726 6.02709 12.6868 6.02709C12.6058 6.02709 12.5344 5.9604 12.5344 5.87465V4.3693C12.5344 4.28832 12.6011 4.21686 12.6868 4.21686ZM13.3014 4.21686C13.3824 4.21686 13.4539 4.28355 13.4539 4.3693V5.87465C13.4539 5.95564 13.3872 6.02709 13.3014 6.02709C13.2204 6.02709 13.149 5.9604 13.149 5.87465V4.3693C13.149 4.28832 13.2157 4.21686 13.3014 4.21686ZM13.9303 4.21686C14.0113 4.21686 14.0828 4.28355 14.0828 4.3693V5.87465C14.0828 5.95564 14.0161 6.02709 13.9303 6.02709C13.8494 6.02709 13.7779 5.9604 13.7779 5.87465V4.3693C13.7779 4.28832 13.8446 4.21686 13.9303 4.21686ZM14.545 4.21686C14.626 4.21686 14.6974 4.28355 14.6974 4.3693V5.87465C14.6974 5.95564 14.6307 6.02709 14.545 6.02709C14.464 6.02709 14.3925 5.9604 14.3925 5.87465V4.3693C14.3925 4.28832 14.4592 4.21686 14.545 4.21686ZM15.1596 4.21686C15.2549 4.21686 15.3216 4.28355 15.3216 4.3693V5.87465C15.3216 5.95564 15.2549 6.02709 15.1596 6.02709C15.0786 6.02709 15.0071 5.9604 15.0071 5.87465V4.3693C15.0071 4.28832 15.0738 4.21686 15.1596 4.21686ZM15.7885 4.21686C15.8695 4.21686 15.9409 4.28355 15.9409 4.3693V5.87465C15.9409 5.95564 15.8742 6.02709 15.7885 6.02709C15.7075 6.02709 15.636 5.9604 15.636 5.87465V4.3693C15.636 4.28832 15.7027 4.21686 15.7885 4.21686ZM16.4031 4.21686C16.4841 4.21686 16.5555 4.28355 16.5555 4.3693V5.87465C16.5555 5.95564 16.4888 6.02709 16.4031 6.02709C16.3221 6.02709 16.2506 5.9604 16.2506 5.87465V4.3693C16.2506 4.28832 16.3173 4.21686 16.4031 4.21686ZM17.032 4.21686C17.113 4.21686 17.1845 4.28355 17.1845 4.3693V5.87465C17.1845 5.95564 17.1177 6.02709 17.032 6.02709C16.9367 6.02709 16.8795 5.9604 16.8795 5.87465V4.3693C16.8795 4.28832 16.9319 4.21686 17.032 4.21686ZM17.6466 4.21686C17.7276 4.21686 17.7991 4.28355 17.7991 4.3693V5.87465C17.7991 5.95564 17.7324 6.02709 17.6466 6.02709C17.5656 6.02709 17.4941 5.9604 17.4941 5.87465V4.3693C17.4941 4.28832 17.5608 4.21686 17.6466 4.21686ZM18.2612 4.21686C18.3422 4.21686 18.4137 4.28355 18.4137 4.3693V5.87465C18.4137 5.95564 18.347 6.02709 18.2612 6.02709C18.1802 6.02709 18.1087 5.9604 18.1087 5.87465V4.3693C18.1087 4.28832 18.1755 4.21686 18.2612 4.21686ZM18.8901 4.21686C18.9711 4.21686 19.0426 4.28355 19.0426 4.3693V5.87465C19.0426 5.95564 18.9759 6.02709 18.8901 6.02709C18.8091 6.02709 18.7377 5.9604 18.7377 5.87465V4.3693C18.7377 4.28832 18.8044 4.21686 18.8901 4.21686ZM19.5047 4.21686C19.5857 4.21686 19.6572 4.28355 19.6572 4.3693V5.87465C19.6572 5.95564 19.5905 6.02709 19.5047 6.02709C19.4237 6.02709 19.3523 5.9604 19.3523 5.87465V4.3693C19.3523 4.28832 19.419 4.21686 19.5047 4.21686ZM20.1193 4.21686C20.2003 4.21686 20.2718 4.28355 20.2718 4.3693V5.87465C20.2718 5.95564 20.2051 6.02709 20.1193 6.02709C20.0383 6.02709 19.9669 5.9604 19.9669 5.87465V4.3693C19.9669 4.28832 20.0336 4.21686 20.1193 4.21686ZM8.33215 4.21686C8.41314 4.21686 8.48461 4.28355 8.48461 4.3693V5.87465C8.48461 5.95564 8.41791 6.02709 8.33215 6.02709C8.25115 6.02709 8.17969 5.9604 8.17969 5.87465V4.3693C8.17969 4.28832 8.24639 4.21686 8.33215 4.21686Z" fill="#979797"/>
<path fill-rule="evenodd" clip-rule="evenodd" d="M7.57471 10.7575H20.9199V12.1533H7.57471V10.7575ZM7.57471 13.6444H20.9199V15.0401H7.57471V13.6444ZM7.57471 16.5312H20.9199V17.927H7.57471V16.5312ZM7.57471 19.418H20.9199V20.8138H7.57471V19.418ZM7.57471 7.86591H20.9199V9.2474H7.57471V7.86591Z" fill="#EA940B"/>
<path fill-rule="evenodd" clip-rule="evenodd" d="M8.28421 10.7575H20.1905C20.2048 11.2244 20.2191 11.6721 20.2334 12.1533H8.26039C8.27468 11.6721 8.27468 11.2244 8.28897 10.7575H8.28421ZM20.0809 7.87067C20.1095 8.32322 20.1238 8.78531 20.1476 9.25216H8.34138C8.35568 8.78531 8.38426 8.32322 8.40808 7.87067H20.0857H20.0809ZM20.2429 13.6443V15.0401H8.24609V13.6443H20.2524H20.2429ZM20.2286 16.5312C20.2143 16.998 20.2 17.4601 20.1857 17.927H8.28421C8.26992 17.4601 8.26992 16.998 8.25562 16.5312H20.2334H20.2286ZM20.1476 19.418C20.119 19.8992 20.1047 20.347 20.0809 20.8138H8.40808C8.3795 20.347 8.35568 19.8992 8.34138 19.418H20.1524H20.1476Z" fill="#FEA20E"/>
<path fill-rule="evenodd" clip-rule="evenodd" d="M9.64252 10.7575H18.8522C18.8664 11.2101 18.895 11.6721 18.895 12.1533H9.58535C9.59964 11.6721 9.62823 11.2101 9.64252 10.7575ZM18.6616 7.87067C18.7045 8.32322 18.7426 8.78531 18.7712 9.25216H9.72351C9.7521 8.78531 9.79022 8.32322 9.8331 7.87067H18.6616ZM18.9236 13.6443C18.9236 13.8778 18.9379 14.1112 18.9379 14.3446C18.9379 14.578 18.9236 14.8115 18.9236 15.0449H9.57582C9.56152 14.8115 9.56152 14.578 9.56152 14.3446C9.56152 14.1112 9.56152 13.8778 9.57582 13.6443H18.9236ZM18.895 16.5312C18.895 16.998 18.8664 17.4601 18.8522 17.927H9.64252C9.62823 17.4601 9.59964 16.998 9.58535 16.5312H18.895ZM18.7712 19.418C18.7426 19.8992 18.7045 20.3613 18.6616 20.8138H9.8331C9.79022 20.3613 9.7521 19.8992 9.72351 19.418H18.7712Z" fill="#FFB337"/>
<path fill-rule="evenodd" clip-rule="evenodd" d="M8.97058 22.7717C9.05158 22.7717 9.12304 22.8384 9.12304 22.9242V24.4295C9.12304 24.5105 9.05634 24.582 8.97058 24.582C8.88959 24.582 8.81812 24.5153 8.81812 24.4295V22.9242C8.81812 22.8432 8.88482 22.7717 8.97058 22.7717ZM9.58519 22.7717C9.66619 22.7717 9.73765 22.8384 9.73765 22.9242V24.4295C9.73765 24.5105 9.67095 24.582 9.58519 24.582C9.5042 24.582 9.43273 24.5153 9.43273 24.4295V22.9242C9.43273 22.8432 9.49943 22.7717 9.58519 22.7717ZM10.2141 22.7717C10.2951 22.7717 10.3666 22.8384 10.3666 22.9242V24.4295C10.3666 24.5105 10.2999 24.582 10.2141 24.582C10.1331 24.582 10.0616 24.5153 10.0616 24.4295V22.9242C10.0616 22.8432 10.1283 22.7717 10.2141 22.7717ZM10.8287 22.7717C10.9097 22.7717 10.9812 22.8384 10.9812 22.9242V24.4295C10.9812 24.5105 10.9145 24.582 10.8287 24.582C10.7477 24.582 10.6762 24.5153 10.6762 24.4295V22.9242C10.6762 22.8432 10.7429 22.7717 10.8287 22.7717ZM11.4433 22.7717C11.5243 22.7717 11.5958 22.8384 11.5958 22.9242V24.4295C11.5958 24.5105 11.5291 24.582 11.4433 24.582C11.3623 24.582 11.2909 24.5153 11.2909 24.4295V22.9242C11.2909 22.8432 11.3576 22.7717 11.4433 22.7717ZM12.0722 22.7717C12.1532 22.7717 12.2247 22.8384 12.2247 22.9242V24.4295C12.2247 24.5105 12.158 24.582 12.0722 24.582C11.9912 24.582 11.9198 24.5153 11.9198 24.4295V22.9242C11.9198 22.8432 11.9865 22.7717 12.0722 22.7717ZM12.6868 22.7717C12.7678 22.7717 12.8393 22.8384 12.8393 22.9242V24.4295C12.8393 24.5105 12.7726 24.582 12.6868 24.582C12.6058 24.582 12.5344 24.5153 12.5344 24.4295V22.9242C12.5344 22.8432 12.6011 22.7717 12.6868 22.7717ZM13.3014 22.7717C13.3824 22.7717 13.4539 22.8384 13.4539 22.9242V24.4295C13.4539 24.5105 13.3872 24.582 13.3014 24.582C13.2204 24.582 13.149 24.5153 13.149 24.4295V22.9242C13.149 22.8432 13.2157 22.7717 13.3014 22.7717ZM13.9303 22.7717C14.0113 22.7717 14.0828 22.8384 14.0828 22.9242V24.4295C14.0828 24.5105 14.0161 24.582 13.9303 24.582C13.8494 24.582 13.7779 24.5153 13.7779 24.4295V22.9242C13.7779 22.8432 13.8446 22.7717 13.9303 22.7717ZM14.545 22.7717C14.626 22.7717 14.6974 22.8384 14.6974 22.9242V24.4295C14.6974 24.5105 14.6307 24.582 14.545 24.582C14.464 24.582 14.3925 24.5153 14.3925 24.4295V22.9242C14.3925 22.8432 14.4592 22.7717 14.545 22.7717ZM15.1596 22.7717C15.2549 22.7717 15.3216 22.8384 15.3216 22.9242V24.4295C15.3216 24.5105 15.2549 24.582 15.1596 24.582C15.0786 24.582 15.0071 24.5153 15.0071 24.4295V22.9242C15.0071 22.8432 15.0738 22.7717 15.1596 22.7717ZM15.7885 22.7717C15.8695 22.7717 15.9409 22.8384 15.9409 22.9242V24.4295C15.9409 24.5105 15.8742 24.582 15.7885 24.582C15.7075 24.582 15.636 24.5153 15.636 24.4295V22.9242C15.636 22.8432 15.7027 22.7717 15.7885 22.7717ZM16.4031 22.7717C16.4841 22.7717 16.5555 22.8384 16.5555 22.9242V24.4295C16.5555 24.5105 16.4888 24.582 16.4031 24.582C16.3221 24.582 16.2506 24.5153 16.2506 24.4295V22.9242C16.2506 22.8432 16.3173 22.7717 16.4031 22.7717ZM17.032 22.7717C17.113 22.7717 17.1845 22.8384 17.1845 22.9242V24.4295C17.1845 24.5105 17.1177 24.582 17.032 24.582C16.9367 24.582 16.8795 24.5153 16.8795 24.4295V22.9242C16.8795 22.8432 16.9319 22.7717 17.032 22.7717ZM17.6466 22.7717C17.7276 22.7717 17.7991 22.8384 17.7991 22.9242V24.4295C17.7991 24.5105 17.7324 24.582 17.6466 24.582C17.5656 24.582 17.4941 24.5153 17.4941 24.4295V22.9242C17.4941 22.8432 17.5608 22.7717 17.6466 22.7717ZM18.2612 22.7717C18.3422 22.7717 18.4137 22.8384 18.4137 22.9242V24.4295C18.4137 24.5105 18.347 24.582 18.2612 24.582C18.1802 24.582 18.1087 24.5153 18.1087 24.4295V22.9242C18.1087 22.8432 18.1755 22.7717 18.2612 22.7717ZM18.8901 22.7717C18.9711 22.7717 19.0426 22.8384 19.0426 22.9242V24.4295C19.0426 24.5105 18.9759 24.582 18.8901 24.582C18.8091 24.582 18.7377 24.5153 18.7377 24.4295V22.9242C18.7377 22.8432 18.8044 22.7717 18.8901 22.7717ZM19.5047 22.7717C19.5857 22.7717 19.6572 22.8384 19.6572 22.9242V24.4295C19.6572 24.5105 19.5905 24.582 19.5047 24.582C19.4237 24.582 19.3523 24.5153 19.3523 24.4295V22.9242C19.3523 22.8432 19.419 22.7717 19.5047 22.7717ZM20.1193 22.7717C20.2003 22.7717 20.2718 22.8384 20.2718 22.9242V24.4295C20.2718 24.5105 20.2051 24.582 20.1193 24.582C20.0383 24.582 19.9669 24.5153 19.9669 24.4295V22.9242C19.9669 22.8432 20.0336 22.7717 20.1193 22.7717ZM8.33215 22.7717C8.41314 22.7717 8.48461 22.8384 8.48461 22.9242V24.4295C8.48461 24.5105 8.41791 24.582 8.33215 24.582C8.25115 24.582 8.17969 24.5153 8.17969 24.4295V22.9242C8.17969 22.8432 8.24639 22.7717 8.33215 22.7717Z" fill="#979797"/>
</svg>
