<svg width="375" height="120" viewBox="0 0 375 120" fill="none" xmlns="http://www.w3.org/2000/svg">
<path d="M87.9247 67.9228C132.703 55.6919 119.674 31.5564 84.6696 61.8894C119.674 31.5564 97.398 15.4328 79.1 57.8605C97.398 15.4328 70.2914 10.5108 72.3238 56.629C70.2934 10.5088 43.7225 17.7676 65.6806 58.4432C43.7225 17.7676 22.9489 35.7676 60.4897 62.9427C22.9509 35.7676 12.0917 60.9423 57.7724 69.2364C12.0917 60.9423 13.2983 88.3076 58.0765 76.0747C13.2983 88.3056 26.3289 112.441 61.3317 82.1081C26.3289 112.441 48.6032 128.565 66.8993 86.141C48.6032 128.567 75.7079 133.489 73.6774 87.3725C75.7079 133.491 102.279 126.234 80.3207 85.5563C102.279 126.234 123.05 108.23 85.5095 81.0548C123.048 108.23 133.908 83.0572 88.2268 74.7651C133.91 83.0592 132.701 55.6919 87.9227 67.9228H87.9247Z" fill="white"/>
<path d="M76.1853 58.1168C68.3536 56.6951 60.8442 61.8533 59.4161 69.6388C57.9859 77.4263 63.1748 84.8894 71.0065 86.3112C78.8381 87.7329 86.3455 82.5726 87.7756 74.7891C89.2078 67.0036 84.021 59.5385 76.1853 58.1168Z" fill="#F5BB2B"/>
<ellipse cx="73.7536" cy="72.2588" rx="14.3017" ry="14.2173" fill="#C6A15B" fill-opacity="0.45"/>
<ellipse cx="73.7536" cy="72.2588" rx="14.3017" ry="14.2173" fill="url(#paint0_linear_13_79)" fill-opacity="0.45"/>
<ellipse cx="73.7536" cy="72.2589" rx="11.918" ry="11.8478" fill="#FFE0A5" fill-opacity="0.45"/>
<ellipse cx="73.7536" cy="72.2588" rx="12.2873" ry="12.2149" fill="url(#paint1_linear_13_79)" fill-opacity="0.65"/>
<path d="M138.68 60.1914C138.698 60.0456 138.725 59.7995 138.762 59.4531C138.798 59.0885 138.826 58.7057 138.844 58.3047C138.898 57.9401 138.944 57.6029 138.98 57.293C139.035 56.9831 139.09 56.6823 139.145 56.3906C139.181 56.3724 139.199 56.3451 139.199 56.3086C139.217 56.2721 139.245 56.2357 139.281 56.1992C139.299 56.1628 139.336 56.0625 139.391 55.8984C139.445 55.7161 139.5 55.5247 139.555 55.3242C139.628 55.1055 139.691 54.9141 139.746 54.75C139.819 54.5677 139.874 54.4583 139.91 54.4219C140.074 54.0026 140.247 53.638 140.43 53.3281C140.612 53.0182 140.785 52.7174 140.949 52.4258C141.04 52.2799 141.132 52.1341 141.223 51.9883C141.314 51.8424 141.423 51.6693 141.551 51.4688C141.678 51.3229 141.788 51.0951 141.879 50.7852C141.97 50.5299 142.089 50.2839 142.234 50.0469C142.38 49.7917 142.581 49.5638 142.836 49.3633C143.128 49.1992 143.337 49.026 143.465 48.8438C143.592 48.6615 143.729 48.4701 143.875 48.2695C143.948 48.1784 144.048 48.0599 144.176 47.9141C144.322 47.7682 144.586 47.4948 144.969 47.0938C145.078 46.9661 145.188 46.8385 145.297 46.7109C145.424 46.5651 145.552 46.4557 145.68 46.3828C145.826 46.2734 145.935 46.2005 146.008 46.1641C146.081 46.1276 146.145 46.0911 146.199 46.0547C146.272 46 146.345 45.9362 146.418 45.8633C146.491 45.7904 146.582 45.6992 146.691 45.5898C146.801 45.4805 146.938 45.3346 147.102 45.1523C147.174 45.0612 147.329 44.9609 147.566 44.8516C147.803 44.7422 148.214 44.5417 148.797 44.25C148.76 44.2135 148.842 44.1406 149.043 44.0312C149.243 43.9036 149.444 43.7669 149.645 43.6211C149.863 43.5117 150.064 43.4206 150.246 43.3477C150.447 43.2565 150.656 43.1927 150.875 43.1562C150.893 43.1562 150.948 43.1471 151.039 43.1289C151.13 43.0924 151.23 43.056 151.34 43.0195C151.449 42.9648 151.559 42.9102 151.668 42.8555C151.777 42.8008 151.859 42.7461 151.914 42.6914C151.951 42.6914 151.978 42.6914 151.996 42.6914C152.033 42.6732 152.151 42.6367 152.352 42.582H152.953L153.855 42.4453C154.639 42.3177 155.387 42.2083 156.098 42.1172C156.827 42.026 157.574 41.9805 158.34 41.9805H158.641C159.042 41.9805 159.488 41.9896 159.98 42.0078C160.473 42.026 160.91 42.0898 161.293 42.1992C161.293 42.1992 161.329 42.2083 161.402 42.2266C161.475 42.2448 161.548 42.2721 161.621 42.3086C161.712 42.3268 161.794 42.3542 161.867 42.3906C161.958 42.4089 162.013 42.4271 162.031 42.4453C162.068 42.4635 162.168 42.4909 162.332 42.5273C162.496 42.5456 162.678 42.5729 162.879 42.6094C163.079 42.6276 163.262 42.6549 163.426 42.6914C163.608 42.7279 163.727 42.7552 163.781 42.7734C163.818 42.8099 163.891 42.8464 164 42.8828C164.128 42.9193 164.292 42.9831 164.492 43.0742C164.638 43.1471 164.775 43.2109 164.902 43.2656C165.03 43.3203 165.112 43.3659 165.148 43.4023C165.203 43.4206 165.249 43.4297 165.285 43.4297C165.34 43.4297 165.404 43.4479 165.477 43.4844C165.568 43.5208 165.641 43.5482 165.695 43.5664C165.75 43.5846 165.796 43.5938 165.832 43.5938C165.941 43.6667 166.133 43.776 166.406 43.9219C166.698 44.0495 166.999 44.1953 167.309 44.3594C167.618 44.5234 167.919 44.6784 168.211 44.8242C168.521 44.9701 168.749 45.0794 168.895 45.1523C168.931 45.1706 168.977 45.1888 169.031 45.207C169.104 45.2253 169.186 45.2344 169.277 45.2344C169.423 45.2344 169.533 45.1888 169.605 45.0977C169.678 44.9883 169.742 44.8789 169.797 44.7695C169.888 44.5143 169.988 44.2865 170.098 44.0859C170.207 43.8854 170.326 43.6849 170.453 43.4844C170.581 43.3385 170.672 43.2474 170.727 43.2109C170.799 43.1745 170.964 43.1562 171.219 43.1562C171.51 43.1562 171.738 43.2656 171.902 43.4844C172.085 43.7031 172.221 43.9674 172.312 44.2773C172.404 44.569 172.458 44.8789 172.477 45.207C172.513 45.5352 172.531 45.7995 172.531 46C172.531 46.4557 172.522 46.9206 172.504 47.3945C172.486 47.8503 172.449 48.3151 172.395 48.7891C172.34 49.5911 172.312 50.4388 172.312 51.332V52.0156C172.276 52.0885 172.23 52.1797 172.176 52.2891C172.139 52.3802 172.039 52.4896 171.875 52.6172C171.747 52.7448 171.638 52.8542 171.547 52.9453C171.456 53.0182 171.31 53.0547 171.109 53.0547C170.927 53.0547 170.708 53.0091 170.453 52.918C170.198 52.8086 170.025 52.6445 169.934 52.4258C169.624 51.7695 169.323 51.1589 169.031 50.5938C168.74 50.0104 168.421 49.4544 168.074 48.9258C167.746 48.3971 167.372 47.8867 166.953 47.3945C166.552 46.8841 166.078 46.3737 165.531 45.8633C164.984 45.4076 164.383 45.0612 163.727 44.8242C163.07 44.569 162.396 44.3411 161.703 44.1406C161.612 44.1042 161.521 44.0586 161.43 44.0039C161.01 43.9128 160.628 43.8581 160.281 43.8398C159.953 43.8216 159.579 43.8125 159.16 43.8125C158.23 43.8125 157.319 44.013 156.426 44.4141C155.533 44.7969 154.658 45.2161 153.801 45.6719C153.71 45.7812 153.564 45.8906 153.363 46C153.181 46.0911 152.98 46.1823 152.762 46.2734C152.561 46.401 152.397 46.5013 152.27 46.5742C152.142 46.6471 152.051 46.7018 151.996 46.7383L151.148 47.5586C151.039 47.7227 150.921 47.8685 150.793 47.9961C150.665 48.1055 150.583 48.1784 150.547 48.2148C150.492 48.2148 150.447 48.2331 150.41 48.2695C150.392 48.306 150.337 48.3333 150.246 48.3516C150.137 48.4245 150.073 48.4701 150.055 48.4883C150.036 48.4883 150.009 48.4883 149.973 48.4883C149.772 48.707 149.562 48.9805 149.344 49.3086C149.125 49.6185 148.943 49.9193 148.797 50.2109C148.779 50.2292 148.678 50.4023 148.496 50.7305C148.387 50.8945 148.268 51.0859 148.141 51.3047C148.013 51.5234 147.885 51.7422 147.758 51.9609C147.63 52.1615 147.503 52.362 147.375 52.5625C147.266 52.7448 147.184 52.8906 147.129 53C146.746 53.7109 146.436 54.513 146.199 55.4062C145.962 56.2995 145.771 57.2109 145.625 58.1406C145.497 59.0703 145.406 59.9909 145.352 60.9023C145.315 61.8138 145.297 62.6432 145.297 63.3906C145.297 64.3932 145.342 65.3776 145.434 66.3438C145.543 67.3099 145.762 68.2852 146.09 69.2695C146.108 69.2878 146.145 69.3424 146.199 69.4336C146.254 69.5247 146.299 69.6341 146.336 69.7617C146.391 69.8711 146.436 69.9805 146.473 70.0898C146.527 70.181 146.555 70.2357 146.555 70.2539C146.646 70.5091 146.737 70.7552 146.828 70.9922C146.919 71.2109 146.992 71.4206 147.047 71.6211C147.138 71.9128 147.238 72.2044 147.348 72.4961C147.475 72.7695 147.612 73.0339 147.758 73.2891C148.068 73.8906 148.496 74.4922 149.043 75.0938C149.59 75.6771 150.191 76.224 150.848 76.7344C151.504 77.2448 152.178 77.6914 152.871 78.0742C153.582 78.457 154.257 78.7214 154.895 78.8672C154.967 78.8672 155.104 78.8763 155.305 78.8945C155.505 78.9128 155.715 78.9219 155.934 78.9219H156.891C157.055 78.9219 157.301 78.9128 157.629 78.8945C157.975 78.8763 158.276 78.8672 158.531 78.8672H158.969C159.005 78.8672 159.124 78.8398 159.324 78.7852C159.525 78.7122 159.753 78.6302 160.008 78.5391C160.263 78.4479 160.518 78.3568 160.773 78.2656C161.047 78.1562 161.266 78.0742 161.43 78.0195C161.703 77.9102 161.949 77.7552 162.168 77.5547C162.405 77.3542 162.615 77.1354 162.797 76.8984C162.979 76.6432 163.125 76.3698 163.234 76.0781C163.344 75.7865 163.398 75.5039 163.398 75.2305V70.3633C163.398 70.3451 163.408 70.263 163.426 70.1172C163.444 69.9531 163.462 69.7617 163.48 69.543C163.517 69.3242 163.544 69.0964 163.562 68.8594C163.599 68.6224 163.626 68.3945 163.645 68.1758C163.681 67.7565 163.708 67.3737 163.727 67.0273C163.763 66.681 163.781 66.4622 163.781 66.3711V64.8672C163.781 64.7031 163.763 64.5391 163.727 64.375C163.708 64.1927 163.681 64.056 163.645 63.9648C163.572 63.9284 163.38 63.8372 163.07 63.6914C162.779 63.5273 162.514 63.3997 162.277 63.3086C162.223 63.2721 162.168 63.2539 162.113 63.2539C162.077 63.2357 162.031 63.2083 161.977 63.1719C161.831 63.1354 161.658 63.1081 161.457 63.0898C161.275 63.0716 161.056 63.0534 160.801 63.0352C160.527 63.0169 160.245 62.9896 159.953 62.9531C159.68 62.9167 159.424 62.8711 159.188 62.8164C158.951 62.7435 158.759 62.6523 158.613 62.543C158.467 62.4154 158.395 62.2422 158.395 62.0234C158.395 61.987 158.404 61.9505 158.422 61.9141C158.44 61.8776 158.449 61.8411 158.449 61.8047L158.586 61.4219C158.622 61.349 158.704 61.2578 158.832 61.1484C158.96 61.0208 159.051 60.9388 159.105 60.9023H163.07C163.089 60.9023 163.161 60.8932 163.289 60.875C163.417 60.8568 163.544 60.8385 163.672 60.8203C163.818 60.7839 163.945 60.7565 164.055 60.7383C164.182 60.7201 164.264 60.7109 164.301 60.7109H164.547C164.583 60.7109 164.693 60.7474 164.875 60.8203C165.076 60.875 165.23 60.9023 165.34 60.9023H167.008L167.801 60.9844C168.092 61.0208 168.357 61.0573 168.594 61.0938C168.849 61.112 169.013 61.1211 169.086 61.1211C169.25 61.1576 169.551 61.1758 169.988 61.1758C170.426 61.1758 170.882 61.1758 171.355 61.1758C171.848 61.1758 172.303 61.1758 172.723 61.1758C173.16 61.1758 173.461 61.1576 173.625 61.1211C173.771 61.1393 173.935 61.194 174.117 61.2852C174.299 61.3581 174.464 61.4583 174.609 61.5859C174.773 61.6953 174.91 61.832 175.02 61.9961C175.129 62.1602 175.184 62.3333 175.184 62.5156L174.91 62.8438C174.837 62.862 174.719 62.9167 174.555 63.0078C174.409 63.0807 174.318 63.1354 174.281 63.1719C174.172 63.2083 173.98 63.2357 173.707 63.2539C173.434 63.2539 173.151 63.2721 172.859 63.3086C172.622 63.3451 172.395 63.3724 172.176 63.3906C171.975 63.3906 171.829 63.3906 171.738 63.3906C171.264 63.4453 170.882 63.5273 170.59 63.6367C170.316 63.7461 170.134 64.0469 170.043 64.5391C169.861 65.4141 169.751 66.2982 169.715 67.1914C169.697 68.0846 169.688 68.9688 169.688 69.8438C169.688 70.1719 169.688 70.5182 169.688 70.8828C169.688 71.2474 169.678 71.612 169.66 71.9766C169.624 72.0495 169.587 72.2318 169.551 72.5234C169.533 72.7969 169.514 73.0977 169.496 73.4258C169.478 73.7539 169.46 74.0638 169.441 74.3555C169.423 74.6471 169.414 74.8294 169.414 74.9023C169.414 74.9935 169.414 75.1211 169.414 75.2852C169.432 75.431 169.46 75.5859 169.496 75.75C169.551 75.8958 169.624 76.0326 169.715 76.1602C169.806 76.2695 169.924 76.3242 170.07 76.3242C170.216 76.3242 170.353 76.306 170.48 76.2695C170.626 76.2148 170.772 76.1693 170.918 76.1328C171.1 76.0964 171.264 76.0599 171.41 76.0234C171.574 75.9688 171.757 75.9414 171.957 75.9414C172.249 75.9414 172.413 76.0143 172.449 76.1602C172.504 76.306 172.531 76.4883 172.531 76.707C172.531 76.9258 172.458 77.1354 172.312 77.3359C172.185 77.5365 172.021 77.7279 171.82 77.9102C171.62 78.0924 171.401 78.2474 171.164 78.375C170.945 78.5026 170.745 78.6029 170.562 78.6758C170.526 78.6758 170.48 78.6849 170.426 78.7031C170.371 78.7214 170.271 78.7487 170.125 78.7852C169.997 78.8034 169.879 78.8307 169.77 78.8672C169.66 78.9036 169.587 78.9219 169.551 78.9219C169.387 78.9948 169.204 79.0677 169.004 79.1406C168.822 79.1953 168.63 79.2591 168.43 79.332C168.266 79.3867 168.102 79.4596 167.938 79.5508C167.773 79.6237 167.618 79.6784 167.473 79.7148C167.4 79.7148 167.263 79.7422 167.062 79.7969C166.862 79.8333 166.743 79.8698 166.707 79.9062C165.139 80.2161 163.535 80.4987 161.895 80.7539C160.272 81.0091 158.604 81.1367 156.891 81.1367C156.836 81.1185 156.781 81.0911 156.727 81.0547C156.69 81.0182 156.645 81 156.59 81C156.553 80.9818 156.526 80.9544 156.508 80.918C156.435 80.918 156.316 80.9089 156.152 80.8906C156.007 80.8724 155.852 80.8633 155.688 80.8633C155.505 80.8268 155.323 80.7995 155.141 80.7812C154.977 80.763 154.876 80.7539 154.84 80.7539C154.639 80.7357 154.357 80.6992 153.992 80.6445C153.646 80.5716 153.281 80.4896 152.898 80.3984C152.497 80.3438 152.133 80.2891 151.805 80.2344C151.477 80.1797 151.294 80.1341 151.258 80.0977C150.893 80.0247 150.51 79.8789 150.109 79.6602C149.727 79.4414 149.353 79.2227 148.988 79.0039C148.824 78.9128 148.651 78.8216 148.469 78.7305C148.286 78.6393 148.122 78.5299 147.977 78.4023C147.503 78.2383 147.083 78.056 146.719 77.8555C146.354 77.6549 145.944 77.3451 145.488 76.9258C145.379 76.8529 145.224 76.7161 145.023 76.5156C144.823 76.3151 144.604 76.0964 144.367 75.8594C144.13 75.6224 143.893 75.3854 143.656 75.1484C143.419 74.8932 143.21 74.6654 143.027 74.4648L142.59 74.082C142.645 74.082 142.59 74 142.426 73.8359C142.262 73.6719 142.143 73.5078 142.07 73.3438C142.034 73.2526 142.007 73.1797 141.988 73.125C141.988 73.0521 141.97 72.9974 141.934 72.9609C141.934 72.9245 141.888 72.806 141.797 72.6055C141.706 72.4049 141.642 72.2865 141.605 72.25C141.569 72.2135 141.505 72.1589 141.414 72.0859C141.323 71.9948 141.232 71.8945 141.141 71.7852C141.013 71.6393 140.913 71.5117 140.84 71.4023C140.785 71.293 140.74 71.2109 140.703 71.1562C139.992 69.7161 139.473 68.2487 139.145 66.7539C138.835 65.2591 138.68 63.7005 138.68 62.0781V60.1914ZM180.598 44.1406C180.598 43.7396 180.671 43.3568 180.816 42.9922C180.98 42.6276 181.199 42.3086 181.473 42.0352C181.746 41.7617 182.065 41.543 182.43 41.3789C182.812 41.2148 183.214 41.1328 183.633 41.1328C183.906 41.1328 184.171 41.1966 184.426 41.3242C184.681 41.4518 184.918 41.6159 185.137 41.8164C185.374 42.0169 185.583 42.2357 185.766 42.4727C185.966 42.6914 186.139 42.8919 186.285 43.0742C186.413 43.1654 186.486 43.3021 186.504 43.4844C186.522 43.6667 186.531 43.8581 186.531 44.0586C186.531 44.6055 186.422 45.0703 186.203 45.4531C185.984 45.8177 185.693 46.1276 185.328 46.3828C184.982 46.6198 184.581 46.8021 184.125 46.9297C183.669 47.0573 183.204 47.1393 182.73 47.1758C182.092 46.8477 181.573 46.4466 181.172 45.9727C180.789 45.4987 180.598 44.888 180.598 44.1406ZM178.574 80.0156C178.574 79.5781 178.693 79.2956 178.93 79.168C179.167 79.0404 179.458 78.9583 179.805 78.9219C180.151 78.8854 180.516 78.8581 180.898 78.8398C181.299 78.8034 181.646 78.6576 181.938 78.4023C181.938 78.293 181.947 78.0833 181.965 77.7734C181.983 77.4635 181.992 77.1354 181.992 76.7891C182.01 76.4245 182.029 76.0872 182.047 75.7773C182.065 75.4674 182.074 75.2487 182.074 75.1211V71.8125C182.074 71.7214 182.074 71.5208 182.074 71.2109C182.092 70.901 182.111 70.5456 182.129 70.1445C182.165 69.7435 182.193 69.3151 182.211 68.8594C182.229 68.4036 182.247 67.9753 182.266 67.5742C182.302 67.1732 182.32 66.8268 182.32 66.5352C182.339 66.2435 182.348 66.0521 182.348 65.9609V62.543C182.348 62.543 182.357 62.5065 182.375 62.4336C182.393 62.3424 182.411 62.2604 182.43 62.1875C182.466 62.0964 182.493 62.0143 182.512 61.9414C182.53 61.8503 182.539 61.8047 182.539 61.8047L182.594 61.6953C182.594 61.6589 182.585 61.6315 182.566 61.6133C182.566 61.5951 182.566 61.5768 182.566 61.5586C182.548 61.5404 182.539 61.5221 182.539 61.5039C182.539 61.5039 182.512 61.4766 182.457 61.4219C182.402 61.349 182.339 61.276 182.266 61.2031C182.193 61.112 182.12 61.0299 182.047 60.957C181.992 60.8659 181.956 60.8021 181.938 60.7656C181.755 60.5104 181.473 60.3281 181.09 60.2188C180.725 60.0911 180.352 59.9727 179.969 59.8633C179.604 59.7539 179.276 59.6263 178.984 59.4805C178.711 59.3164 178.574 59.0794 178.574 58.7695C178.574 58.569 178.674 58.4049 178.875 58.2773C179.094 58.1315 179.276 58.0404 179.422 58.0039C179.477 57.9857 179.613 57.9583 179.832 57.9219C180.051 57.8854 180.288 57.849 180.543 57.8125C180.816 57.776 181.062 57.7396 181.281 57.7031C181.5 57.6484 181.637 57.612 181.691 57.5938C181.71 57.5755 181.773 57.5482 181.883 57.5117C181.992 57.4753 182.102 57.4388 182.211 57.4023C182.339 57.3477 182.448 57.3021 182.539 57.2656C182.648 57.2292 182.712 57.2109 182.73 57.2109C182.895 57.1562 183.168 57.0924 183.551 57.0195C183.934 56.9466 184.234 56.8555 184.453 56.7461C184.635 56.6549 184.79 56.5638 184.918 56.4727C185.064 56.3633 185.201 56.2721 185.328 56.1992C185.474 56.1081 185.62 56.0443 185.766 56.0078C185.93 55.9531 186.121 55.9258 186.34 55.9258C186.668 55.9258 186.914 56.0807 187.078 56.3906C187.242 56.7005 187.324 57.0195 187.324 57.3477C187.324 57.8763 187.279 58.4141 187.188 58.9609C187.115 59.4896 187.078 60.0273 187.078 60.5742C187.078 61.0299 187.087 61.431 187.105 61.7773C187.124 62.1055 187.197 62.5339 187.324 63.0625V74.2461C187.342 74.3008 187.361 74.3737 187.379 74.4648C187.415 74.556 187.434 74.6562 187.434 74.7656C187.452 74.875 187.47 74.9844 187.488 75.0938C187.507 75.1849 187.534 75.2487 187.57 75.2852V75.4219V75.5586C187.57 75.5951 187.561 75.6589 187.543 75.75C187.525 75.8411 187.507 75.9505 187.488 76.0781C187.47 76.1875 187.443 76.2969 187.406 76.4062C187.37 76.4974 187.342 76.5612 187.324 76.5977V76.8438C187.324 76.8984 187.342 77.026 187.379 77.2266C187.415 77.4271 187.461 77.6458 187.516 77.8828C187.589 78.1198 187.661 78.3385 187.734 78.5391C187.807 78.7214 187.88 78.8307 187.953 78.8672C187.971 78.9036 188.017 78.9219 188.09 78.9219C188.163 78.9219 188.227 78.9219 188.281 78.9219C188.391 78.9219 188.491 78.9128 188.582 78.8945C188.691 78.8763 188.764 78.8672 188.801 78.8672C188.819 78.9036 188.91 78.9492 189.074 79.0039C189.257 79.0404 189.366 79.0586 189.402 79.0586C189.457 79.0951 189.566 79.1224 189.73 79.1406C189.895 79.1589 190.059 79.1771 190.223 79.1953C190.405 79.1953 190.578 79.2135 190.742 79.25C190.906 79.2682 191.016 79.2865 191.07 79.3047C191.271 79.3411 191.398 79.4688 191.453 79.6875C191.508 79.9062 191.535 80.0885 191.535 80.2344C191.535 80.526 191.417 80.7448 191.18 80.8906C190.943 81.0182 190.697 81.1003 190.441 81.1367H188.227H185.848C185.811 81.1367 185.72 81.1276 185.574 81.1094C185.447 81.0911 185.301 81.0638 185.137 81.0273C184.991 81.0091 184.845 80.9909 184.699 80.9727C184.572 80.9362 184.49 80.918 184.453 80.918H184.207C183.715 80.918 183.195 80.9544 182.648 81.0273C182.12 81.1003 181.582 81.1367 181.035 81.1367H179.613C179.577 81.1003 179.449 81.0365 179.23 80.9453C179.03 80.8542 178.893 80.7904 178.82 80.7539C178.729 80.681 178.665 80.6081 178.629 80.5352C178.592 80.444 178.574 80.362 178.574 80.2891V80.0156ZM191.945 57.2109C191.745 57.0833 191.599 56.901 191.508 56.6641C191.398 56.4089 191.344 56.1628 191.344 55.9258C191.344 55.7617 191.444 55.5794 191.645 55.3789C191.845 55.1784 192.027 55.0781 192.191 55.0781H197.633H198.207L202.828 54.8867C203.193 54.8867 203.493 54.9688 203.73 55.1328C203.986 55.2969 204.113 55.5612 204.113 55.9258C204.113 56.3086 204.031 56.5911 203.867 56.7734C203.703 56.9557 203.493 57.0924 203.238 57.1836C202.983 57.2565 202.71 57.3021 202.418 57.3203C202.145 57.3385 201.88 57.375 201.625 57.4297C201.37 57.4844 201.16 57.5755 200.996 57.7031C200.832 57.8307 200.75 58.0404 200.75 58.332C200.75 58.7878 200.814 59.207 200.941 59.5898C201.087 59.9544 201.242 60.3281 201.406 60.7109C201.661 61.3672 201.871 62.0326 202.035 62.707C202.217 63.3815 202.436 64.056 202.691 64.7305C202.855 65.2044 203.047 65.6328 203.266 66.0156C203.503 66.3984 203.703 66.8086 203.867 67.2461L203.977 67.5742C204.013 67.6654 204.04 67.7565 204.059 67.8477C204.095 67.9388 204.113 68.0026 204.113 68.0391C204.113 68.0938 204.122 68.1758 204.141 68.2852C204.159 68.3763 204.177 68.4766 204.195 68.5859C204.232 68.6953 204.259 68.7956 204.277 68.8867C204.296 68.9779 204.305 69.0417 204.305 69.0781L206.191 72.8516C206.264 72.9427 206.383 72.9974 206.547 73.0156C206.711 73.0339 206.829 73.043 206.902 73.043C207.085 73.043 207.23 72.9792 207.34 72.8516C207.449 72.7057 207.531 72.5417 207.586 72.3594C207.659 72.1771 207.714 71.9948 207.75 71.8125C207.786 71.6302 207.823 71.4935 207.859 71.4023C207.859 71.3477 207.932 71.2839 208.078 71.2109C208.242 71.1198 208.324 71.056 208.324 71.0195C208.616 70.3633 208.853 69.6432 209.035 68.8594C209.217 68.0573 209.391 67.3099 209.555 66.6172C209.719 65.8698 209.938 65.1589 210.211 64.4844C210.503 63.8099 210.712 63.099 210.84 62.3516C210.84 62.3151 210.849 62.224 210.867 62.0781C210.885 61.9141 210.904 61.7409 210.922 61.5586C210.958 61.3763 210.986 61.2031 211.004 61.0391C211.022 60.875 211.031 60.7656 211.031 60.7109C211.049 60.6562 211.077 60.5195 211.113 60.3008C211.168 60.0638 211.214 59.8177 211.25 59.5625C211.305 59.3073 211.35 59.0703 211.387 58.8516C211.423 58.6328 211.441 58.4961 211.441 58.4414V58.3047V58.1953C211.387 58.1406 211.314 58.0586 211.223 57.9492C211.132 57.8398 211.031 57.7396 210.922 57.6484C210.812 57.5391 210.694 57.4479 210.566 57.375C210.439 57.2839 210.32 57.2292 210.211 57.2109C209.956 57.1562 209.728 57.1198 209.527 57.1016C209.327 57.0651 209.126 57.0286 208.926 56.9922C208.725 56.9557 208.525 56.9102 208.324 56.8555C208.124 56.7826 207.905 56.6823 207.668 56.5547C207.577 56.4635 207.522 56.3633 207.504 56.2539C207.486 56.1263 207.477 56.0169 207.477 55.9258C207.477 55.7253 207.531 55.5247 207.641 55.3242C207.768 55.1237 207.932 54.9779 208.133 54.8867H209.555C210.411 54.8867 211.232 54.9232 212.016 54.9961C212.818 55.0508 213.638 55.0781 214.477 55.0781C215.06 55.0781 215.643 55.0508 216.227 54.9961C216.828 54.9232 217.439 54.8867 218.059 54.8867C218.223 54.8867 218.414 54.8958 218.633 54.9141C218.852 54.9141 219.052 54.9414 219.234 54.9961C219.435 55.0508 219.599 55.1328 219.727 55.2422C219.854 55.3516 219.918 55.5156 219.918 55.7344C219.918 55.7891 219.909 55.8711 219.891 55.9805C219.891 56.0716 219.854 56.1172 219.781 56.1172C219.617 56.4635 219.38 56.737 219.07 56.9375C218.779 57.1198 218.46 57.2839 218.113 57.4297C217.785 57.5755 217.457 57.7214 217.129 57.8672C216.801 58.013 216.518 58.2044 216.281 58.4414C216.19 58.5326 216.044 58.6966 215.844 58.9336C215.643 59.1706 215.434 59.4167 215.215 59.6719C214.996 59.9271 214.786 60.1732 214.586 60.4102C214.404 60.6471 214.285 60.8203 214.23 60.9297C213.993 61.2396 213.793 61.5677 213.629 61.9141C213.483 62.2604 213.346 62.6159 213.219 62.9805C213.109 63.3451 213 63.7096 212.891 64.0742C212.781 64.4388 212.663 64.7852 212.535 65.1133C212.499 65.168 212.435 65.2773 212.344 65.4414C212.253 65.6055 212.152 65.7786 212.043 65.9609C211.952 66.1432 211.861 66.3164 211.77 66.4805C211.697 66.6445 211.651 66.7539 211.633 66.8086C211.578 66.918 211.469 67.2096 211.305 67.6836C211.159 68.1393 210.995 68.6406 210.812 69.1875C210.63 69.7344 210.457 70.2448 210.293 70.7188C210.147 71.1927 210.056 71.4935 210.02 71.6211C209.965 71.6758 209.865 71.8307 209.719 72.0859C209.591 72.3411 209.454 72.6146 209.309 72.9062C209.163 73.1797 209.026 73.444 208.898 73.6992C208.771 73.9362 208.689 74.082 208.652 74.1367C208.634 74.1914 208.579 74.3464 208.488 74.6016C208.415 74.8568 208.324 75.1393 208.215 75.4492C208.105 75.7591 207.996 76.069 207.887 76.3789C207.796 76.6706 207.723 76.8984 207.668 77.0625C207.668 77.099 207.65 77.1901 207.613 77.3359C207.577 77.4818 207.531 77.6367 207.477 77.8008C207.44 77.9648 207.395 78.1198 207.34 78.2656C207.285 78.4115 207.249 78.5026 207.23 78.5391C207.23 78.5938 207.203 78.6393 207.148 78.6758C207.112 78.694 207.094 78.7305 207.094 78.7852C206.784 79.2044 206.556 79.6693 206.41 80.1797C206.264 80.6901 206.055 81.1823 205.781 81.6562C205.635 81.8203 205.38 81.9023 205.016 81.9023C204.979 81.9023 204.888 81.8841 204.742 81.8477C204.669 81.8294 204.605 81.8021 204.551 81.7656C204.496 81.7656 204.414 81.7018 204.305 81.5742C204.214 81.4466 204.15 81.3372 204.113 81.2461C203.876 80.7357 203.694 80.2161 203.566 79.6875C203.457 79.1406 203.311 78.612 203.129 78.1016C203.092 78.0469 203.02 77.9102 202.91 77.6914C202.819 77.4544 202.71 77.2083 202.582 76.9531C202.454 76.6979 202.336 76.4609 202.227 76.2422C202.135 76.0234 202.09 75.8867 202.09 75.832C202.035 75.7409 201.962 75.5951 201.871 75.3945C201.78 75.194 201.689 74.9844 201.598 74.7656C201.507 74.5286 201.424 74.319 201.352 74.1367C201.279 73.9362 201.224 73.8086 201.188 73.7539C201.169 73.6992 201.133 73.5807 201.078 73.3984C201.023 73.1979 200.96 72.9883 200.887 72.7695C200.814 72.5508 200.741 72.3503 200.668 72.168C200.595 71.9674 200.54 71.849 200.504 71.8125C200.504 71.7943 200.467 71.7305 200.395 71.6211C200.34 71.4935 200.276 71.3568 200.203 71.2109C200.13 71.0651 200.057 70.9284 199.984 70.8008C199.911 70.6549 199.866 70.5547 199.848 70.5C199.848 70.4818 199.839 70.418 199.82 70.3086C199.802 70.181 199.784 70.0534 199.766 69.9258C199.766 69.7799 199.757 69.6523 199.738 69.543C199.72 69.4154 199.711 69.3424 199.711 69.3242C199.711 69.2878 199.674 69.2513 199.602 69.2148C199.547 69.1602 199.52 69.1146 199.52 69.0781C199.283 68.6224 199.055 68.0846 198.836 67.4648C198.617 66.8268 198.408 66.2435 198.207 65.7148C198.207 65.6966 198.198 65.6419 198.18 65.5508C198.18 65.4596 198.171 65.3594 198.152 65.25C198.152 65.1406 198.143 65.0404 198.125 64.9492C198.107 64.8398 198.089 64.7669 198.07 64.7305C198.034 64.6576 197.943 64.4753 197.797 64.1836C197.651 63.8919 197.496 63.582 197.332 63.2539C197.168 62.9076 197.013 62.5977 196.867 62.3242C196.721 62.0326 196.63 61.8411 196.594 61.75C196.43 61.4766 196.275 61.1302 196.129 60.7109C196.001 60.2734 195.846 59.8451 195.664 59.4258C195.482 58.9883 195.263 58.5964 195.008 58.25C194.753 57.8854 194.443 57.6484 194.078 57.5391C193.987 57.5208 193.841 57.5026 193.641 57.4844C193.44 57.4479 193.23 57.4115 193.012 57.375C192.793 57.3385 192.574 57.3112 192.355 57.293C192.155 57.2565 192.018 57.2292 191.945 57.2109ZM223.992 62.9258C223.992 63.0352 224.038 63.1445 224.129 63.2539C224.238 63.3633 224.357 63.4727 224.484 63.582C224.63 63.6732 224.767 63.7552 224.895 63.8281C225.04 63.8828 225.159 63.9284 225.25 63.9648H228.094H230.883C231.029 63.9466 231.275 63.9193 231.621 63.8828C231.986 63.8464 232.359 63.8099 232.742 63.7734C233.143 63.7188 233.517 63.6641 233.863 63.6094C234.228 63.5547 234.483 63.5 234.629 63.4453C234.665 63.4089 234.711 63.3268 234.766 63.1992C234.839 63.0534 234.875 62.9622 234.875 62.9258V62.6797V62.4609C234.875 62.4062 234.866 62.306 234.848 62.1602C234.829 61.9961 234.802 61.832 234.766 61.668C234.747 61.4857 234.72 61.3125 234.684 61.1484C234.665 60.9844 234.647 60.8659 234.629 60.793C234.447 60.6654 234.292 60.5104 234.164 60.3281C234.036 60.1458 233.9 59.9727 233.754 59.8086C233.626 59.6263 233.48 59.4622 233.316 59.3164C233.171 59.1706 232.988 59.0521 232.77 58.9609C232.642 58.9062 232.469 58.8333 232.25 58.7422C232.049 58.6328 231.849 58.5326 231.648 58.4414C231.448 58.3503 231.275 58.2682 231.129 58.1953C230.983 58.1224 230.901 58.0768 230.883 58.0586H230.691H230.473C230.345 58.0768 230.181 58.1042 229.98 58.1406C229.78 58.1771 229.579 58.2135 229.379 58.25C229.178 58.2682 229.005 58.2865 228.859 58.3047C228.714 58.3229 228.632 58.332 228.613 58.332C228.559 58.332 228.467 58.3685 228.34 58.4414C228.23 58.4961 228.103 58.5599 227.957 58.6328C227.829 58.7057 227.702 58.7786 227.574 58.8516C227.465 58.9062 227.392 58.9427 227.355 58.9609C227.046 59.0703 226.745 59.1523 226.453 59.207C226.18 59.2617 225.943 59.444 225.742 59.7539C225.706 59.8086 225.624 59.9453 225.496 60.1641C225.368 60.3828 225.286 60.5195 225.25 60.5742C225.141 60.7747 225.013 60.9661 224.867 61.1484C224.721 61.3125 224.585 61.4857 224.457 61.668C224.329 61.832 224.22 62.0234 224.129 62.2422C224.038 62.4427 223.992 62.6706 223.992 62.9258ZM219.863 69.5977V69.0781C219.882 68.987 219.9 68.8138 219.918 68.5586C219.954 68.3034 219.973 68.0391 219.973 67.7656C219.991 67.474 220.009 67.2005 220.027 66.9453C220.046 66.6901 220.073 66.5169 220.109 66.4258C220.128 66.0977 220.173 65.7331 220.246 65.332C220.337 64.9128 220.438 64.4935 220.547 64.0742C220.674 63.6549 220.82 63.2539 220.984 62.8711C221.148 62.4701 221.331 62.1237 221.531 61.832C221.549 61.8138 221.586 61.7773 221.641 61.7227C221.714 61.6497 221.786 61.5859 221.859 61.5312C221.932 61.4583 221.996 61.3945 222.051 61.3398C222.124 61.2852 222.169 61.2487 222.188 61.2305C222.206 61.2122 222.224 61.1576 222.242 61.0664C222.279 60.9753 222.315 60.8841 222.352 60.793C222.388 60.7018 222.415 60.6198 222.434 60.5469C222.47 60.4557 222.497 60.401 222.516 60.3828C222.826 59.8542 223.208 59.4167 223.664 59.0703C224.12 58.724 224.585 58.3867 225.059 58.0586C225.387 57.8581 225.688 57.6758 225.961 57.5117C226.253 57.3294 226.535 57.1745 226.809 57.0469C227.1 56.901 227.401 56.7734 227.711 56.6641C228.039 56.5547 228.404 56.4635 228.805 56.3906C228.841 56.3906 228.987 56.3815 229.242 56.3633C229.516 56.3451 229.826 56.3359 230.172 56.3359C230.518 56.3177 230.874 56.2995 231.238 56.2812C231.603 56.263 231.895 56.2539 232.113 56.2539H232.359H232.605C233.207 56.3997 233.772 56.5729 234.301 56.7734C234.848 56.9557 235.349 57.1927 235.805 57.4844C236.279 57.776 236.707 58.1315 237.09 58.5508C237.491 58.9518 237.855 59.4349 238.184 60C238.202 60.0365 238.229 60.1458 238.266 60.3281C238.302 60.4922 238.339 60.5742 238.375 60.5742C238.484 60.8477 238.612 61.0938 238.758 61.3125C238.922 61.5312 239.068 61.75 239.195 61.9688C239.341 62.1693 239.46 62.388 239.551 62.625C239.642 62.8438 239.688 63.099 239.688 63.3906C239.688 63.737 239.542 64.0742 239.25 64.4023C238.977 64.7122 238.758 64.9583 238.594 65.1406C238.484 65.1771 238.284 65.2227 237.992 65.2773C237.719 65.332 237.409 65.3867 237.062 65.4414C236.734 65.4961 236.397 65.5417 236.051 65.5781C235.723 65.6146 235.449 65.6328 235.23 65.6328C235.158 65.6328 234.993 65.6328 234.738 65.6328C234.501 65.6146 234.21 65.5964 233.863 65.5781C233.535 65.5599 233.18 65.5508 232.797 65.5508C232.414 65.5326 232.049 65.5234 231.703 65.5234C231.339 65.5234 231.02 65.5417 230.746 65.5781C230.491 65.6146 230.318 65.6328 230.227 65.6328C230.208 65.6328 230.126 65.6419 229.98 65.6602C229.853 65.6784 229.707 65.7057 229.543 65.7422C229.379 65.7604 229.224 65.7786 229.078 65.7969C228.932 65.8151 228.841 65.8242 228.805 65.8242C228.604 65.8424 228.312 65.8516 227.93 65.8516C227.547 65.8516 227.118 65.8516 226.645 65.8516C226.171 65.8516 225.724 65.8516 225.305 65.8516C224.904 65.8516 224.621 65.8424 224.457 65.8242C224.311 65.8424 224.211 65.8971 224.156 65.9883C224.102 66.0612 224.056 66.1432 224.02 66.2344C224.02 66.2344 224.01 66.2799 223.992 66.3711C223.992 66.444 223.992 66.5352 223.992 66.6445C223.992 66.7539 223.992 66.8724 223.992 67C223.992 67.1094 223.992 67.2005 223.992 67.2734C223.992 67.3646 223.992 67.5013 223.992 67.6836C223.992 67.8659 223.992 68.0482 223.992 68.2305C223.992 68.3945 223.992 68.5495 223.992 68.6953C224.01 68.8411 224.02 68.9232 224.02 68.9414C224.038 69.3242 224.184 69.8438 224.457 70.5C224.73 71.138 225.049 71.7852 225.414 72.4414C225.797 73.0977 226.198 73.7083 226.617 74.2734C227.055 74.8203 227.456 75.1849 227.82 75.3672C227.893 75.4219 228.066 75.5221 228.34 75.668C228.613 75.8138 228.905 75.9688 229.215 76.1328C229.525 76.2786 229.816 76.4245 230.09 76.5703C230.382 76.6979 230.582 76.7891 230.691 76.8438C230.783 76.8438 230.846 76.8346 230.883 76.8164C230.938 76.7982 231.001 76.7891 231.074 76.7891C231.439 76.7891 231.776 76.8346 232.086 76.9258C232.414 77.0169 232.76 77.0625 233.125 77.0625H233.535C233.626 77.0625 233.727 77.0534 233.836 77.0352L236.57 75.6133C236.643 75.3945 236.734 75.1758 236.844 74.957C236.953 74.7201 237.081 74.5104 237.227 74.3281C237.391 74.1458 237.573 74 237.773 73.8906C237.992 73.7812 238.257 73.7266 238.566 73.7266H238.594C238.63 73.763 238.676 73.8268 238.73 73.918C238.803 74.0091 238.84 74.0638 238.84 74.082C238.84 74.1185 238.803 74.2188 238.73 74.3828C238.676 74.5469 238.63 74.6745 238.594 74.7656C238.393 75.2943 238.184 75.7956 237.965 76.2695C237.746 76.7435 237.473 77.2174 237.145 77.6914C237.108 77.7279 237.044 77.7917 236.953 77.8828C236.862 77.974 236.762 78.0742 236.652 78.1836C236.543 78.293 236.434 78.4023 236.324 78.5117C236.233 78.6029 236.16 78.6758 236.105 78.7305C236.069 78.7487 235.996 78.7852 235.887 78.8398C235.796 78.8945 235.686 78.9583 235.559 79.0312C235.449 79.0859 235.349 79.1497 235.258 79.2227C235.167 79.2773 235.112 79.3138 235.094 79.332C234.674 79.5872 234.301 79.8151 233.973 80.0156C233.663 80.2161 233.344 80.3893 233.016 80.5352C232.706 80.681 232.368 80.7995 232.004 80.8906C231.658 80.9635 231.257 81 230.801 81C229.598 81 228.449 80.8633 227.355 80.5898C226.262 80.2982 225.268 79.8698 224.375 79.3047C223.482 78.7214 222.716 77.9922 222.078 77.1172C221.458 76.224 221.021 75.1667 220.766 73.9453C220.693 73.7448 220.611 73.444 220.52 73.043C220.428 72.6419 220.337 72.2318 220.246 71.8125C220.155 71.3932 220.073 71.0104 220 70.6641C219.927 70.2995 219.882 70.0716 219.863 69.9805V69.5977ZM265.609 65.3047C266.302 65.2682 266.931 65.2956 267.496 65.3867C268.079 65.4779 268.681 65.5234 269.301 65.5234H269.82C269.893 65.5234 270.057 65.5143 270.312 65.4961C270.568 65.4779 270.832 65.4596 271.105 65.4414C271.397 65.4049 271.671 65.3776 271.926 65.3594C272.181 65.3229 272.336 65.3047 272.391 65.3047C272.464 65.3047 272.655 65.3229 272.965 65.3594C273.275 65.3776 273.557 65.3867 273.812 65.3867C273.977 65.3867 274.113 65.3776 274.223 65.3594C274.35 65.3411 274.432 65.3229 274.469 65.3047C274.542 65.3047 274.642 65.2682 274.77 65.1953C274.915 65.1042 275.034 65.013 275.125 64.9219V64.1562C275.125 63.2448 274.97 62.3516 274.66 61.4766C274.35 60.5833 274.068 59.7083 273.812 58.8516C273.812 58.8151 273.803 58.7513 273.785 58.6602C273.767 58.5508 273.74 58.4414 273.703 58.332C273.685 58.2044 273.667 58.0951 273.648 58.0039C273.63 57.9128 273.621 57.849 273.621 57.8125C273.603 57.7943 273.566 57.7305 273.512 57.6211C273.457 57.4935 273.393 57.3568 273.32 57.2109C273.247 57.0469 273.174 56.901 273.102 56.7734C273.047 56.6458 273.001 56.5547 272.965 56.5C272.874 56.2448 272.792 55.944 272.719 55.5977C272.646 55.2331 272.564 54.8685 272.473 54.5039C272.382 54.1393 272.272 53.7839 272.145 53.4375C272.035 53.0911 271.898 52.7904 271.734 52.5352C271.716 52.5169 271.661 52.4622 271.57 52.3711C271.479 52.2617 271.379 52.1523 271.27 52.043C271.16 51.9154 271.051 51.7969 270.941 51.6875C270.832 51.5781 270.75 51.5052 270.695 51.4688C270.641 51.4505 270.559 51.4232 270.449 51.3867C270.34 51.332 270.249 51.3047 270.176 51.3047C270.139 51.3229 270.121 51.332 270.121 51.332L269.957 51.4961C269.866 51.5872 269.82 51.6602 269.82 51.7148C269.674 52.1523 269.529 52.6263 269.383 53.1367C269.237 53.6471 269.073 54.1758 268.891 54.7227C268.727 55.2513 268.544 55.7799 268.344 56.3086C268.161 56.8372 267.961 57.3385 267.742 57.8125C267.724 57.849 267.678 57.931 267.605 58.0586C267.551 58.168 267.487 58.2956 267.414 58.4414C267.359 58.569 267.305 58.6966 267.25 58.8242C267.214 58.9336 267.195 59.0065 267.195 59.043C267.141 59.0977 267.068 59.2708 266.977 59.5625C266.885 59.8359 266.785 60.1549 266.676 60.5195C266.566 60.8659 266.457 61.2214 266.348 61.5859C266.257 61.9505 266.174 62.224 266.102 62.4062C265.974 62.7891 265.828 63.1901 265.664 63.6094C265.518 64.0104 265.445 64.4115 265.445 64.8125C265.445 64.9036 265.445 65.0039 265.445 65.1133C265.464 65.2044 265.518 65.2682 265.609 65.3047ZM259.812 81C259.703 81 259.503 81 259.211 81C258.919 81.0182 258.609 81.0273 258.281 81.0273C257.953 81.0273 257.634 81.0273 257.324 81.0273C257.014 81.0456 256.796 81.0547 256.668 81.0547C256.632 81.0547 256.549 81.0638 256.422 81.082C256.312 81.1003 256.185 81.1185 256.039 81.1367C255.911 81.1549 255.784 81.1641 255.656 81.1641C255.547 81.1823 255.474 81.1914 255.438 81.1914C255.292 81.1914 255.064 81.1823 254.754 81.1641C254.444 81.1641 254.107 81.1549 253.742 81.1367C253.396 81.1185 253.068 81.1003 252.758 81.082C252.43 81.0638 252.193 81.0547 252.047 81.0547C251.792 80.9818 251.628 80.8906 251.555 80.7812C251.464 80.6536 251.418 80.444 251.418 80.1523C251.418 79.8971 251.491 79.6966 251.637 79.5508C251.764 79.4049 251.938 79.2956 252.156 79.2227C252.375 79.1497 252.63 79.1042 252.922 79.0859C253.195 79.0677 253.469 79.0586 253.742 79.0586C254.034 79.0586 254.298 79.0586 254.535 79.0586C254.79 79.0404 255.018 79.013 255.219 78.9766C255.255 78.9401 255.328 78.8672 255.438 78.7578C255.547 78.6484 255.602 78.5755 255.602 78.5391C255.638 78.4844 255.711 78.4115 255.82 78.3203C255.948 78.2109 256.085 78.1016 256.23 77.9922C256.376 77.8646 256.504 77.7552 256.613 77.6641C256.741 77.5547 256.823 77.4818 256.859 77.4453C257.461 76.9167 257.889 76.3424 258.145 75.7227C258.418 75.0846 258.691 74.4193 258.965 73.7266C259.548 72.2318 260.195 70.7734 260.906 69.3516C261.635 67.9297 262.31 66.4531 262.93 64.9219C262.948 64.9036 262.975 64.8398 263.012 64.7305C263.048 64.6029 263.085 64.4753 263.121 64.3477C263.176 64.2201 263.221 64.0924 263.258 63.9648C263.312 63.8372 263.34 63.7461 263.34 63.6914C263.358 63.6367 263.385 63.5365 263.422 63.3906C263.458 63.2448 263.504 63.0898 263.559 62.9258C263.613 62.7435 263.659 62.5794 263.695 62.4336C263.75 62.2878 263.796 62.1966 263.832 62.1602C263.832 62.1419 263.896 62.0508 264.023 61.8867C264.151 61.7044 264.215 61.5768 264.215 61.5039C264.251 61.4492 264.306 61.349 264.379 61.2031C264.452 61.0391 264.525 60.875 264.598 60.7109C264.689 60.5286 264.771 60.3646 264.844 60.2188C264.917 60.0547 264.971 59.9453 265.008 59.8906C265.044 59.8542 265.09 59.7448 265.145 59.5625C265.199 59.3802 265.245 59.2708 265.281 59.2344C265.299 59.2161 265.327 59.1706 265.363 59.0977C265.4 59.0247 265.436 58.9427 265.473 58.8516C265.509 58.7422 265.536 58.651 265.555 58.5781C265.591 58.487 265.609 58.4232 265.609 58.3867C265.628 58.332 265.655 58.2044 265.691 58.0039C265.746 57.8034 265.801 57.5938 265.855 57.375C265.91 57.138 265.956 56.9193 265.992 56.7188C266.029 56.5182 266.065 56.3997 266.102 56.3633C266.12 56.2721 266.184 56.1536 266.293 56.0078C266.421 55.862 266.493 55.7708 266.512 55.7344C266.512 55.6979 266.539 55.5885 266.594 55.4062C266.667 55.224 266.703 55.1146 266.703 55.0781C266.721 55.0417 266.776 54.9414 266.867 54.7773C266.958 54.6133 267.049 54.4401 267.141 54.2578C267.232 54.0573 267.314 53.875 267.387 53.7109C267.478 53.5469 267.533 53.4375 267.551 53.3828C267.569 53.3646 267.596 53.3099 267.633 53.2188C267.669 53.1094 267.706 53 267.742 52.8906C267.779 52.763 267.815 52.6536 267.852 52.5625C267.888 52.4531 267.915 52.3802 267.934 52.3438C268.007 52.2891 268.061 52.2161 268.098 52.125C268.152 52.0156 268.198 51.9609 268.234 51.9609C268.253 51.9245 268.316 51.8333 268.426 51.6875C268.553 51.5417 268.681 51.3867 268.809 51.2227C268.954 51.0404 269.082 50.8763 269.191 50.7305C269.319 50.5664 269.392 50.4661 269.41 50.4297C269.428 50.4297 269.447 50.3841 269.465 50.293C269.483 50.2018 269.51 50.1107 269.547 50.0195C269.583 49.9102 269.611 49.7826 269.629 49.6367C269.72 49.3086 269.82 49.0169 269.93 48.7617C270.057 48.4883 270.121 48.1693 270.121 47.8047C270.121 47.6224 270.094 47.4492 270.039 47.2852C269.984 47.1211 269.921 46.9661 269.848 46.8203C269.793 46.6745 269.738 46.5286 269.684 46.3828C269.629 46.2188 269.602 46.0456 269.602 45.8633V45.6172C269.602 45.5625 269.611 45.4987 269.629 45.4258C269.684 45.3529 269.793 45.2982 269.957 45.2617C270.139 45.207 270.34 45.1615 270.559 45.125C270.777 45.0885 270.996 45.0521 271.215 45.0156C271.434 44.9792 271.607 44.9154 271.734 44.8242C272.062 44.569 272.354 44.3411 272.609 44.1406C272.865 43.9401 273.202 43.8125 273.621 43.7578C273.913 43.7214 274.195 43.7943 274.469 43.9766C274.76 44.1589 274.979 44.3594 275.125 44.5781C275.508 45.3984 275.79 46.2461 275.973 47.1211C276.173 47.9779 276.428 48.8164 276.738 49.6367C276.757 49.6367 276.784 49.6823 276.82 49.7734C276.875 49.8464 276.93 49.9284 276.984 50.0195C277.039 50.1107 277.085 50.2018 277.121 50.293C277.158 50.3841 277.176 50.4297 277.176 50.4297C277.176 50.5026 277.194 50.6576 277.23 50.8945C277.285 51.1315 277.34 51.3776 277.395 51.6328C277.449 51.888 277.495 52.1341 277.531 52.3711C277.586 52.5898 277.622 52.7357 277.641 52.8086C277.659 52.918 277.686 53.0729 277.723 53.2734C277.759 53.4557 277.796 53.6471 277.832 53.8477C277.887 54.0482 277.932 54.2305 277.969 54.3945C278.023 54.5586 278.051 54.6589 278.051 54.6953C278.069 54.7865 278.142 55.0052 278.27 55.3516C278.397 55.6797 278.525 56.0443 278.652 56.4453C278.798 56.8464 278.935 57.2201 279.062 57.5664C279.19 57.9128 279.281 58.1224 279.336 58.1953C279.336 58.2135 279.336 58.2591 279.336 58.332C279.354 58.4049 279.363 58.487 279.363 58.5781C279.382 58.6693 279.4 58.7604 279.418 58.8516C279.436 58.9245 279.454 58.9883 279.473 59.043C279.491 59.0794 279.509 59.1523 279.527 59.2617C279.546 59.3529 279.564 59.4622 279.582 59.5898C279.6 59.6992 279.618 59.8086 279.637 59.918C279.655 60.0091 279.664 60.0638 279.664 60.082C279.664 60.1003 279.682 60.1549 279.719 60.2461C279.773 60.319 279.828 60.4102 279.883 60.5195C279.938 60.6107 279.992 60.7018 280.047 60.793C280.102 60.8841 280.138 60.9297 280.156 60.9297C280.156 60.9661 280.174 61.0664 280.211 61.2305C280.247 61.3945 280.284 61.5768 280.32 61.7773C280.375 61.9596 280.421 62.1419 280.457 62.3242C280.493 62.4883 280.512 62.5977 280.512 62.6523C280.53 62.6706 280.557 62.7253 280.594 62.8164C280.63 62.8893 280.667 62.9714 280.703 63.0625C280.758 63.1354 280.803 63.2174 280.84 63.3086C280.876 63.3815 280.895 63.4271 280.895 63.4453C280.913 63.4818 280.94 63.5638 280.977 63.6914C281.013 63.8008 281.049 63.9284 281.086 64.0742C281.122 64.2201 281.15 64.3568 281.168 64.4844C281.186 64.5938 281.195 64.6576 281.195 64.6758C281.432 65.8424 281.76 67.0091 282.18 68.1758C282.599 69.3242 282.964 70.4727 283.273 71.6211C283.273 71.6576 283.283 71.7396 283.301 71.8672C283.319 71.9766 283.337 72.1042 283.355 72.25C283.374 72.3958 283.392 72.5326 283.41 72.6602C283.428 72.7878 283.447 72.8698 283.465 72.9062C283.483 72.9427 283.52 73.0521 283.574 73.2344C283.647 73.4167 283.72 73.6172 283.793 73.8359C283.866 74.0365 283.93 74.237 283.984 74.4375C284.057 74.6198 284.103 74.7292 284.121 74.7656C284.212 75.1302 284.303 75.5404 284.395 75.9961C284.486 76.4336 284.613 76.862 284.777 77.2812C284.941 77.6823 285.16 78.0469 285.434 78.375C285.725 78.7031 286.108 78.931 286.582 79.0586C286.783 79.1133 286.965 79.1497 287.129 79.168C287.293 79.168 287.411 79.168 287.484 79.168C287.503 79.168 287.557 79.1771 287.648 79.1953C287.74 79.1953 287.84 79.2044 287.949 79.2227C288.059 79.2409 288.168 79.2591 288.277 79.2773C288.387 79.2956 288.469 79.3138 288.523 79.332C288.633 79.3867 288.788 79.4414 288.988 79.4961C289.207 79.5508 289.417 79.6237 289.617 79.7148C289.836 79.7878 290.018 79.8971 290.164 80.043C290.328 80.1706 290.41 80.3438 290.41 80.5625C290.41 80.7995 290.319 80.9818 290.137 81.1094C289.973 81.237 289.772 81.3281 289.535 81.3828C289.316 81.4557 289.079 81.4922 288.824 81.4922C288.587 81.5104 288.387 81.5195 288.223 81.5195C287.038 81.5195 285.862 81.4648 284.695 81.3555C283.547 81.2461 282.38 81.1914 281.195 81.1914H277.641C277.185 81.3555 276.811 81.4466 276.52 81.4648C276.228 81.5013 275.872 81.5195 275.453 81.5195C275.326 81.5195 275.134 81.5104 274.879 81.4922C274.642 81.4922 274.396 81.4648 274.141 81.4102C273.904 81.3737 273.694 81.3008 273.512 81.1914C273.329 81.082 273.238 80.9271 273.238 80.7266V80.6719C273.366 80.4167 273.576 80.1888 273.867 79.9883C274.159 79.7695 274.423 79.6146 274.66 79.5234C274.733 79.5234 274.915 79.4961 275.207 79.4414C275.517 79.3867 275.845 79.332 276.191 79.2773C276.556 79.2044 276.893 79.1406 277.203 79.0859C277.513 79.013 277.704 78.9766 277.777 78.9766C277.996 78.9219 278.169 78.8307 278.297 78.7031C278.424 78.5573 278.516 78.4023 278.57 78.2383C278.625 78.0742 278.652 77.901 278.652 77.7188C278.671 77.5365 278.68 77.3542 278.68 77.1719V76.4062C278.661 76.224 278.598 75.9049 278.488 75.4492C278.379 74.9753 278.242 74.4466 278.078 73.8633C277.932 73.2617 277.759 72.6328 277.559 71.9766C277.358 71.3203 277.158 70.7188 276.957 70.1719C276.775 69.6068 276.592 69.1328 276.41 68.75C276.228 68.349 276.073 68.112 275.945 68.0391C275.654 67.875 275.389 67.7747 275.152 67.7383C274.915 67.7018 274.678 67.6836 274.441 67.6836C274.204 67.6654 273.967 67.6471 273.73 67.6289C273.493 67.5924 273.238 67.5104 272.965 67.3828C272.837 67.3828 272.582 67.401 272.199 67.4375C271.835 67.474 271.434 67.5104 270.996 67.5469C270.577 67.5651 270.176 67.5924 269.793 67.6289C269.41 67.6471 269.137 67.6562 268.973 67.6562C268.663 67.6562 268.307 67.6471 267.906 67.6289C267.523 67.6107 267.122 67.6016 266.703 67.6016C266.083 67.6016 265.491 67.6836 264.926 67.8477C264.361 67.9935 263.914 68.3398 263.586 68.8867C263.568 68.9961 263.531 69.1875 263.477 69.4609C263.44 69.7344 263.385 70.026 263.312 70.3359C263.24 70.6458 263.167 70.9466 263.094 71.2383C263.039 71.5117 262.984 71.7031 262.93 71.8125C262.82 72.1953 262.693 72.5781 262.547 72.9609C262.401 73.3255 262.255 73.6901 262.109 74.0547C261.982 74.4193 261.872 74.793 261.781 75.1758C261.69 75.5586 261.645 75.9414 261.645 76.3242V77.2539C261.681 77.4362 261.763 77.6003 261.891 77.7461C262.036 77.8737 262.201 77.9922 262.383 78.1016C262.565 78.1927 262.738 78.2747 262.902 78.3477C263.085 78.4206 263.23 78.4844 263.34 78.5391C263.632 78.6484 263.996 78.7305 264.434 78.7852C264.871 78.8398 265.29 78.9219 265.691 79.0312C266.111 79.1224 266.466 79.2865 266.758 79.5234C267.049 79.7422 267.195 80.0885 267.195 80.5625C267.195 80.8724 267.04 81.082 266.73 81.1914C266.439 81.319 266.147 81.4284 265.855 81.5195C265.035 81.2826 264.26 81.1367 263.531 81.082C262.82 81.0273 262.1 81 261.371 81H259.812ZM317.727 56.2539C317.727 56.4909 317.745 56.7826 317.781 57.1289C317.818 57.4753 317.872 57.8216 317.945 58.168C318.036 58.4961 318.155 58.806 318.301 59.0977C318.447 59.3893 318.62 59.6081 318.82 59.7539H319.859C320.516 59.7539 321.081 59.7174 321.555 59.6445C322.047 59.5716 322.603 59.4076 323.223 59.1523C323.806 58.8789 324.371 58.6055 324.918 58.332C325.483 58.0586 325.993 57.7487 326.449 57.4023C326.923 57.0378 327.324 56.6094 327.652 56.1172C327.98 55.625 328.217 55.0234 328.363 54.3125C328.382 54.2578 328.4 54.1576 328.418 54.0117C328.454 53.8477 328.482 53.6745 328.5 53.4922C328.536 53.3099 328.564 53.1367 328.582 52.9727C328.618 52.7904 328.646 52.6719 328.664 52.6172C328.664 52.5625 328.673 52.444 328.691 52.2617C328.728 52.0794 328.764 51.888 328.801 51.6875C328.855 51.487 328.901 51.2956 328.938 51.1133C328.974 50.931 329.001 50.8216 329.02 50.7852V50.5391V49.5547C329.02 49.263 329.001 48.9714 328.965 48.6797C328.928 48.388 328.828 48.1237 328.664 47.8867C328.573 47.7591 328.454 47.5951 328.309 47.3945C328.181 47.1758 328.044 46.9661 327.898 46.7656C327.771 46.5651 327.652 46.3919 327.543 46.2461C327.434 46.1003 327.361 46.0182 327.324 46C326.905 45.4167 326.404 44.9609 325.82 44.6328C325.237 44.3047 324.635 43.9857 324.016 43.6758C323.979 43.6393 323.879 43.6029 323.715 43.5664C323.551 43.5117 323.432 43.4661 323.359 43.4297C322.812 43.3203 322.311 43.2474 321.855 43.2109C321.418 43.1562 320.889 43.1107 320.27 43.0742H320.188C319.695 43.0742 319.294 43.1654 318.984 43.3477C318.693 43.5117 318.474 43.7396 318.328 44.0312C318.182 44.3047 318.082 44.6328 318.027 45.0156C317.991 45.3802 317.973 45.7539 317.973 46.1367C317.973 46.3555 317.973 46.5742 317.973 46.793C317.991 47.0117 318 47.2214 318 47.4219C318 47.513 317.991 47.6315 317.973 47.7773C317.973 47.9232 317.973 48.0417 317.973 48.1328C317.973 48.1693 317.964 48.2331 317.945 48.3242C317.927 48.4154 317.9 48.5156 317.863 48.625C317.845 48.7161 317.827 48.8073 317.809 48.8984C317.79 48.9896 317.781 49.0443 317.781 49.0625C317.763 49.099 317.745 49.1992 317.727 49.3633C317.727 49.5091 317.727 49.6914 317.727 49.9102C317.727 50.1107 317.727 50.3203 317.727 50.5391C317.727 50.7578 317.727 50.931 317.727 51.0586C317.727 51.1862 317.727 51.3594 317.727 51.5781C317.727 51.7969 317.727 52.0156 317.727 52.2344C317.727 52.4531 317.727 52.6445 317.727 52.8086C317.745 52.9544 317.763 53.0365 317.781 53.0547C317.781 53.0729 317.781 53.1276 317.781 53.2188C317.799 53.2917 317.827 53.3737 317.863 53.4648L317.973 53.8477V53.9844C317.973 54.3672 317.927 54.75 317.836 55.1328C317.763 55.5156 317.727 55.8893 317.727 56.2539ZM317.973 77.2266C317.973 77.2995 318 77.3906 318.055 77.5C318.109 77.6094 318.155 77.6914 318.191 77.7461C318.738 78.4023 319.358 78.8034 320.051 78.9492C320.762 79.0951 321.546 79.168 322.402 79.168C322.949 79.168 323.441 79.1406 323.879 79.0859C324.335 79.013 324.763 78.9036 325.164 78.7578C325.583 78.612 325.993 78.4388 326.395 78.2383C326.814 78.0195 327.27 77.7552 327.762 77.4453C327.78 77.4453 327.835 77.4271 327.926 77.3906C328.017 77.3542 328.117 77.3177 328.227 77.2812C328.336 77.2266 328.427 77.181 328.5 77.1445C328.591 77.1081 328.646 77.0807 328.664 77.0625C328.701 77.0078 328.764 76.9349 328.855 76.8438C328.965 76.7526 329.074 76.6523 329.184 76.543C329.293 76.4336 329.393 76.3333 329.484 76.2422C329.594 76.1328 329.667 76.0599 329.703 76.0234C330.141 75.3672 330.451 74.6198 330.633 73.7812C330.833 72.9245 330.988 72.1315 331.098 71.4023C331.098 71.3477 331.079 71.2383 331.043 71.0742C331.025 70.8919 330.997 70.7096 330.961 70.5273C330.943 70.3268 330.924 70.1536 330.906 70.0078C330.888 69.862 330.879 69.7708 330.879 69.7344V68.6953V68.2305C330.824 67.8841 330.742 67.5378 330.633 67.1914C330.523 66.8268 330.387 66.4805 330.223 66.1523C330.059 65.8242 329.858 65.5234 329.621 65.25C329.384 64.9766 329.111 64.7396 328.801 64.5391C328.637 64.4661 328.445 64.3659 328.227 64.2383C328.008 64.0924 327.789 63.9466 327.57 63.8008C327.352 63.6367 327.142 63.4727 326.941 63.3086C326.741 63.1445 326.586 62.9987 326.477 62.8711C326.148 62.7435 325.775 62.6068 325.355 62.4609C324.936 62.3151 324.499 62.1784 324.043 62.0508C323.587 61.9049 323.132 61.7773 322.676 61.668C322.238 61.5586 321.846 61.4583 321.5 61.3672H321.035C320.397 61.3672 319.887 61.4128 319.504 61.5039C319.121 61.5951 318.82 61.7682 318.602 62.0234C318.401 62.2604 318.255 62.5885 318.164 63.0078C318.073 63.4089 318.009 63.9193 317.973 64.5391C317.954 64.6849 317.936 64.9492 317.918 65.332C317.9 65.7148 317.882 66.1159 317.863 66.5352C317.845 66.9544 317.827 67.3555 317.809 67.7383C317.79 68.1029 317.781 68.349 317.781 68.4766C317.781 68.4766 317.772 68.5404 317.754 68.668C317.754 68.7956 317.754 68.9414 317.754 69.1055C317.754 69.2513 317.745 69.3971 317.727 69.543C317.727 69.6888 317.727 69.7982 317.727 69.8711C317.727 69.9805 317.727 70.1172 317.727 70.2812C317.745 70.4453 317.754 70.6094 317.754 70.7734C317.754 70.9193 317.754 71.056 317.754 71.1836C317.772 71.3112 317.781 71.3841 317.781 71.4023C317.781 71.6211 317.79 72.0039 317.809 72.5508C317.827 73.0977 317.845 73.681 317.863 74.3008C317.882 74.9206 317.9 75.513 317.918 76.0781C317.936 76.625 317.954 77.0078 317.973 77.2266ZM305.613 80.3438V80.043C305.613 79.8242 305.668 79.6146 305.777 79.4141C305.905 79.1953 306.06 79.0039 306.242 78.8398C306.443 78.6758 306.652 78.5482 306.871 78.457C307.09 78.3477 307.299 78.293 307.5 78.293C307.81 78.2747 308.111 78.2565 308.402 78.2383C308.712 78.2201 309.013 78.2109 309.305 78.2109C309.688 78.2109 310.052 78.2201 310.398 78.2383C310.763 78.2565 311.109 78.2747 311.438 78.293C311.766 78.3294 311.966 78.2474 312.039 78.0469C312.13 77.8464 312.176 77.6003 312.176 77.3086C312.176 77.2174 312.167 77.099 312.148 76.9531C312.148 76.7891 312.148 76.6888 312.148 76.6523C312.148 76.2331 312.103 75.8138 312.012 75.3945C311.939 74.957 311.902 74.5104 311.902 74.0547V73.918C311.939 73.8815 311.984 73.7448 312.039 73.5078C312.112 73.2708 312.148 73.1341 312.148 73.0977V73.0156V72.8516C312.148 72.8151 312.13 72.6966 312.094 72.4961C312.076 72.2956 312.048 72.0859 312.012 71.8672C311.993 71.6302 311.966 71.4023 311.93 71.1836C311.911 70.9648 311.902 70.8281 311.902 70.7734V66.3711C311.811 66.1706 311.757 65.9609 311.738 65.7422C311.72 65.5052 311.711 65.2773 311.711 65.0586C311.711 64.9674 311.72 64.8216 311.738 64.6211C311.757 64.4206 311.766 64.3021 311.766 64.2656C311.802 64.1198 311.839 63.9284 311.875 63.6914C311.93 63.4362 311.957 63.2174 311.957 63.0352C311.957 62.7799 311.948 62.5339 311.93 62.2969C311.911 62.0417 311.902 61.8776 311.902 61.8047C311.921 61.7682 311.939 61.6589 311.957 61.4766C311.993 61.276 312.021 61.0755 312.039 60.875C312.076 60.6562 312.103 60.4557 312.121 60.2734C312.139 60.0911 312.148 59.9818 312.148 59.9453V59.7539C312.112 59.6992 312.085 59.6263 312.066 59.5352C312.048 59.4258 312.03 59.3164 312.012 59.207C311.993 59.0977 311.975 58.9974 311.957 58.9062C311.939 58.8151 311.921 58.7513 311.902 58.7148C311.902 58.4961 311.902 58.1953 311.902 57.8125C311.921 57.4297 311.93 56.9922 311.93 56.5C311.93 55.9896 311.93 55.4518 311.93 54.8867C311.948 54.3034 311.957 53.7201 311.957 53.1367C311.957 52.5534 311.948 51.9792 311.93 51.4141C311.93 50.849 311.93 50.3203 311.93 49.8281C311.93 49.3359 311.921 48.8984 311.902 48.5156C311.902 48.1328 311.902 47.8411 311.902 47.6406C311.902 47.5677 311.893 47.4219 311.875 47.2031C311.857 46.9844 311.839 46.7565 311.82 46.5195C311.82 46.2643 311.811 46.0273 311.793 45.8086C311.775 45.5898 311.766 45.444 311.766 45.3711C311.729 45.1341 311.574 44.8971 311.301 44.6602C311.027 44.4232 310.772 44.3047 310.535 44.3047C309.988 44.3047 309.432 44.332 308.867 44.3867C308.32 44.4414 307.755 44.4688 307.172 44.4688C306.844 44.4688 306.552 44.4688 306.297 44.4688C306.042 44.4505 305.805 44.4049 305.586 44.332C305.385 44.2591 305.203 44.1406 305.039 43.9766C304.893 43.8125 304.757 43.5664 304.629 43.2383V43.1562C304.629 42.974 304.674 42.8099 304.766 42.6641C304.875 42.5182 305.003 42.3997 305.148 42.3086C305.294 42.1992 305.449 42.1263 305.613 42.0898C305.777 42.0352 305.932 42.0078 306.078 42.0078C306.151 42.0078 306.333 41.9987 306.625 41.9805C306.917 41.9622 307.236 41.944 307.582 41.9258C307.928 41.9076 308.266 41.8893 308.594 41.8711C308.94 41.8529 309.204 41.8438 309.387 41.8438H310.016C310.307 41.8438 310.59 41.8802 310.863 41.9531C311.137 42.026 311.438 42.0443 311.766 42.0078C312.951 41.8984 314.135 41.7982 315.32 41.707C316.523 41.5977 317.754 41.543 319.012 41.543C319.668 41.543 320.315 41.5977 320.953 41.707C321.591 41.7982 322.229 41.8438 322.867 41.8438C322.958 41.8438 323.122 41.7982 323.359 41.707C323.596 41.5977 323.751 41.543 323.824 41.543C323.861 41.543 323.943 41.5612 324.07 41.5977C324.216 41.6159 324.371 41.6523 324.535 41.707C324.699 41.7435 324.845 41.7799 324.973 41.8164C325.118 41.8346 325.21 41.8438 325.246 41.8438C325.319 41.8438 325.529 41.8346 325.875 41.8164C326.221 41.7982 326.568 41.7891 326.914 41.7891C327.06 41.7891 327.188 41.7982 327.297 41.8164C327.424 41.8346 327.516 41.8438 327.57 41.8438C327.917 41.862 328.208 41.9167 328.445 42.0078C328.682 42.0807 328.91 42.1719 329.129 42.2812C329.366 42.3906 329.603 42.5182 329.84 42.6641C330.095 42.7917 330.396 42.9284 330.742 43.0742C330.76 43.0924 330.806 43.1107 330.879 43.1289C330.952 43.1471 331.025 43.1745 331.098 43.2109C331.189 43.3021 331.289 43.3659 331.398 43.4023C331.526 43.4388 331.635 43.5026 331.727 43.5938C332.292 44.1224 332.793 44.6875 333.23 45.2891C333.686 45.8906 334.023 46.5833 334.242 47.3672C334.242 47.4036 334.251 47.4857 334.27 47.6133C334.288 47.7409 334.306 47.8867 334.324 48.0508C334.361 48.1966 334.388 48.3333 334.406 48.4609C334.424 48.5885 334.434 48.6797 334.434 48.7344C334.47 48.7526 334.507 48.8255 334.543 48.9531C334.598 49.0625 334.643 49.1901 334.68 49.3359C334.734 49.4635 334.771 49.5911 334.789 49.7188C334.826 49.8281 334.844 49.8919 334.844 49.9102C334.844 49.9466 334.853 50.0469 334.871 50.2109C334.889 50.375 334.898 50.5026 334.898 50.5938C334.898 50.9401 334.862 51.3958 334.789 51.9609C334.716 52.5078 334.607 53.082 334.461 53.6836C334.333 54.2669 334.178 54.832 333.996 55.3789C333.814 55.9076 333.613 56.3086 333.395 56.582C333.249 56.8008 333.076 56.9922 332.875 57.1562C332.693 57.3203 332.483 57.4753 332.246 57.6211C332.027 57.7487 331.799 57.8763 331.562 58.0039C331.326 58.1315 331.098 58.2773 330.879 58.4414C330.879 58.4779 330.824 58.569 330.715 58.7148C330.605 58.8424 330.514 58.9062 330.441 58.9062C330.332 58.9792 330.177 59.0521 329.977 59.125C329.794 59.1979 329.612 59.2891 329.43 59.3984C329.266 59.4896 329.12 59.6081 328.992 59.7539C328.865 59.8815 328.801 60.0547 328.801 60.2734V60.5742C328.837 60.6107 328.91 60.6745 329.02 60.7656C329.129 60.8385 329.247 60.9206 329.375 61.0117C329.521 61.0846 329.658 61.1576 329.785 61.2305C329.913 61.3034 330.004 61.349 330.059 61.3672C330.113 61.4036 330.223 61.4674 330.387 61.5586C330.551 61.6315 330.724 61.7135 330.906 61.8047C331.107 61.8958 331.289 61.987 331.453 62.0781C331.617 62.1693 331.708 62.2331 331.727 62.2695C333.458 63.2721 334.725 64.4479 335.527 65.7969C336.329 67.1276 336.73 68.7865 336.73 70.7734C336.73 71.4115 336.667 71.9583 336.539 72.4141C336.411 72.8516 336.293 73.3529 336.184 73.918C336.147 73.9362 336.129 74.0365 336.129 74.2188C336.129 74.401 336.129 74.5195 336.129 74.5742C336.056 74.8841 335.965 75.2214 335.855 75.5859C335.764 75.9323 335.646 76.2786 335.5 76.625C335.354 76.9714 335.172 77.2904 334.953 77.582C334.753 77.8737 334.516 78.1107 334.242 78.293C334.188 78.3112 334.042 78.3932 333.805 78.5391C333.586 78.6667 333.331 78.8216 333.039 79.0039C332.766 79.1862 332.483 79.3776 332.191 79.5781C331.918 79.7604 331.699 79.9062 331.535 80.0156C331.462 80.0156 331.371 80.043 331.262 80.0977C331.152 80.1341 331.098 80.1706 331.098 80.207C331.079 80.207 331.007 80.2161 330.879 80.2344C330.77 80.2526 330.642 80.2708 330.496 80.2891C330.35 80.2891 330.214 80.2982 330.086 80.3164C329.958 80.3346 329.876 80.3438 329.84 80.3438C329.803 80.362 329.73 80.3984 329.621 80.4531C329.512 80.5078 329.384 80.5625 329.238 80.6172C329.111 80.6719 328.983 80.7174 328.855 80.7539C328.746 80.7904 328.682 80.8086 328.664 80.8086C328.609 80.8086 328.509 80.8177 328.363 80.8359C328.217 80.8542 328.044 80.8633 327.844 80.8633C327.643 80.8633 327.434 80.8633 327.215 80.8633C327.014 80.8451 326.814 80.8359 326.613 80.8359C326.431 80.8359 326.267 80.8359 326.121 80.8359C325.993 80.8177 325.902 80.8086 325.848 80.8086C325.775 80.8268 325.583 80.8542 325.273 80.8906C324.982 80.9271 324.663 80.9635 324.316 81C323.97 81.0547 323.642 81.1003 323.332 81.1367C323.04 81.1732 322.858 81.1914 322.785 81.1914C322.749 81.2279 322.621 81.2461 322.402 81.2461C322.202 81.2461 322.029 81.2461 321.883 81.2461C321.464 81.2461 321.117 81.2005 320.844 81.1094C320.589 81.0365 320.26 81 319.859 81H313.844C313.753 81 313.607 81.0091 313.406 81.0273C313.206 81.0456 312.996 81.0638 312.777 81.082C312.559 81.1003 312.349 81.1185 312.148 81.1367C311.966 81.1549 311.839 81.1732 311.766 81.1914C311.729 81.2279 311.611 81.2734 311.41 81.3281C311.228 81.401 311.128 81.4375 311.109 81.4375C311.055 81.4375 310.936 81.401 310.754 81.3281C310.572 81.2734 310.462 81.2279 310.426 81.1914C310.025 81.1367 309.615 81.1094 309.195 81.1094C308.794 81.1276 308.384 81.1185 307.965 81.082C307.564 81.0638 307.163 81 306.762 80.8906C306.379 80.7812 305.996 80.599 305.613 80.3438ZM343.621 44.1406C343.621 43.7396 343.694 43.3568 343.84 42.9922C344.004 42.6276 344.223 42.3086 344.496 42.0352C344.77 41.7617 345.089 41.543 345.453 41.3789C345.836 41.2148 346.237 41.1328 346.656 41.1328C346.93 41.1328 347.194 41.1966 347.449 41.3242C347.704 41.4518 347.941 41.6159 348.16 41.8164C348.397 42.0169 348.607 42.2357 348.789 42.4727C348.99 42.6914 349.163 42.8919 349.309 43.0742C349.436 43.1654 349.509 43.3021 349.527 43.4844C349.546 43.6667 349.555 43.8581 349.555 44.0586C349.555 44.6055 349.445 45.0703 349.227 45.4531C349.008 45.8177 348.716 46.1276 348.352 46.3828C348.005 46.6198 347.604 46.8021 347.148 46.9297C346.693 47.0573 346.228 47.1393 345.754 47.1758C345.116 46.8477 344.596 46.4466 344.195 45.9727C343.812 45.4987 343.621 44.888 343.621 44.1406ZM341.598 80.0156C341.598 79.5781 341.716 79.2956 341.953 79.168C342.19 79.0404 342.482 78.9583 342.828 78.9219C343.174 78.8854 343.539 78.8581 343.922 78.8398C344.323 78.8034 344.669 78.6576 344.961 78.4023C344.961 78.293 344.97 78.0833 344.988 77.7734C345.007 77.4635 345.016 77.1354 345.016 76.7891C345.034 76.4245 345.052 76.0872 345.07 75.7773C345.089 75.4674 345.098 75.2487 345.098 75.1211V71.8125C345.098 71.7214 345.098 71.5208 345.098 71.2109C345.116 70.901 345.134 70.5456 345.152 70.1445C345.189 69.7435 345.216 69.3151 345.234 68.8594C345.253 68.4036 345.271 67.9753 345.289 67.5742C345.326 67.1732 345.344 66.8268 345.344 66.5352C345.362 66.2435 345.371 66.0521 345.371 65.9609V62.543C345.371 62.543 345.38 62.5065 345.398 62.4336C345.417 62.3424 345.435 62.2604 345.453 62.1875C345.49 62.0964 345.517 62.0143 345.535 61.9414C345.553 61.8503 345.562 61.8047 345.562 61.8047L345.617 61.6953C345.617 61.6589 345.608 61.6315 345.59 61.6133C345.59 61.5951 345.59 61.5768 345.59 61.5586C345.572 61.5404 345.562 61.5221 345.562 61.5039C345.562 61.5039 345.535 61.4766 345.48 61.4219C345.426 61.349 345.362 61.276 345.289 61.2031C345.216 61.112 345.143 61.0299 345.07 60.957C345.016 60.8659 344.979 60.8021 344.961 60.7656C344.779 60.5104 344.496 60.3281 344.113 60.2188C343.749 60.0911 343.375 59.9727 342.992 59.8633C342.628 59.7539 342.299 59.6263 342.008 59.4805C341.734 59.3164 341.598 59.0794 341.598 58.7695C341.598 58.569 341.698 58.4049 341.898 58.2773C342.117 58.1315 342.299 58.0404 342.445 58.0039C342.5 57.9857 342.637 57.9583 342.855 57.9219C343.074 57.8854 343.311 57.849 343.566 57.8125C343.84 57.776 344.086 57.7396 344.305 57.7031C344.523 57.6484 344.66 57.612 344.715 57.5938C344.733 57.5755 344.797 57.5482 344.906 57.5117C345.016 57.4753 345.125 57.4388 345.234 57.4023C345.362 57.3477 345.471 57.3021 345.562 57.2656C345.672 57.2292 345.736 57.2109 345.754 57.2109C345.918 57.1562 346.191 57.0924 346.574 57.0195C346.957 56.9466 347.258 56.8555 347.477 56.7461C347.659 56.6549 347.814 56.5638 347.941 56.4727C348.087 56.3633 348.224 56.2721 348.352 56.1992C348.497 56.1081 348.643 56.0443 348.789 56.0078C348.953 55.9531 349.145 55.9258 349.363 55.9258C349.691 55.9258 349.938 56.0807 350.102 56.3906C350.266 56.7005 350.348 57.0195 350.348 57.3477C350.348 57.8763 350.302 58.4141 350.211 58.9609C350.138 59.4896 350.102 60.0273 350.102 60.5742C350.102 61.0299 350.111 61.431 350.129 61.7773C350.147 62.1055 350.22 62.5339 350.348 63.0625V74.2461C350.366 74.3008 350.384 74.3737 350.402 74.4648C350.439 74.556 350.457 74.6562 350.457 74.7656C350.475 74.875 350.493 74.9844 350.512 75.0938C350.53 75.1849 350.557 75.2487 350.594 75.2852V75.4219V75.5586C350.594 75.5951 350.585 75.6589 350.566 75.75C350.548 75.8411 350.53 75.9505 350.512 76.0781C350.493 76.1875 350.466 76.2969 350.43 76.4062C350.393 76.4974 350.366 76.5612 350.348 76.5977V76.8438C350.348 76.8984 350.366 77.026 350.402 77.2266C350.439 77.4271 350.484 77.6458 350.539 77.8828C350.612 78.1198 350.685 78.3385 350.758 78.5391C350.831 78.7214 350.904 78.8307 350.977 78.8672C350.995 78.9036 351.04 78.9219 351.113 78.9219C351.186 78.9219 351.25 78.9219 351.305 78.9219C351.414 78.9219 351.514 78.9128 351.605 78.8945C351.715 78.8763 351.788 78.8672 351.824 78.8672C351.842 78.9036 351.934 78.9492 352.098 79.0039C352.28 79.0404 352.389 79.0586 352.426 79.0586C352.48 79.0951 352.59 79.1224 352.754 79.1406C352.918 79.1589 353.082 79.1771 353.246 79.1953C353.428 79.1953 353.602 79.2135 353.766 79.25C353.93 79.2682 354.039 79.2865 354.094 79.3047C354.294 79.3411 354.422 79.4688 354.477 79.6875C354.531 79.9062 354.559 80.0885 354.559 80.2344C354.559 80.526 354.44 80.7448 354.203 80.8906C353.966 81.0182 353.72 81.1003 353.465 81.1367H351.25H348.871C348.835 81.1367 348.743 81.1276 348.598 81.1094C348.47 81.0911 348.324 81.0638 348.16 81.0273C348.014 81.0091 347.868 80.9909 347.723 80.9727C347.595 80.9362 347.513 80.918 347.477 80.918H347.23C346.738 80.918 346.219 80.9544 345.672 81.0273C345.143 81.1003 344.605 81.1367 344.059 81.1367H342.637C342.6 81.1003 342.473 81.0365 342.254 80.9453C342.053 80.8542 341.917 80.7904 341.844 80.7539C341.753 80.681 341.689 80.6081 341.652 80.5352C341.616 80.444 341.598 80.362 341.598 80.2891V80.0156ZM359.754 72.5781C359.754 70.7005 359.799 68.8411 359.891 67C359.982 65.1589 360.027 63.3177 360.027 61.4766C360.027 60.9115 359.918 60.4922 359.699 60.2188C359.499 59.9453 359.225 59.7539 358.879 59.6445C358.551 59.5352 358.168 59.4805 357.73 59.4805C357.311 59.4805 356.874 59.4622 356.418 59.4258C356.345 59.3529 356.254 59.2526 356.145 59.125C356.053 58.9974 356.008 58.8971 356.008 58.8242C356.008 58.7331 356.044 58.6328 356.117 58.5234C356.208 58.3958 356.263 58.332 356.281 58.332C356.372 58.2591 356.546 58.1042 356.801 57.8672C357.056 57.612 357.329 57.3385 357.621 57.0469C357.913 56.7552 358.177 56.4818 358.414 56.2266C358.669 55.9714 358.842 55.7891 358.934 55.6797C358.988 55.6432 359.061 55.5703 359.152 55.4609C359.243 55.3333 359.344 55.2057 359.453 55.0781C359.562 54.9323 359.672 54.8047 359.781 54.6953C359.891 54.5677 359.973 54.4766 360.027 54.4219C360.082 54.349 360.21 54.1667 360.41 53.875C360.629 53.5833 360.884 53.2461 361.176 52.8633C361.467 52.4622 361.777 52.0521 362.105 51.6328C362.452 51.1953 362.78 50.8034 363.09 50.457C363.4 50.0924 363.682 49.7917 363.938 49.5547C364.193 49.3177 364.375 49.1992 364.484 49.1992H364.566C364.767 49.3086 364.913 49.4362 365.004 49.582C365.095 49.7279 365.159 49.8919 365.195 50.0742C365.25 50.2565 365.286 50.457 365.305 50.6758C365.323 50.8763 365.359 51.0859 365.414 51.3047V51.3867C365.414 51.8789 365.368 52.3711 365.277 52.8633C365.204 53.3555 365.168 53.875 365.168 54.4219C365.168 54.4766 365.168 54.5495 365.168 54.6406C365.168 54.7135 365.177 54.7956 365.195 54.8867C365.195 54.9779 365.204 55.0872 365.223 55.2148L365.66 55.6797H366.262C367.1 55.6797 367.939 55.6068 368.777 55.4609C369.342 55.3151 369.908 55.1328 370.473 54.9141C371.056 54.6771 371.639 54.5586 372.223 54.5586C372.77 54.5586 373.134 54.7044 373.316 54.9961C373.499 55.2878 373.59 55.6615 373.59 56.1172C373.59 56.5729 373.49 56.974 373.289 57.3203C373.107 57.6667 372.852 57.9583 372.523 58.1953C372.214 58.4141 371.858 58.5964 371.457 58.7422C371.056 58.8698 370.655 58.9427 370.254 58.9609C370.217 58.9792 370.135 58.9974 370.008 59.0156C369.88 59.0156 369.743 59.0247 369.598 59.043C369.452 59.043 369.315 59.043 369.188 59.043C369.078 59.043 369.005 59.043 368.969 59.043C368.932 59.0794 368.85 59.1159 368.723 59.1523C368.613 59.1888 368.486 59.2253 368.34 59.2617C368.194 59.2982 368.057 59.3346 367.93 59.3711C367.802 59.3893 367.72 59.4076 367.684 59.4258H365.414L365.004 59.5625C364.967 60.0365 364.94 60.5013 364.922 60.957C364.885 61.3398 364.858 61.7409 364.84 62.1602C364.84 62.5612 364.84 62.8984 364.84 63.1719C364.84 63.2083 364.822 63.3268 364.785 63.5273C364.767 63.7279 364.758 63.8737 364.758 63.9648C364.758 64.4206 364.794 64.8672 364.867 65.3047C364.958 65.7422 365.004 66.1979 365.004 66.6719C365.004 67.4922 364.967 68.3307 364.895 69.1875C364.84 70.026 364.812 70.8737 364.812 71.7305C364.812 71.931 364.812 72.1406 364.812 72.3594C364.812 72.5781 364.822 72.7969 364.84 73.0156C364.694 73.1797 364.612 73.3346 364.594 73.4805C364.576 73.6263 364.566 73.7995 364.566 74C364.566 74.3646 364.621 74.7018 364.73 75.0117C364.858 75.3034 365.022 75.6133 365.223 75.9414C365.605 76.5794 366.025 77.0169 366.48 77.2539C366.936 77.4727 367.556 77.582 368.34 77.582C368.814 77.582 369.342 77.4818 369.926 77.2812C370.527 77.0625 371.047 76.8802 371.484 76.7344C371.521 76.7344 371.63 76.707 371.812 76.6523C371.995 76.5794 372.195 76.5065 372.414 76.4336C372.633 76.3424 372.833 76.2695 373.016 76.2148C373.198 76.1419 373.316 76.0964 373.371 76.0781H373.59C373.736 76.0781 373.845 76.1328 373.918 76.2422C373.991 76.3516 374.027 76.4883 374.027 76.6523C374.027 77.1628 373.882 77.6003 373.59 77.9648C373.316 78.3112 372.979 78.612 372.578 78.8672C372.177 79.1224 371.74 79.3411 371.266 79.5234C370.81 79.7057 370.409 79.8789 370.062 80.043C370.008 80.043 369.898 80.0794 369.734 80.1523C369.589 80.207 369.47 80.2526 369.379 80.2891C368.85 80.4531 368.34 80.6354 367.848 80.8359C367.374 81.0365 366.845 81.1367 366.262 81.1367C365.897 81.1367 365.487 81.1003 365.031 81.0273C364.594 80.9544 364.138 80.8633 363.664 80.7539C363.208 80.6263 362.762 80.4805 362.324 80.3164C361.905 80.1341 361.549 79.9336 361.258 79.7148C361.185 79.6602 361.103 79.5964 361.012 79.5234C360.921 79.4323 360.829 79.3411 360.738 79.25C360.665 79.1406 360.592 79.0495 360.52 78.9766C360.465 78.9036 360.438 78.849 360.438 78.8125L359.781 76.3242C359.781 76.306 359.781 76.151 359.781 75.8594C359.781 75.5677 359.772 75.2214 359.754 74.8203C359.754 74.4193 359.754 74.0091 359.754 73.5898C359.754 73.1706 359.754 72.8333 359.754 72.5781Z" fill="#333333"/>
<path d="M141.523 99.625V111H140.039V99.625H141.523ZM145.18 99.625V100.859H136.391V99.625H145.18ZM151.07 109.047V102.547H152.523V111H151.141L151.07 109.047ZM151.344 107.266L151.945 107.25C151.945 107.812 151.885 108.333 151.766 108.812C151.651 109.286 151.464 109.698 151.203 110.047C150.943 110.396 150.602 110.669 150.18 110.867C149.758 111.06 149.245 111.156 148.641 111.156C148.229 111.156 147.852 111.096 147.508 110.977C147.169 110.857 146.878 110.672 146.633 110.422C146.388 110.172 146.198 109.846 146.062 109.445C145.932 109.044 145.867 108.562 145.867 108V102.547H147.312V108.016C147.312 108.396 147.354 108.711 147.438 108.961C147.526 109.206 147.643 109.401 147.789 109.547C147.94 109.688 148.107 109.786 148.289 109.844C148.477 109.901 148.669 109.93 148.867 109.93C149.482 109.93 149.969 109.812 150.328 109.578C150.688 109.339 150.945 109.018 151.102 108.617C151.263 108.211 151.344 107.76 151.344 107.266ZM156.172 103.875V111H154.727V102.547H156.133L156.172 103.875ZM158.812 102.5L158.805 103.844C158.685 103.818 158.57 103.802 158.461 103.797C158.357 103.786 158.237 103.781 158.102 103.781C157.768 103.781 157.474 103.833 157.219 103.938C156.964 104.042 156.747 104.188 156.57 104.375C156.393 104.562 156.253 104.786 156.148 105.047C156.049 105.302 155.984 105.583 155.953 105.891L155.547 106.125C155.547 105.615 155.596 105.135 155.695 104.688C155.799 104.24 155.958 103.844 156.172 103.5C156.385 103.151 156.656 102.88 156.984 102.688C157.318 102.49 157.714 102.391 158.172 102.391C158.276 102.391 158.396 102.404 158.531 102.43C158.667 102.451 158.76 102.474 158.812 102.5ZM161.594 104.352V111H160.148V102.547H161.516L161.594 104.352ZM161.25 106.453L160.648 106.43C160.654 105.852 160.74 105.318 160.906 104.828C161.073 104.333 161.307 103.904 161.609 103.539C161.911 103.174 162.271 102.893 162.688 102.695C163.109 102.492 163.576 102.391 164.086 102.391C164.503 102.391 164.878 102.448 165.211 102.562C165.544 102.672 165.828 102.849 166.062 103.094C166.302 103.339 166.484 103.656 166.609 104.047C166.734 104.432 166.797 104.904 166.797 105.461V111H165.344V105.445C165.344 105.003 165.279 104.648 165.148 104.383C165.018 104.112 164.828 103.917 164.578 103.797C164.328 103.672 164.021 103.609 163.656 103.609C163.297 103.609 162.969 103.685 162.672 103.836C162.38 103.987 162.128 104.195 161.914 104.461C161.706 104.727 161.542 105.031 161.422 105.375C161.307 105.714 161.25 106.073 161.25 106.453ZM170.562 102.547V111H169.109V102.547H170.562ZM169 100.305C169 100.07 169.07 99.8724 169.211 99.7109C169.357 99.5495 169.57 99.4688 169.852 99.4688C170.128 99.4688 170.339 99.5495 170.484 99.7109C170.635 99.8724 170.711 100.07 170.711 100.305C170.711 100.529 170.635 100.721 170.484 100.883C170.339 101.039 170.128 101.117 169.852 101.117C169.57 101.117 169.357 101.039 169.211 100.883C169.07 100.721 169 100.529 169 100.305ZM174.328 104.352V111H172.883V102.547H174.25L174.328 104.352ZM173.984 106.453L173.383 106.43C173.388 105.852 173.474 105.318 173.641 104.828C173.807 104.333 174.042 103.904 174.344 103.539C174.646 103.174 175.005 102.893 175.422 102.695C175.844 102.492 176.31 102.391 176.82 102.391C177.237 102.391 177.612 102.448 177.945 102.562C178.279 102.672 178.562 102.849 178.797 103.094C179.036 103.339 179.219 103.656 179.344 104.047C179.469 104.432 179.531 104.904 179.531 105.461V111H178.078V105.445C178.078 105.003 178.013 104.648 177.883 104.383C177.753 104.112 177.562 103.917 177.312 103.797C177.062 103.672 176.755 103.609 176.391 103.609C176.031 103.609 175.703 103.685 175.406 103.836C175.115 103.987 174.862 104.195 174.648 104.461C174.44 104.727 174.276 105.031 174.156 105.375C174.042 105.714 173.984 106.073 173.984 106.453ZM187.203 102.547H188.516V110.82C188.516 111.565 188.365 112.201 188.062 112.727C187.76 113.253 187.339 113.651 186.797 113.922C186.26 114.198 185.641 114.336 184.938 114.336C184.646 114.336 184.302 114.289 183.906 114.195C183.516 114.107 183.13 113.953 182.75 113.734C182.375 113.521 182.06 113.232 181.805 112.867L182.562 112.008C182.917 112.435 183.286 112.732 183.672 112.898C184.062 113.065 184.448 113.148 184.828 113.148C185.286 113.148 185.682 113.062 186.016 112.891C186.349 112.719 186.607 112.464 186.789 112.125C186.977 111.792 187.07 111.38 187.07 110.891V104.406L187.203 102.547ZM181.383 106.867V106.703C181.383 106.057 181.458 105.471 181.609 104.945C181.766 104.414 181.987 103.958 182.273 103.578C182.565 103.198 182.917 102.906 183.328 102.703C183.74 102.495 184.203 102.391 184.719 102.391C185.25 102.391 185.714 102.484 186.109 102.672C186.51 102.854 186.849 103.122 187.125 103.477C187.406 103.826 187.628 104.247 187.789 104.742C187.951 105.237 188.062 105.797 188.125 106.422V107.141C188.068 107.76 187.956 108.318 187.789 108.812C187.628 109.307 187.406 109.729 187.125 110.078C186.849 110.427 186.51 110.695 186.109 110.883C185.708 111.065 185.24 111.156 184.703 111.156C184.198 111.156 183.74 111.049 183.328 110.836C182.922 110.622 182.573 110.323 182.281 109.938C181.99 109.552 181.766 109.099 181.609 108.578C181.458 108.052 181.383 107.482 181.383 106.867ZM182.828 106.703V106.867C182.828 107.289 182.87 107.685 182.953 108.055C183.042 108.424 183.174 108.75 183.352 109.031C183.534 109.312 183.766 109.534 184.047 109.695C184.328 109.852 184.664 109.93 185.055 109.93C185.534 109.93 185.93 109.828 186.242 109.625C186.555 109.422 186.802 109.154 186.984 108.82C187.172 108.487 187.318 108.125 187.422 107.734V105.852C187.365 105.565 187.276 105.289 187.156 105.023C187.042 104.753 186.891 104.513 186.703 104.305C186.521 104.091 186.294 103.922 186.023 103.797C185.753 103.672 185.435 103.609 185.07 103.609C184.674 103.609 184.333 103.693 184.047 103.859C183.766 104.021 183.534 104.245 183.352 104.531C183.174 104.812 183.042 105.141 182.953 105.516C182.87 105.885 182.828 106.281 182.828 106.703ZM198.062 109.969C198.406 109.969 198.724 109.898 199.016 109.758C199.307 109.617 199.547 109.424 199.734 109.18C199.922 108.93 200.029 108.646 200.055 108.328H201.43C201.404 108.828 201.234 109.294 200.922 109.727C200.615 110.154 200.211 110.5 199.711 110.766C199.211 111.026 198.661 111.156 198.062 111.156C197.427 111.156 196.872 111.044 196.398 110.82C195.93 110.596 195.539 110.289 195.227 109.898C194.919 109.508 194.688 109.06 194.531 108.555C194.38 108.044 194.305 107.505 194.305 106.938V106.609C194.305 106.042 194.38 105.505 194.531 105C194.688 104.49 194.919 104.039 195.227 103.648C195.539 103.258 195.93 102.951 196.398 102.727C196.872 102.503 197.427 102.391 198.062 102.391C198.724 102.391 199.302 102.526 199.797 102.797C200.292 103.062 200.68 103.427 200.961 103.891C201.247 104.349 201.404 104.87 201.43 105.453H200.055C200.029 105.104 199.93 104.789 199.758 104.508C199.591 104.227 199.362 104.003 199.07 103.836C198.784 103.664 198.448 103.578 198.062 103.578C197.62 103.578 197.247 103.667 196.945 103.844C196.648 104.016 196.411 104.25 196.234 104.547C196.062 104.839 195.938 105.164 195.859 105.523C195.786 105.878 195.75 106.24 195.75 106.609V106.938C195.75 107.307 195.786 107.672 195.859 108.031C195.932 108.391 196.055 108.716 196.227 109.008C196.404 109.299 196.641 109.534 196.938 109.711C197.24 109.883 197.615 109.969 198.062 109.969ZM204.5 99V111H203.055V99H204.5ZM204.156 106.453L203.555 106.43C203.56 105.852 203.646 105.318 203.812 104.828C203.979 104.333 204.214 103.904 204.516 103.539C204.818 103.174 205.177 102.893 205.594 102.695C206.016 102.492 206.482 102.391 206.992 102.391C207.409 102.391 207.784 102.448 208.117 102.562C208.451 102.672 208.734 102.849 208.969 103.094C209.208 103.339 209.391 103.656 209.516 104.047C209.641 104.432 209.703 104.904 209.703 105.461V111H208.25V105.445C208.25 105.003 208.185 104.648 208.055 104.383C207.924 104.112 207.734 103.917 207.484 103.797C207.234 103.672 206.927 103.609 206.562 103.609C206.203 103.609 205.875 103.685 205.578 103.836C205.286 103.987 205.034 104.195 204.82 104.461C204.612 104.727 204.448 105.031 204.328 105.375C204.214 105.714 204.156 106.073 204.156 106.453ZM216.852 109.555V105.203C216.852 104.87 216.784 104.581 216.648 104.336C216.518 104.086 216.32 103.893 216.055 103.758C215.789 103.622 215.461 103.555 215.07 103.555C214.706 103.555 214.385 103.617 214.109 103.742C213.839 103.867 213.625 104.031 213.469 104.234C213.318 104.438 213.242 104.656 213.242 104.891H211.797C211.797 104.589 211.875 104.289 212.031 103.992C212.188 103.695 212.411 103.427 212.703 103.188C213 102.943 213.354 102.75 213.766 102.609C214.182 102.464 214.646 102.391 215.156 102.391C215.771 102.391 216.312 102.495 216.781 102.703C217.255 102.911 217.625 103.227 217.891 103.648C218.161 104.065 218.297 104.589 218.297 105.219V109.156C218.297 109.438 218.32 109.737 218.367 110.055C218.419 110.372 218.495 110.646 218.594 110.875V111H217.086C217.013 110.833 216.956 110.612 216.914 110.336C216.872 110.055 216.852 109.794 216.852 109.555ZM217.102 105.875L217.117 106.891H215.656C215.245 106.891 214.878 106.924 214.555 106.992C214.232 107.055 213.961 107.151 213.742 107.281C213.523 107.411 213.357 107.576 213.242 107.773C213.128 107.966 213.07 108.193 213.07 108.453C213.07 108.719 213.13 108.961 213.25 109.18C213.37 109.398 213.549 109.573 213.789 109.703C214.034 109.828 214.333 109.891 214.688 109.891C215.13 109.891 215.521 109.797 215.859 109.609C216.198 109.422 216.466 109.193 216.664 108.922C216.867 108.651 216.977 108.388 216.992 108.133L217.609 108.828C217.573 109.047 217.474 109.289 217.312 109.555C217.151 109.82 216.935 110.076 216.664 110.32C216.398 110.56 216.081 110.76 215.711 110.922C215.346 111.078 214.935 111.156 214.477 111.156C213.904 111.156 213.401 111.044 212.969 110.82C212.542 110.596 212.208 110.297 211.969 109.922C211.734 109.542 211.617 109.117 211.617 108.648C211.617 108.195 211.706 107.797 211.883 107.453C212.06 107.104 212.315 106.815 212.648 106.586C212.982 106.352 213.383 106.174 213.852 106.055C214.32 105.935 214.844 105.875 215.422 105.875H217.102ZM222.016 104.352V111H220.57V102.547H221.938L222.016 104.352ZM221.672 106.453L221.07 106.43C221.076 105.852 221.161 105.318 221.328 104.828C221.495 104.333 221.729 103.904 222.031 103.539C222.333 103.174 222.693 102.893 223.109 102.695C223.531 102.492 223.997 102.391 224.508 102.391C224.924 102.391 225.299 102.448 225.633 102.562C225.966 102.672 226.25 102.849 226.484 103.094C226.724 103.339 226.906 103.656 227.031 104.047C227.156 104.432 227.219 104.904 227.219 105.461V111H225.766V105.445C225.766 105.003 225.701 104.648 225.57 104.383C225.44 104.112 225.25 103.917 225 103.797C224.75 103.672 224.443 103.609 224.078 103.609C223.719 103.609 223.391 103.685 223.094 103.836C222.802 103.987 222.549 104.195 222.336 104.461C222.128 104.727 221.964 105.031 221.844 105.375C221.729 105.714 221.672 106.073 221.672 106.453ZM234.891 102.547H236.203V110.82C236.203 111.565 236.052 112.201 235.75 112.727C235.448 113.253 235.026 113.651 234.484 113.922C233.948 114.198 233.328 114.336 232.625 114.336C232.333 114.336 231.99 114.289 231.594 114.195C231.203 114.107 230.818 113.953 230.438 113.734C230.062 113.521 229.747 113.232 229.492 112.867L230.25 112.008C230.604 112.435 230.974 112.732 231.359 112.898C231.75 113.065 232.135 113.148 232.516 113.148C232.974 113.148 233.37 113.062 233.703 112.891C234.036 112.719 234.294 112.464 234.477 112.125C234.664 111.792 234.758 111.38 234.758 110.891V104.406L234.891 102.547ZM229.07 106.867V106.703C229.07 106.057 229.146 105.471 229.297 104.945C229.453 104.414 229.674 103.958 229.961 103.578C230.253 103.198 230.604 102.906 231.016 102.703C231.427 102.495 231.891 102.391 232.406 102.391C232.938 102.391 233.401 102.484 233.797 102.672C234.198 102.854 234.536 103.122 234.812 103.477C235.094 103.826 235.315 104.247 235.477 104.742C235.638 105.237 235.75 105.797 235.812 106.422V107.141C235.755 107.76 235.643 108.318 235.477 108.812C235.315 109.307 235.094 109.729 234.812 110.078C234.536 110.427 234.198 110.695 233.797 110.883C233.396 111.065 232.927 111.156 232.391 111.156C231.885 111.156 231.427 111.049 231.016 110.836C230.609 110.622 230.26 110.323 229.969 109.938C229.677 109.552 229.453 109.099 229.297 108.578C229.146 108.052 229.07 107.482 229.07 106.867ZM230.516 106.703V106.867C230.516 107.289 230.557 107.685 230.641 108.055C230.729 108.424 230.862 108.75 231.039 109.031C231.221 109.312 231.453 109.534 231.734 109.695C232.016 109.852 232.352 109.93 232.742 109.93C233.221 109.93 233.617 109.828 233.93 109.625C234.242 109.422 234.49 109.154 234.672 108.82C234.859 108.487 235.005 108.125 235.109 107.734V105.852C235.052 105.565 234.964 105.289 234.844 105.023C234.729 104.753 234.578 104.513 234.391 104.305C234.208 104.091 233.982 103.922 233.711 103.797C233.44 103.672 233.122 103.609 232.758 103.609C232.362 103.609 232.021 103.693 231.734 103.859C231.453 104.021 231.221 104.245 231.039 104.531C230.862 104.812 230.729 105.141 230.641 105.516C230.557 105.885 230.516 106.281 230.516 106.703ZM241.906 111.156C241.318 111.156 240.784 111.057 240.305 110.859C239.831 110.656 239.422 110.372 239.078 110.008C238.74 109.643 238.479 109.211 238.297 108.711C238.115 108.211 238.023 107.664 238.023 107.07V106.742C238.023 106.055 238.125 105.443 238.328 104.906C238.531 104.365 238.807 103.906 239.156 103.531C239.505 103.156 239.901 102.872 240.344 102.68C240.786 102.487 241.245 102.391 241.719 102.391C242.323 102.391 242.844 102.495 243.281 102.703C243.724 102.911 244.086 103.203 244.367 103.578C244.648 103.948 244.857 104.385 244.992 104.891C245.128 105.391 245.195 105.938 245.195 106.531V107.18H238.883V106H243.75V105.891C243.729 105.516 243.651 105.151 243.516 104.797C243.385 104.443 243.177 104.151 242.891 103.922C242.604 103.693 242.214 103.578 241.719 103.578C241.391 103.578 241.089 103.648 240.812 103.789C240.536 103.924 240.299 104.128 240.102 104.398C239.904 104.669 239.75 105 239.641 105.391C239.531 105.781 239.477 106.232 239.477 106.742V107.07C239.477 107.471 239.531 107.849 239.641 108.203C239.755 108.552 239.919 108.859 240.133 109.125C240.352 109.391 240.615 109.599 240.922 109.75C241.234 109.901 241.589 109.977 241.984 109.977C242.495 109.977 242.927 109.872 243.281 109.664C243.635 109.456 243.945 109.177 244.211 108.828L245.086 109.523C244.904 109.799 244.672 110.062 244.391 110.312C244.109 110.562 243.763 110.766 243.352 110.922C242.945 111.078 242.464 111.156 241.906 111.156ZM252.422 102.547V111H250.969V102.547H252.422ZM250.859 100.305C250.859 100.07 250.93 99.8724 251.07 99.7109C251.216 99.5495 251.43 99.4688 251.711 99.4688C251.987 99.4688 252.198 99.5495 252.344 99.7109C252.495 99.8724 252.57 100.07 252.57 100.305C252.57 100.529 252.495 100.721 252.344 100.883C252.198 101.039 251.987 101.117 251.711 101.117C251.43 101.117 251.216 101.039 251.07 100.883C250.93 100.721 250.859 100.529 250.859 100.305ZM256.188 104.352V111H254.742V102.547H256.109L256.188 104.352ZM255.844 106.453L255.242 106.43C255.247 105.852 255.333 105.318 255.5 104.828C255.667 104.333 255.901 103.904 256.203 103.539C256.505 103.174 256.865 102.893 257.281 102.695C257.703 102.492 258.169 102.391 258.68 102.391C259.096 102.391 259.471 102.448 259.805 102.562C260.138 102.672 260.422 102.849 260.656 103.094C260.896 103.339 261.078 103.656 261.203 104.047C261.328 104.432 261.391 104.904 261.391 105.461V111H259.938V105.445C259.938 105.003 259.872 104.648 259.742 104.383C259.612 104.112 259.422 103.917 259.172 103.797C258.922 103.672 258.615 103.609 258.25 103.609C257.891 103.609 257.562 103.685 257.266 103.836C256.974 103.987 256.721 104.195 256.508 104.461C256.299 104.727 256.135 105.031 256.016 105.375C255.901 105.714 255.844 106.073 255.844 106.453ZM267.125 102.547V103.656H262.555V102.547H267.125ZM264.102 100.492H265.547V108.906C265.547 109.193 265.591 109.409 265.68 109.555C265.768 109.701 265.883 109.797 266.023 109.844C266.164 109.891 266.315 109.914 266.477 109.914C266.596 109.914 266.721 109.904 266.852 109.883C266.987 109.857 267.089 109.836 267.156 109.82L267.164 111C267.049 111.036 266.898 111.07 266.711 111.102C266.529 111.138 266.307 111.156 266.047 111.156C265.693 111.156 265.367 111.086 265.07 110.945C264.773 110.805 264.536 110.57 264.359 110.242C264.188 109.909 264.102 109.461 264.102 108.898V100.492ZM268.281 106.867V106.688C268.281 106.078 268.37 105.513 268.547 104.992C268.724 104.466 268.979 104.01 269.312 103.625C269.646 103.234 270.049 102.932 270.523 102.719C270.997 102.5 271.529 102.391 272.117 102.391C272.711 102.391 273.245 102.5 273.719 102.719C274.198 102.932 274.604 103.234 274.938 103.625C275.276 104.01 275.534 104.466 275.711 104.992C275.888 105.513 275.977 106.078 275.977 106.688V106.867C275.977 107.477 275.888 108.042 275.711 108.562C275.534 109.083 275.276 109.539 274.938 109.93C274.604 110.315 274.201 110.617 273.727 110.836C273.258 111.049 272.727 111.156 272.133 111.156C271.539 111.156 271.005 111.049 270.531 110.836C270.057 110.617 269.651 110.315 269.312 109.93C268.979 109.539 268.724 109.083 268.547 108.562C268.37 108.042 268.281 107.477 268.281 106.867ZM269.727 106.688V106.867C269.727 107.289 269.776 107.688 269.875 108.062C269.974 108.432 270.122 108.76 270.32 109.047C270.523 109.333 270.776 109.56 271.078 109.727C271.38 109.888 271.732 109.969 272.133 109.969C272.529 109.969 272.875 109.888 273.172 109.727C273.474 109.56 273.724 109.333 273.922 109.047C274.12 108.76 274.268 108.432 274.367 108.062C274.471 107.688 274.523 107.289 274.523 106.867V106.688C274.523 106.271 274.471 105.878 274.367 105.508C274.268 105.133 274.117 104.802 273.914 104.516C273.716 104.224 273.466 103.995 273.164 103.828C272.867 103.661 272.518 103.578 272.117 103.578C271.721 103.578 271.372 103.661 271.07 103.828C270.773 103.995 270.523 104.224 270.32 104.516C270.122 104.802 269.974 105.133 269.875 105.508C269.776 105.878 269.727 106.271 269.727 106.688ZM285.141 109.969C285.484 109.969 285.802 109.898 286.094 109.758C286.385 109.617 286.625 109.424 286.812 109.18C287 108.93 287.107 108.646 287.133 108.328H288.508C288.482 108.828 288.312 109.294 288 109.727C287.693 110.154 287.289 110.5 286.789 110.766C286.289 111.026 285.74 111.156 285.141 111.156C284.505 111.156 283.951 111.044 283.477 110.82C283.008 110.596 282.617 110.289 282.305 109.898C281.997 109.508 281.766 109.06 281.609 108.555C281.458 108.044 281.383 107.505 281.383 106.938V106.609C281.383 106.042 281.458 105.505 281.609 105C281.766 104.49 281.997 104.039 282.305 103.648C282.617 103.258 283.008 102.951 283.477 102.727C283.951 102.503 284.505 102.391 285.141 102.391C285.802 102.391 286.38 102.526 286.875 102.797C287.37 103.062 287.758 103.427 288.039 103.891C288.326 104.349 288.482 104.87 288.508 105.453H287.133C287.107 105.104 287.008 104.789 286.836 104.508C286.669 104.227 286.44 104.003 286.148 103.836C285.862 103.664 285.526 103.578 285.141 103.578C284.698 103.578 284.326 103.667 284.023 103.844C283.727 104.016 283.49 104.25 283.312 104.547C283.141 104.839 283.016 105.164 282.938 105.523C282.865 105.878 282.828 106.24 282.828 106.609V106.938C282.828 107.307 282.865 107.672 282.938 108.031C283.01 108.391 283.133 108.716 283.305 109.008C283.482 109.299 283.719 109.534 284.016 109.711C284.318 109.883 284.693 109.969 285.141 109.969ZM291.578 99V111H290.133V99H291.578ZM291.234 106.453L290.633 106.43C290.638 105.852 290.724 105.318 290.891 104.828C291.057 104.333 291.292 103.904 291.594 103.539C291.896 103.174 292.255 102.893 292.672 102.695C293.094 102.492 293.56 102.391 294.07 102.391C294.487 102.391 294.862 102.448 295.195 102.562C295.529 102.672 295.812 102.849 296.047 103.094C296.286 103.339 296.469 103.656 296.594 104.047C296.719 104.432 296.781 104.904 296.781 105.461V111H295.328V105.445C295.328 105.003 295.263 104.648 295.133 104.383C295.003 104.112 294.812 103.917 294.562 103.797C294.312 103.672 294.005 103.609 293.641 103.609C293.281 103.609 292.953 103.685 292.656 103.836C292.365 103.987 292.112 104.195 291.898 104.461C291.69 104.727 291.526 105.031 291.406 105.375C291.292 105.714 291.234 106.073 291.234 106.453ZM303.93 109.555V105.203C303.93 104.87 303.862 104.581 303.727 104.336C303.596 104.086 303.398 103.893 303.133 103.758C302.867 103.622 302.539 103.555 302.148 103.555C301.784 103.555 301.464 103.617 301.188 103.742C300.917 103.867 300.703 104.031 300.547 104.234C300.396 104.438 300.32 104.656 300.32 104.891H298.875C298.875 104.589 298.953 104.289 299.109 103.992C299.266 103.695 299.49 103.427 299.781 103.188C300.078 102.943 300.432 102.75 300.844 102.609C301.26 102.464 301.724 102.391 302.234 102.391C302.849 102.391 303.391 102.495 303.859 102.703C304.333 102.911 304.703 103.227 304.969 103.648C305.24 104.065 305.375 104.589 305.375 105.219V109.156C305.375 109.438 305.398 109.737 305.445 110.055C305.497 110.372 305.573 110.646 305.672 110.875V111H304.164C304.091 110.833 304.034 110.612 303.992 110.336C303.951 110.055 303.93 109.794 303.93 109.555ZM304.18 105.875L304.195 106.891H302.734C302.323 106.891 301.956 106.924 301.633 106.992C301.31 107.055 301.039 107.151 300.82 107.281C300.602 107.411 300.435 107.576 300.32 107.773C300.206 107.966 300.148 108.193 300.148 108.453C300.148 108.719 300.208 108.961 300.328 109.18C300.448 109.398 300.628 109.573 300.867 109.703C301.112 109.828 301.411 109.891 301.766 109.891C302.208 109.891 302.599 109.797 302.938 109.609C303.276 109.422 303.544 109.193 303.742 108.922C303.945 108.651 304.055 108.388 304.07 108.133L304.688 108.828C304.651 109.047 304.552 109.289 304.391 109.555C304.229 109.82 304.013 110.076 303.742 110.32C303.477 110.56 303.159 110.76 302.789 110.922C302.424 111.078 302.013 111.156 301.555 111.156C300.982 111.156 300.479 111.044 300.047 110.82C299.62 110.596 299.286 110.297 299.047 109.922C298.812 109.542 298.695 109.117 298.695 108.648C298.695 108.195 298.784 107.797 298.961 107.453C299.138 107.104 299.393 106.815 299.727 106.586C300.06 106.352 300.461 106.174 300.93 106.055C301.398 105.935 301.922 105.875 302.5 105.875H304.18ZM309.094 104.352V111H307.648V102.547H309.016L309.094 104.352ZM308.75 106.453L308.148 106.43C308.154 105.852 308.24 105.318 308.406 104.828C308.573 104.333 308.807 103.904 309.109 103.539C309.411 103.174 309.771 102.893 310.188 102.695C310.609 102.492 311.076 102.391 311.586 102.391C312.003 102.391 312.378 102.448 312.711 102.562C313.044 102.672 313.328 102.849 313.562 103.094C313.802 103.339 313.984 103.656 314.109 104.047C314.234 104.432 314.297 104.904 314.297 105.461V111H312.844V105.445C312.844 105.003 312.779 104.648 312.648 104.383C312.518 104.112 312.328 103.917 312.078 103.797C311.828 103.672 311.521 103.609 311.156 103.609C310.797 103.609 310.469 103.685 310.172 103.836C309.88 103.987 309.628 104.195 309.414 104.461C309.206 104.727 309.042 105.031 308.922 105.375C308.807 105.714 308.75 106.073 308.75 106.453ZM321.969 102.547H323.281V110.82C323.281 111.565 323.13 112.201 322.828 112.727C322.526 113.253 322.104 113.651 321.562 113.922C321.026 114.198 320.406 114.336 319.703 114.336C319.411 114.336 319.068 114.289 318.672 114.195C318.281 114.107 317.896 113.953 317.516 113.734C317.141 113.521 316.826 113.232 316.57 112.867L317.328 112.008C317.682 112.435 318.052 112.732 318.438 112.898C318.828 113.065 319.214 113.148 319.594 113.148C320.052 113.148 320.448 113.062 320.781 112.891C321.115 112.719 321.372 112.464 321.555 112.125C321.742 111.792 321.836 111.38 321.836 110.891V104.406L321.969 102.547ZM316.148 106.867V106.703C316.148 106.057 316.224 105.471 316.375 104.945C316.531 104.414 316.753 103.958 317.039 103.578C317.331 103.198 317.682 102.906 318.094 102.703C318.505 102.495 318.969 102.391 319.484 102.391C320.016 102.391 320.479 102.484 320.875 102.672C321.276 102.854 321.615 103.122 321.891 103.477C322.172 103.826 322.393 104.247 322.555 104.742C322.716 105.237 322.828 105.797 322.891 106.422V107.141C322.833 107.76 322.721 108.318 322.555 108.812C322.393 109.307 322.172 109.729 321.891 110.078C321.615 110.427 321.276 110.695 320.875 110.883C320.474 111.065 320.005 111.156 319.469 111.156C318.964 111.156 318.505 111.049 318.094 110.836C317.688 110.622 317.339 110.323 317.047 109.938C316.755 109.552 316.531 109.099 316.375 108.578C316.224 108.052 316.148 107.482 316.148 106.867ZM317.594 106.703V106.867C317.594 107.289 317.635 107.685 317.719 108.055C317.807 108.424 317.94 108.75 318.117 109.031C318.299 109.312 318.531 109.534 318.812 109.695C319.094 109.852 319.43 109.93 319.82 109.93C320.299 109.93 320.695 109.828 321.008 109.625C321.32 109.422 321.568 109.154 321.75 108.82C321.938 108.487 322.083 108.125 322.188 107.734V105.852C322.13 105.565 322.042 105.289 321.922 105.023C321.807 104.753 321.656 104.513 321.469 104.305C321.286 104.091 321.06 103.922 320.789 103.797C320.518 103.672 320.201 103.609 319.836 103.609C319.44 103.609 319.099 103.693 318.812 103.859C318.531 104.021 318.299 104.245 318.117 104.531C317.94 104.812 317.807 105.141 317.719 105.516C317.635 105.885 317.594 106.281 317.594 106.703ZM328.984 111.156C328.396 111.156 327.862 111.057 327.383 110.859C326.909 110.656 326.5 110.372 326.156 110.008C325.818 109.643 325.557 109.211 325.375 108.711C325.193 108.211 325.102 107.664 325.102 107.07V106.742C325.102 106.055 325.203 105.443 325.406 104.906C325.609 104.365 325.885 103.906 326.234 103.531C326.583 103.156 326.979 102.872 327.422 102.68C327.865 102.487 328.323 102.391 328.797 102.391C329.401 102.391 329.922 102.495 330.359 102.703C330.802 102.911 331.164 103.203 331.445 103.578C331.727 103.948 331.935 104.385 332.07 104.891C332.206 105.391 332.273 105.938 332.273 106.531V107.18H325.961V106H330.828V105.891C330.807 105.516 330.729 105.151 330.594 104.797C330.464 104.443 330.255 104.151 329.969 103.922C329.682 103.693 329.292 103.578 328.797 103.578C328.469 103.578 328.167 103.648 327.891 103.789C327.615 103.924 327.378 104.128 327.18 104.398C326.982 104.669 326.828 105 326.719 105.391C326.609 105.781 326.555 106.232 326.555 106.742V107.07C326.555 107.471 326.609 107.849 326.719 108.203C326.833 108.552 326.997 108.859 327.211 109.125C327.43 109.391 327.693 109.599 328 109.75C328.312 109.901 328.667 109.977 329.062 109.977C329.573 109.977 330.005 109.872 330.359 109.664C330.714 109.456 331.023 109.177 331.289 108.828L332.164 109.523C331.982 109.799 331.75 110.062 331.469 110.312C331.188 110.562 330.841 110.766 330.43 110.922C330.023 111.078 329.542 111.156 328.984 111.156Z" fill="#333333"/>
<defs>
<linearGradient id="paint0_linear_13_79" x1="77.7823" y1="86.4762" x2="70.9992" y2="72.2276" gradientUnits="userSpaceOnUse">
<stop stop-color="#F2D69F"/>
<stop offset="1" stop-color="#C6A15B" stop-opacity="0"/>
</linearGradient>
<linearGradient id="paint1_linear_13_79" x1="70.5346" y1="64.4138" x2="79.3839" y2="80.561" gradientUnits="userSpaceOnUse">
<stop stop-color="#FFF1D6"/>
<stop offset="1" stop-color="#FFE0A5" stop-opacity="0"/>
</linearGradient>
</defs>
</svg>
