<svg width="30" height="30" viewBox="0 0 30 30" fill="none" xmlns="http://www.w3.org/2000/svg">
<rect width="30" height="30" fill="#FDFBF5"/>
<path fill-rule="evenodd" clip-rule="evenodd" d="M22.3668 20.4187C23.5318 21.5838 23.5318 23.461 22.3668 24.6261C21.2018 25.7913 19.3248 25.7913 18.1598 24.6261C17.6636 24.1299 17.3831 23.5257 17.3184 22.9C17.2105 22.0154 17.491 21.1092 18.1598 20.4187C18.8286 19.7498 19.7563 19.4693 20.6408 19.5772C21.2665 19.642 21.8706 19.9224 22.3668 20.4187ZM21.4175 23.6552L21.849 22.0801L20.7055 20.9366L19.1306 21.3681L18.6991 22.9432L19.8426 24.0867L21.4175 23.6552Z" fill="#335B81"/>
<path fill-rule="evenodd" clip-rule="evenodd" d="M18.7216 10.213L15.0108 13.9242L11.6883 17.247L7.9128 21.0228C6.92037 21.9291 6.96352 23.5473 7.9128 24.4967C8.86207 25.446 10.4586 25.5108 11.3863 24.4967L15.1618 20.7424L18.4842 17.4196L22.195 13.7084L18.7216 10.213ZM10.6527 23.2884C10.2213 23.6983 9.55246 23.6983 9.12097 23.2884C8.71106 22.8569 8.71106 22.188 9.12097 21.7565C9.53088 21.3465 10.2213 21.3465 10.6527 21.7565C11.0842 22.188 11.0842 22.8784 10.6527 23.2884Z" fill="#D0EBFA"/>
<path fill-rule="evenodd" clip-rule="evenodd" d="M18.4846 17.4196L20.642 19.5772C19.7575 19.4693 18.8513 19.7498 18.1609 20.4187C17.4921 21.0876 17.2117 22.0154 17.3195 22.9L15.1621 20.7423L18.4846 17.4196Z" fill="#4E749B"/>
<path fill-rule="evenodd" clip-rule="evenodd" d="M17.9448 14.4636C18.3331 14.852 18.3331 15.4777 17.9448 15.8661L14.0182 19.793C13.6299 20.1814 13.0042 20.1814 12.6159 19.793C12.4217 19.5988 12.3354 19.3399 12.3354 19.1025C12.3354 18.8436 12.4217 18.6063 12.6159 18.4121L16.5424 14.4852C16.9308 14.0968 17.5564 14.0968 17.9448 14.4636Z" fill="#A4DBF7"/>
<path fill-rule="evenodd" clip-rule="evenodd" d="M11.4069 10.3425L15.0098 13.9457L11.6874 17.2685L8.08447 13.6653C8.88272 13.5142 9.63783 13.1258 10.2419 12.5001C10.8676 11.896 11.2559 11.1408 11.4069 10.3425Z" fill="#4E749B"/>
<path fill-rule="evenodd" clip-rule="evenodd" d="M10.2423 6.50186C11.2778 7.53753 11.6662 9.00473 11.4073 10.3425C11.2563 11.1408 10.8679 11.896 10.2423 12.5001C9.63818 13.1043 8.8615 13.4927 8.08482 13.6653C6.74721 13.9458 5.28016 13.5574 4.24459 12.5001C3.03642 11.2918 2.71281 9.56572 3.25217 8.07694L5.15071 9.97568C5.86266 10.6877 7.02768 10.6877 7.71806 9.97568C8.43002 9.26366 8.43002 8.09852 7.71806 7.40807L5.81951 5.48776C7.30814 4.96992 9.05567 5.29357 10.2423 6.50186Z" fill="#335B81"/>
<path fill-rule="evenodd" clip-rule="evenodd" d="M10.6517 21.7564C11.0832 22.188 11.0832 22.8568 10.6517 23.2884C10.2202 23.6983 9.55142 23.6983 9.11993 23.2884C8.71002 22.8568 8.71002 22.188 9.11993 21.7564C9.55142 21.3465 10.2418 21.3465 10.6517 21.7564Z" fill="#E6F6FF"/>
<path fill-rule="evenodd" clip-rule="evenodd" d="M22.1947 13.6868C21.3533 13.5358 20.5551 13.1474 19.9078 12.5001C19.2606 11.8528 18.8723 11.0545 18.7212 10.213C18.5055 8.89685 18.8938 7.51595 19.9078 6.50186C21.116 5.29357 22.8419 4.96992 24.3306 5.50934L22.432 7.40807C21.7201 8.12009 21.7201 9.28523 22.432 9.97568C23.144 10.6877 24.309 10.6877 24.9994 9.97568L26.8979 8.07693C27.4373 9.56571 27.0921 11.3134 25.9055 12.5001C24.9131 13.5142 23.5108 13.9026 22.1947 13.6868Z" fill="#A4DBF7"/>
</svg>
