<svg width="30" height="30" viewBox="0 0 30 30" fill="none" xmlns="http://www.w3.org/2000/svg">
<rect width="30" height="30" fill="#FDFBF5"/>
<path fill-rule="evenodd" clip-rule="evenodd" d="M2.0015 18.0789V15.6817C7.77911 12.3463 13.5552 9.01095 19.3313 5.67407C22.2194 7.34476 25.1089 9.01095 27.9985 10.6771V13.0743C22.2209 16.4097 16.4433 19.7451 10.6657 23.0805C7.77611 21.4158 4.88805 19.7496 2 18.0789H2.0015Z" fill="#CDDFA1"/>
<path fill-rule="evenodd" clip-rule="evenodd" d="M2.00146 18.1992V18.0791C4.88802 19.7483 7.77758 21.4145 10.6671 23.0807V23.2007C7.77758 21.536 4.88952 19.8699 2.00146 18.1992ZM2.00146 15.802C4.88802 17.4712 7.77758 19.1373 10.6671 20.8035V20.6834C7.77758 19.0188 4.88952 17.3526 2.00146 15.6819V15.802ZM2.00146 15.9731C4.88802 17.6423 7.77758 19.3085 10.6671 20.9747V20.8546C7.77758 19.1899 4.88952 17.5237 2.00146 15.853V15.9731ZM2.00146 16.1442C4.88802 17.8134 7.77758 19.4796 10.6671 21.1458V21.0257C7.77758 19.361 4.88952 17.6948 2.00146 16.0241V16.1442ZM2.00146 16.3153C4.88802 17.9845 7.77758 19.6507 10.6671 21.3169V21.1968C7.77758 19.5321 4.88952 17.8659 2.00146 16.1952V16.3153ZM2.00146 16.4865C4.88802 18.1556 7.77758 19.8218 10.6671 21.488V21.3679C7.77758 19.7032 4.88952 18.0371 2.00146 16.3664V16.4865ZM2.00146 16.6576C4.88802 18.3268 7.77758 19.993 10.6671 21.6591V21.5391C7.77758 19.8744 4.88952 18.2082 2.00146 16.5375V16.6576ZM2.00146 16.8287C4.88802 18.4979 7.77758 20.1641 10.6671 21.8303V21.7102C7.77758 20.0455 4.88952 18.3793 2.00146 16.7086V16.8287ZM2.00146 16.9998C4.88802 18.669 7.77758 20.3352 10.6671 22.0014V21.8813C7.77758 20.2166 4.88952 18.5504 2.00146 16.8797V16.9998ZM2.00146 17.1709C4.88802 18.8401 7.77758 20.5063 10.6671 22.1725V22.0524C7.77758 20.3877 4.88952 18.7215 2.00146 17.0509V17.1709ZM2.00146 17.3421C4.88802 19.0113 7.77758 20.6774 10.6671 22.3436V22.2235C7.77758 20.5589 4.88952 18.8927 2.00146 17.222V17.3421ZM2.00146 17.5132C4.88802 19.1824 7.77758 20.8486 10.6671 22.5147V22.3947C7.77758 20.73 4.88952 19.0638 2.00146 17.3931V17.5132ZM2.00146 17.6843C4.88802 19.3535 7.77758 21.0197 10.6671 22.6859V22.5658C7.77758 20.9011 4.88952 19.2349 2.00146 17.5642V17.6843ZM2.00146 17.8554C4.88802 19.5246 7.77758 21.1908 10.6671 22.857V22.7369C7.77758 21.0722 4.88952 19.406 2.00146 17.7353V17.8554ZM2.00146 18.0266C4.88802 19.6957 7.77758 21.3619 10.6671 23.0281V22.908C7.77758 21.2433 4.88952 19.5772 2.00146 17.9065V18.0266Z" fill="#E8F0D3"/>
<path fill-rule="evenodd" clip-rule="evenodd" d="M10.6672 23.0806C16.4448 19.7452 22.2225 16.4098 28.0001 13.0745V13.1945C22.2225 16.5299 16.4448 19.8653 10.6672 23.2007V23.0806ZM10.6672 20.6834V20.8034C16.4448 17.4681 22.2225 14.1327 28.0001 10.7973V10.6772C22.2225 14.0126 16.4448 17.348 10.6672 20.6834ZM10.6672 20.8545V20.9746C16.4448 17.6392 22.2225 14.3038 28.0001 10.9685V10.8484C22.2225 14.1837 16.4448 17.5191 10.6672 20.8545ZM10.6672 21.0256V21.1457C16.4448 17.8103 22.2225 14.4749 28.0001 11.1396V11.0195C22.2225 14.3549 16.4448 17.6902 10.6672 21.0256ZM10.6672 21.1967V21.3168C16.4448 17.9814 22.2225 14.6461 28.0001 11.3107V11.1906C22.2225 14.526 16.4448 17.8614 10.6672 21.1967ZM10.6672 21.3679V21.4879C16.4448 18.1526 22.2225 14.8172 28.0001 11.4818V11.3617C22.2225 14.6971 16.4448 18.0325 10.6672 21.3679ZM10.6672 21.539V21.6591C16.4448 18.3237 22.2225 14.9883 28.0001 11.6529V11.5329C22.2225 14.8682 16.4448 18.2036 10.6672 21.539ZM10.6672 21.7101V21.8302C16.4448 18.4948 22.2225 15.1594 28.0001 11.8241V11.704C22.2225 15.0393 16.4448 18.3747 10.6672 21.7101ZM10.6672 21.8812V22.0013C16.4448 18.6659 22.2225 15.3306 28.0001 11.9952V11.8751C22.2225 15.2105 16.4448 18.5458 10.6672 21.8812ZM10.6672 22.0523V22.1724C16.4448 18.837 22.2225 15.5017 28.0001 12.1663V12.0462C22.2225 15.3816 16.4448 18.717 10.6672 22.0523ZM10.6672 22.2235V22.3435C16.4448 19.0082 22.2225 15.6728 28.0001 12.3374V12.2173C22.2225 15.5527 16.4448 18.8881 10.6672 22.2235ZM10.6672 22.3946V22.5147C16.4448 19.1793 22.2225 15.8439 28.0001 12.5085V12.3885C22.2225 15.7238 16.4448 19.0592 10.6672 22.3946ZM10.6672 22.5657V22.6858C16.4448 19.3504 22.2225 16.015 28.0001 12.6797V12.5596C22.2225 15.895 16.4448 19.2303 10.6672 22.5657ZM10.6672 22.7368V22.8569C16.4448 19.5215 22.2225 16.1862 28.0001 12.8508V12.7307C22.2225 16.0661 16.4448 19.4015 10.6672 22.7368ZM10.6672 22.908V23.028C16.4448 19.6927 22.2225 16.3573 28.0001 13.0219V12.9018C22.2225 16.2372 16.4448 19.5726 10.6672 22.908Z" fill="#8EBA5C"/>
<path fill-rule="evenodd" clip-rule="evenodd" d="M2.0015 15.6817C7.77911 12.3463 13.5552 9.01095 19.3313 5.67407C22.2194 7.34476 25.1089 9.01095 27.9985 10.6771C22.2209 14.0125 16.4433 17.3479 10.6657 20.6833C7.77611 19.0186 4.88805 17.3524 2 15.6817H2.0015Z" fill="#CDDFA1"/>
<path fill-rule="evenodd" clip-rule="evenodd" d="M3.1949 15.4327L18.8946 6.36778C19.0147 6.29873 19.2143 6.30323 19.3449 6.37829L26.7797 10.6713C26.9073 10.7449 26.9178 10.862 26.7977 10.931L11.098 19.9945C10.9809 20.062 10.7783 20.059 10.6477 19.984L3.21292 15.6924C3.08232 15.6174 3.07782 15.5003 3.1949 15.4327ZM18.767 9.37892C18.0495 9.79322 18.096 10.4927 18.8736 10.9415C19.6511 11.3904 20.8655 11.4189 21.583 11.0046C22.3005 10.5903 22.251 9.88928 21.4734 9.44046C20.6959 8.99165 19.4845 8.96463 18.767 9.37892ZM19.1678 9.61009C18.6544 9.9073 18.6874 10.4072 19.2428 10.7284C19.7997 11.0496 20.6673 11.0691 21.1822 10.7734C21.6941 10.4762 21.661 9.97484 21.1041 9.65362C20.5472 9.33239 19.6811 9.31438 19.1678 9.61009ZM18.9441 9.48099C18.3167 9.84275 18.3587 10.4552 19.0402 10.8455C19.7187 11.2387 20.7769 11.2628 21.4029 10.901C22.0318 10.5377 21.9883 9.92681 21.3098 9.53503C20.6313 9.14325 19.5716 9.11924 18.9441 9.48099ZM8.85693 15.5633C8.34357 15.859 8.37809 16.3604 8.93499 16.6801C9.49188 17.0028 10.3595 17.0224 10.8714 16.7266C11.3862 16.4294 11.3517 15.9296 10.7933 15.6069C10.2394 15.2871 9.3703 15.2676 8.85693 15.5633ZM14.7546 10.2871C15.322 10.3351 15.8969 10.4357 16.4493 10.5903C17.0783 10.7674 17.6817 11.0091 18.2191 11.3198C18.7565 11.6305 19.1798 11.9803 19.4845 12.342C19.7892 12.7038 19.9738 13.0836 20.0354 13.4543C20.0534 13.5594 20.0609 13.663 20.0594 13.7665L24.4605 11.2267C24.8163 11.2943 25.2126 11.2523 25.4768 11.0991C25.864 10.8755 25.8385 10.4912 25.4197 10.2495C24.5956 9.7737 23.7745 9.29937 22.952 8.82503C22.1279 8.35069 21.3068 7.87485 20.4842 7.40051C20.0624 7.15734 19.4004 7.14383 19.0132 7.36749C18.7475 7.5206 18.6754 7.74876 18.7925 7.95441C17.446 8.73196 16.0996 9.51102 14.7531 10.2886L14.7546 10.2871ZM16.0095 16.1052C15.8309 16.1052 15.6523 16.1022 15.4706 16.0917C14.8252 16.0557 14.1707 15.9476 13.5448 15.772C12.9158 15.5948 12.3124 15.3517 11.775 15.0409C11.2376 14.7317 10.8143 14.382 10.5111 14.0202C10.2424 13.699 10.0668 13.3703 9.98724 13.0415C8.63928 13.8191 7.29132 14.5966 5.94336 15.3742C5.58761 15.3066 5.19433 15.3472 4.92714 15.5018C4.53986 15.7254 4.56538 16.1067 4.98718 16.3499C5.80826 16.8242 6.63385 17.2986 7.45494 17.7729C8.27602 18.2487 9.09861 18.7216 9.92269 19.1974C10.3415 19.4391 11.005 19.4556 11.3922 19.2319C11.6594 19.0773 11.73 18.8507 11.6129 18.645L16.0125 16.1052H16.0095ZM14.5175 10.4792C13.3241 10.4117 12.1773 10.6068 11.3592 11.0781C10.5396 11.5525 10.2049 12.2159 10.319 12.9049C10.379 13.2517 10.5531 13.6059 10.8383 13.9452C11.122 14.2829 11.5198 14.6086 12.0212 14.8983C12.5255 15.1896 13.0899 15.4192 13.6769 15.5843C14.2638 15.7495 14.8747 15.847 15.4766 15.8815C16.67 15.9491 17.8183 15.754 18.6379 15.2811C19.4575 14.8083 19.7922 14.1463 19.6751 13.4573C19.6151 13.1106 19.441 12.7578 19.1573 12.4201C18.8721 12.0808 18.4758 11.7536 17.9714 11.4624C17.4671 11.1712 16.9027 10.9445 16.3157 10.7794C15.7288 10.6143 15.1179 10.5137 14.5175 10.4792ZM12.5105 18.4664C12.4895 18.4784 12.4895 18.4994 12.5135 18.5129C12.5781 18.5504 12.6441 18.588 12.7087 18.6255C12.7327 18.639 12.7687 18.639 12.7897 18.6255C13.7354 18.0776 14.6856 17.5312 15.6343 16.9818C15.6553 16.9698 15.6553 16.9503 15.6313 16.9368C15.5667 16.8993 15.5007 16.8617 15.4361 16.8242C15.4121 16.8107 15.3791 16.8092 15.3581 16.8212C14.4064 17.3706 13.4607 17.917 12.512 18.4649L12.5105 18.4664ZM5.60862 14.4315C5.56509 14.457 5.56509 14.5021 5.61312 14.5306C5.75572 14.6131 5.89983 14.6957 6.04243 14.7783C6.09197 14.8068 6.17302 14.8083 6.21656 14.7828C7.13371 14.2514 8.05536 13.7245 8.97551 13.1916C9.01905 13.1661 9.01755 13.1196 8.96801 13.0911C8.82541 13.0085 8.68131 12.9259 8.53871 12.8434C8.48917 12.8149 8.41262 12.8149 8.36758 12.8404C7.44743 13.3718 6.53028 13.9001 5.60862 14.4315ZM14.4094 9.3489C14.3628 9.37592 14.3659 9.41945 14.4139 9.44797C14.5565 9.53053 14.7006 9.61309 14.8432 9.69565C14.8927 9.72417 14.9708 9.72717 15.0173 9.70015C15.9345 9.17027 16.8561 8.63889 17.7733 8.10902C17.8168 8.0835 17.8153 8.03697 17.7658 8.00845C17.6232 7.92589 17.4791 7.84333 17.3365 7.76077C17.2869 7.73225 17.2089 7.73225 17.1653 7.75777C16.2482 8.28765 15.328 8.81902 14.4094 9.3489ZM21.3113 13.3853C21.2903 13.3973 21.2903 13.4183 21.3143 13.4318C21.3788 13.4693 21.4434 13.5069 21.5064 13.5444C21.5289 13.5579 21.5665 13.5579 21.5875 13.5444C22.5362 12.998 23.4833 12.4501 24.4335 11.9022C24.4545 11.8902 24.4515 11.8692 24.429 11.8557C24.366 11.8182 24.3014 11.7806 24.2369 11.7431C24.2129 11.7296 24.1768 11.7296 24.1558 11.7431C23.2071 12.291 22.2585 12.8389 21.3113 13.3853Z" fill="#5C9D27"/>
<path fill-rule="evenodd" clip-rule="evenodd" d="M9.13159 11.5643L12.5015 9.61743C15.3895 11.2881 18.2791 12.9543 21.1687 14.6205L17.7988 16.5659C14.9092 14.8997 12.0196 13.2335 9.13159 11.5643Z" fill="#FDE3A7"/>
<path fill-rule="evenodd" clip-rule="evenodd" d="M9.81608 11.168C12.7041 12.8357 15.5937 14.5033 18.4833 16.1695L18.141 16.3677C15.2515 14.7015 12.3634 13.0338 9.47534 11.3661L9.81759 11.168H9.81608ZM12.2508 9.76147L11.9086 9.95962C14.7966 11.6288 17.6862 13.2965 20.5757 14.9627L20.918 14.7645C18.0284 13.0983 15.1389 11.4307 12.2493 9.76298L12.2508 9.76147Z" fill="#FFAB91"/>
<path fill-rule="evenodd" clip-rule="evenodd" d="M17.7988 19.0833V16.566L21.1687 14.6206V17.1379L17.7988 19.0833Z" fill="#DFD68F"/>
<path fill-rule="evenodd" clip-rule="evenodd" d="M20.9193 14.7646V17.2819L20.5771 17.4801V14.9628L20.9193 14.7646ZM18.4831 16.1711V18.6884L18.1409 18.8866V16.3693L18.4831 16.1711Z" fill="#E57373"/>
</svg>
