<svg width="30" height="30" viewBox="0 0 30 30" fill="none" xmlns="http://www.w3.org/2000/svg">
<rect width="30" height="30" fill="#FDFBF5"/>
<path d="M27.0004 15.0002C27.0004 17.3025 26.3514 19.4537 25.2271 21.2803C25.1879 21.3442 25.148 21.408 25.1073 21.4711C25.0195 21.6082 24.9288 21.7433 24.8354 21.8766C24.8141 21.9073 24.7925 21.9383 24.7701 21.9685C24.7686 21.9707 24.7671 21.9726 24.7656 21.9748C24.735 22.0182 24.7032 22.0618 24.6719 22.1044C24.6659 22.1123 24.6599 22.1205 24.6543 22.1279C24.6312 22.1597 24.6077 22.1907 24.5845 22.222C24.5763 22.2332 24.5681 22.2441 24.5595 22.2549C24.5423 22.2773 24.5255 22.3001 24.5079 22.3225C24.5072 22.3236 24.5061 22.3247 24.5053 22.3258C24.4777 22.3617 24.4501 22.3972 24.4217 22.4326C24.3903 22.4726 24.3586 22.5125 24.3261 22.5521C24.3179 22.5626 24.3093 22.573 24.3011 22.5835C24.2936 22.5928 24.2862 22.6021 24.2783 22.6111C24.2018 22.7048 24.1234 22.7971 24.0431 22.8885C24.0106 22.9259 23.9781 22.9625 23.9449 22.9998C23.9411 23.0039 23.9374 23.008 23.9337 23.0125C23.9288 23.0177 23.9243 23.023 23.9199 23.0278C23.9027 23.0469 23.8859 23.0652 23.8691 23.0838C23.8571 23.0969 23.8448 23.11 23.8328 23.123C23.7193 23.2463 23.6032 23.3676 23.4845 23.486C23.4759 23.4946 23.4673 23.5031 23.4583 23.5117C23.4311 23.5386 23.4038 23.5655 23.3766 23.592C23.3194 23.6484 23.2616 23.7037 23.2029 23.7589C23.2011 23.7604 23.1992 23.7623 23.1973 23.7642C23.1607 23.7981 23.1241 23.8321 23.0876 23.8657C23.0707 23.881 23.054 23.8963 23.0372 23.9116C23.0312 23.9169 23.0252 23.9225 23.0189 23.9281C22.9636 23.9774 22.9079 24.0267 22.8519 24.0748C22.8377 24.0871 22.8236 24.0991 22.8097 24.1114C22.7732 24.1428 22.7362 24.1741 22.6989 24.2051C22.5484 24.3313 22.3949 24.4538 22.2381 24.5722C21.9517 24.7895 21.6548 24.9937 21.3487 25.1846H21.3479C21.3214 25.2017 21.2956 25.2182 21.2687 25.2346C21.2602 25.2398 21.2516 25.245 21.243 25.2503C21.221 25.2637 21.1989 25.2772 21.1765 25.2906H21.1761C21.1354 25.3149 21.0947 25.3391 21.0537 25.3634C20.9999 25.3948 20.9461 25.4261 20.8916 25.4564C20.1217 25.8914 19.2983 26.2439 18.4343 26.5008C18.4018 26.5109 18.3697 26.5206 18.3372 26.5299C18.3096 26.5377 18.2823 26.5456 18.2547 26.5534C18.2233 26.5624 18.1916 26.571 18.1602 26.5796C18.1438 26.584 18.1281 26.5885 18.1117 26.593H18.1094C18.1012 26.5952 18.093 26.5975 18.0844 26.5997C17.9646 26.6318 17.8432 26.6621 17.7215 26.6901C17.7133 26.6919 17.7051 26.6938 17.6969 26.6957H17.6939C17.6128 26.7147 17.5303 26.7327 17.4489 26.7498C17.4299 26.7539 17.4105 26.758 17.3914 26.7618C17.3059 26.7789 17.22 26.7954 17.1341 26.8111C17.1323 26.8111 17.1304 26.8114 17.1285 26.8118C17.1162 26.814 17.1039 26.8163 17.0912 26.8185C17.0281 26.8297 16.9654 26.8402 16.9019 26.8499C16.8892 26.8521 16.8761 26.8544 16.8634 26.8562C16.8358 26.8607 16.8085 26.8648 16.7805 26.8689H16.7802C16.763 26.8716 16.7454 26.8742 16.7279 26.8768C16.7003 26.8805 16.6722 26.8842 16.6442 26.888C16.6114 26.8928 16.5785 26.8969 16.5453 26.901C16.5434 26.9014 16.5416 26.9014 16.5397 26.9018C16.5367 26.9022 16.5341 26.9025 16.5311 26.9029C16.4874 26.9093 16.443 26.9141 16.3989 26.9193H16.3986C16.2582 26.9358 16.1166 26.9496 15.9747 26.9612C15.9288 26.9649 15.8829 26.9683 15.837 26.9712C15.8194 26.9724 15.8015 26.9735 15.7839 26.9746C15.6734 26.9821 15.5625 26.9877 15.4509 26.9918H15.4475C15.4188 26.9929 15.39 26.994 15.3613 26.9948C15.241 26.9981 15.1212 27 15.0002 27C14.8792 27 14.759 26.9981 14.6387 26.9948C14.61 26.994 14.5812 26.9929 14.5529 26.9918C14.4405 26.9877 14.3281 26.9821 14.2164 26.975C14.1451 26.9701 14.0742 26.9653 14.0036 26.9597C13.9498 26.9552 13.8964 26.9503 13.843 26.9451C13.8255 26.9432 13.8083 26.9418 13.7907 26.9399C13.6167 26.9227 13.4439 26.901 13.2725 26.8768C13.2695 26.8764 13.2672 26.876 13.2643 26.8757C13.1724 26.8622 13.0809 26.848 12.9898 26.8323C12.9809 26.8309 12.9719 26.8294 12.9629 26.8279C12.9151 26.8197 12.8681 26.8114 12.8207 26.8025C12.796 26.798 12.7718 26.7935 12.7467 26.7887C12.4872 26.7394 12.2314 26.6815 11.9775 26.6154H11.976C11.9678 26.6132 11.9596 26.6113 11.9514 26.6091H11.9503C11.9391 26.6061 11.9279 26.6035 11.9167 26.6005C11.8868 26.5926 11.8573 26.5844 11.8278 26.5762C11.7994 26.5684 11.7714 26.5605 11.7431 26.5527C11.7132 26.5445 11.6833 26.5359 11.6534 26.5273C11.6523 26.5273 11.6516 26.5265 11.6505 26.5265C11.6381 26.5228 11.6254 26.5191 11.6131 26.5153C11.6071 26.5135 11.6015 26.512 11.5956 26.5101C11.5937 26.5097 11.593 26.509 11.5911 26.5086H11.5903C11.5847 26.5067 11.5791 26.5052 11.5739 26.5038C11.5709 26.5026 11.5679 26.5019 11.5649 26.5011C11.5003 26.4821 11.4365 26.4623 11.3723 26.4418C10.8947 26.2906 10.4298 26.1102 9.97987 25.903C9.95747 25.8925 9.93544 25.8821 9.91303 25.8716C9.88876 25.86 9.86412 25.8484 9.83985 25.8369C9.81707 25.826 9.79468 25.8152 9.77228 25.804C9.44294 25.6446 9.12182 25.4706 8.81004 25.2824C8.79398 25.2723 8.77754 25.2626 8.76149 25.2529C8.7514 25.2469 8.7417 25.2406 8.73162 25.2346C8.70436 25.2182 8.67747 25.201 8.65096 25.1842C8.61101 25.1592 8.57106 25.1341 8.5311 25.1088C8.47397 25.0722 8.41835 25.0352 8.36196 24.9975H8.36083C8.34851 24.9893 8.33656 24.9814 8.32424 24.9732C8.14501 24.853 7.96915 24.7279 7.79739 24.5987C7.64243 24.4822 7.49082 24.3627 7.34258 24.2391C7.27649 24.1846 7.21115 24.1293 7.14655 24.0726C7.11033 24.042 7.07485 24.0106 7.03938 23.9792C7.02407 23.9658 7.00915 23.9523 6.99384 23.9385L6.9311 23.8825C6.83962 23.7993 6.74963 23.7149 6.66114 23.629C6.65367 23.6219 6.64621 23.6148 6.63911 23.6077C6.62716 23.5961 6.61521 23.5846 6.60363 23.5733C6.58534 23.5551 6.56705 23.5371 6.54875 23.5188L6.54166 23.5117C6.53307 23.5031 6.5241 23.4946 6.51552 23.486C6.49759 23.4681 6.48004 23.4501 6.46211 23.4322C6.34375 23.3123 6.22762 23.1899 6.11448 23.0652C6.1029 23.0528 6.09172 23.0401 6.08051 23.0278C6.05662 23.0009 6.03272 22.974 6.00882 22.9468C6.00584 22.9438 6.00322 22.9408 6.00024 22.9375C5.90539 22.8303 5.81278 22.7216 5.72241 22.6111C5.71457 22.6018 5.70711 22.5928 5.69964 22.5835C5.64923 22.5211 5.59883 22.4591 5.54992 22.396C5.5305 22.3714 5.51146 22.3471 5.49242 22.3225C5.48047 22.3064 5.46814 22.2907 5.45619 22.2747C5.43939 22.253 5.42334 22.2314 5.40691 22.2097C5.39496 22.194 5.38338 22.1783 5.37181 22.1627C5.37032 22.1608 5.36919 22.1593 5.36807 22.1578C5.34193 22.1231 5.31617 22.0884 5.2904 22.0533C5.26987 22.0249 5.2497 21.9961 5.22916 21.9677C5.12349 21.8199 5.02119 21.6698 4.92224 21.5171C3.70646 19.6404 3 17.4026 3 15.0002C3 10.444 5.53909 6.48079 9.27939 4.44952C9.29806 4.43869 9.31709 4.42861 9.33576 4.41853C10.1393 3.98726 10.9974 3.64485 11.8973 3.40513C11.9783 3.3831 12.0601 3.36219 12.1418 3.3424H12.1422C12.7927 3.18371 13.464 3.07767 14.1515 3.0295C14.3284 3.0168 14.5065 3.00821 14.6854 3.00373C14.79 3.00149 14.8949 3 15.0002 3C15.0767 3 15.1533 3.00075 15.2298 3.00261C15.3934 3.0056 15.5562 3.01158 15.7179 3.02128C15.918 3.03286 16.117 3.04966 16.3145 3.07094C16.6782 3.1109 17.0371 3.16653 17.3899 3.23823C17.6457 3.28976 17.8989 3.3495 18.1483 3.41746C18.7424 3.57839 19.3181 3.78413 19.8719 4.0302C19.885 4.03617 19.8984 4.04215 19.9114 4.04812C24.0901 5.92443 27.0004 10.1225 27.0004 15.0002Z" fill="#C1CDE0"/>
<path d="M18.7869 8.56201H10.8003V19.3005H18.7869V8.56201Z" fill="#668EA5"/>
<path d="M12.1435 12.1603C12.5564 12.1603 12.8911 11.6951 12.8911 11.1212C12.8911 10.5473 12.5564 10.082 12.1435 10.082C11.7307 10.082 11.396 10.5473 11.396 11.1212C11.396 11.6951 11.7307 12.1603 12.1435 12.1603Z" fill="#FFC999"/>
<path d="M16.728 19.8799H13.3293L13.6676 15.8387L13.786 14.4272H16.1959L16.3382 15.8854L16.728 19.8799Z" fill="#FFC999"/>
<path d="M18.0801 12.1603C18.4929 12.1603 18.8276 11.6951 18.8276 11.1212C18.8276 10.5473 18.4929 10.082 18.0801 10.082C17.6672 10.082 17.3325 10.5473 17.3325 11.1212C17.3325 11.6951 17.6672 12.1603 18.0801 12.1603Z" fill="#FFC999"/>
<path d="M16.9606 18.714C16.9281 18.8753 16.896 19.0373 16.8639 19.1986C16.8571 19.2326 16.8504 19.2662 16.8437 19.3002C16.8052 19.4932 16.7668 19.6859 16.7283 19.8789C16.7283 19.8789 16.7283 19.8797 16.7283 19.8801C16.3433 21.8135 15.9584 23.747 15.573 25.6804C15.5592 25.7506 15.545 25.8212 15.5312 25.8914C15.5054 26.0202 15.4801 26.1486 15.4543 26.2771L15.4535 26.4459L15.4524 26.6475L15.4513 26.9914H15.4479C15.4192 26.9925 15.3904 26.9936 15.3617 26.9944C15.2415 26.9977 15.1216 26.9996 15.0006 26.9996C14.8796 26.9996 14.7594 26.9977 14.6392 26.9944C14.6104 26.9936 14.5816 26.9925 14.5533 26.9914C14.4409 26.9873 14.3285 26.9817 14.2169 26.9746C14.1455 26.9697 14.0746 26.9649 14.004 26.9593C13.9502 26.9548 13.8969 26.9499 13.8435 26.9447C13.8259 26.9428 13.8087 26.9414 13.7912 26.9395C13.6172 26.9223 13.4443 26.9007 13.2729 26.8764C13.2699 26.876 13.2677 26.8756 13.2647 26.8753C13.1728 26.8618 13.0814 26.8476 12.9902 26.8319C12.9813 26.8305 12.9723 26.829 12.9634 26.8275L12.8013 21.2941L12.7677 20.147L12.7431 19.3002L12.7244 18.6673L12.7236 18.646C12.7408 18.6531 12.7587 18.6602 12.7767 18.6673C12.8827 18.7091 13.0026 18.7528 13.1348 18.7954C13.1893 18.8129 13.2456 18.8301 13.3046 18.8473C13.3308 18.8547 13.3577 18.8622 13.3846 18.8697C13.3943 18.8723 13.404 18.8749 13.414 18.8775C13.4152 18.8779 13.4163 18.8782 13.4174 18.8786C13.4443 18.8857 13.4719 18.8928 13.4996 18.8999C13.591 18.9231 13.687 18.9447 13.7863 18.9645C14.069 19.0213 14.3841 19.0623 14.7269 19.0739C15.29 19.0933 15.787 19.0291 16.1966 18.9384C16.3493 18.9048 16.4893 18.867 16.6167 18.829C16.6197 18.8282 16.6226 18.8271 16.626 18.8263C16.6548 18.8178 16.6831 18.8088 16.7104 18.7998C16.7186 18.7976 16.7268 18.7946 16.7347 18.792C16.8164 18.7659 16.8922 18.7393 16.9609 18.714H16.9606Z" fill="#2F1D12"/>
<path d="M24.0569 22.1388C24.0431 22.1343 24.0293 22.1291 24.0147 22.1242C23.9441 22.0992 23.8687 22.0742 23.7899 22.0481C23.7108 22.0223 23.6275 21.9962 23.5409 21.9693H23.5405C23.1846 21.8595 22.7706 21.743 22.3355 21.6287C21.9005 21.5141 21.4442 21.4017 21.004 21.3001C20.0937 21.0903 19.2524 20.9267 18.8085 20.8864C18.5926 20.8666 18.4067 20.727 18.3275 20.5253L17.8488 19.3002L17.6013 18.6673L17.4788 18.3533C17.4213 18.2073 17.3085 18.0942 17.1696 18.0352H17.1692C17.1072 18.0087 17.04 17.9934 16.9702 17.9904C16.9624 17.99 16.9545 17.99 16.9463 17.99L16.9448 17.9948L16.7492 18.6673L16.7107 18.7999L16.6457 19.0243V19.0258L16.5789 19.2543L16.5655 19.3002L16.3967 19.8801L15.1036 24.3284L15.0409 24.5438L15.0148 24.6346L15.0009 24.6816L14.9875 24.6346L14.961 24.5438L14.8982 24.3284L13.6052 19.8801L13.4973 19.5086L13.4364 19.3002L13.423 19.2543L13.392 19.1471V19.1453L13.3561 19.0243L13.305 18.8473L13.2912 18.7999L13.2527 18.6673L13.1582 18.3428L13.057 17.9948L13.0555 17.99C13.0477 17.99 13.0398 17.99 13.0316 17.9904C12.9618 17.9934 12.8946 18.0087 12.8326 18.0352C12.8319 18.0355 12.8315 18.0359 12.8308 18.0359C12.7617 18.0658 12.6993 18.1084 12.6467 18.1621C12.594 18.2159 12.5518 18.2805 12.5231 18.3533L12.4006 18.6673L12.153 19.3002L11.6744 20.5253C11.5952 20.727 11.4092 20.8666 11.1934 20.8864C10.7494 20.9267 9.90781 21.0903 8.99785 21.3001H8.99749C8.68794 21.3718 8.37055 21.4484 8.05802 21.5275H8.05763C7.48148 21.6732 6.92215 21.827 6.461 21.9693H6.46062C6.28736 22.0227 6.12793 22.0746 5.98678 22.1242C5.97259 22.1291 5.95841 22.1343 5.94459 22.1388H5.94423C5.75529 22.206 5.60145 22.268 5.49316 22.3221C5.51221 22.3468 5.53125 22.371 5.55067 22.3957C5.59958 22.4588 5.64998 22.5208 5.70039 22.5831C5.70786 22.5925 5.71532 22.6014 5.72316 22.6108C5.81353 22.7213 5.90614 22.8299 6.00099 22.9371C6.00397 22.9405 6.00659 22.9435 6.00957 22.9464C6.03347 22.9737 6.05736 23.0006 6.08126 23.0275C6.09246 23.0398 6.10365 23.0525 6.11523 23.0648C6.22837 23.1895 6.3445 23.312 6.46286 23.4319C6.48079 23.4498 6.49834 23.4677 6.51626 23.4856C6.52485 23.4942 6.53382 23.5028 6.54241 23.5114L6.5495 23.5185C6.5678 23.5368 6.58608 23.5547 6.60438 23.573C6.61596 23.5842 6.62791 23.5958 6.63986 23.6074C6.64695 23.6144 6.65442 23.6215 6.66188 23.6286C6.75038 23.7145 6.84037 23.7989 6.93185 23.8822L6.99459 23.9382C7.0099 23.952 7.02482 23.9654 7.04013 23.9789C7.0756 24.0102 7.11108 24.0416 7.1473 24.0722C7.2119 24.129 7.27724 24.1843 7.34333 24.2388C7.49157 24.3624 7.64318 24.4818 7.79813 24.5983C7.9699 24.7275 8.14576 24.8526 8.32499 24.9729C8.33731 24.9811 8.34926 24.9889 8.36158 24.9971H8.36271C8.4191 25.0348 8.47472 25.0718 8.53185 25.1084C8.57181 25.1338 8.61176 25.1588 8.65171 25.1838C8.67822 25.2006 8.70511 25.2178 8.73237 25.2342C8.74245 25.2402 8.75215 25.2466 8.76223 25.2525C8.77829 25.2622 8.79473 25.272 8.81079 25.282C9.12257 25.4702 9.44368 25.6442 9.77301 25.8037C9.79541 25.8149 9.81782 25.8257 9.8406 25.8365C9.86487 25.8481 9.88951 25.8597 9.91378 25.8713C9.93618 25.8817 9.95822 25.8922 9.98062 25.9026C10.4306 26.1099 10.8954 26.2902 11.373 26.4414C11.4372 26.462 11.5011 26.4818 11.5657 26.5008C11.5687 26.5015 11.5717 26.5023 11.5746 26.5034C11.5799 26.5049 11.5855 26.5064 11.5911 26.5083H11.5918C11.5937 26.5086 11.5944 26.5094 11.5963 26.5098C11.6023 26.5116 11.6079 26.5131 11.6139 26.515C11.6262 26.5187 11.6389 26.5225 11.6512 26.5262C11.6523 26.5262 11.6531 26.5269 11.6542 26.5269C11.6841 26.5355 11.7139 26.5441 11.7438 26.5523C11.7722 26.5602 11.8002 26.568 11.8286 26.5758C11.8581 26.5841 11.8876 26.5923 11.9174 26.6001C11.9286 26.6031 11.9398 26.6057 11.951 26.6087H11.9522C11.9604 26.6109 11.9686 26.6128 11.9768 26.6151H11.9783C12.2322 26.6811 12.488 26.739 12.7475 26.7883C12.7725 26.7932 12.7968 26.7976 12.8214 26.8021C12.8688 26.8111 12.9159 26.8193 12.9637 26.8275C12.9726 26.829 12.9816 26.8305 12.9906 26.832C13.0817 26.8477 13.1732 26.8619 13.265 26.8753C13.268 26.8757 13.2702 26.8761 13.2732 26.8764C13.4446 26.9007 13.6175 26.9224 13.7915 26.9395C13.809 26.9414 13.8262 26.9429 13.8438 26.9448C13.8972 26.95 13.9506 26.9548 14.0043 26.9593C14.0749 26.9649 14.1458 26.9698 14.2172 26.9746C14.3288 26.9817 14.4412 26.9873 14.5536 26.9914C14.582 26.9926 14.6107 26.9937 14.6395 26.9944C14.7597 26.9978 14.88 26.9997 15.0009 26.9997C15.1219 26.9997 15.2418 26.9978 15.362 26.9944C15.3908 26.9937 15.4195 26.9926 15.4483 26.9914H15.4516C15.5633 26.9873 15.6742 26.9817 15.7847 26.9743C15.8022 26.9731 15.8202 26.972 15.8377 26.9709C15.8836 26.9679 15.9296 26.9646 15.9755 26.9608C16.1174 26.9492 16.2589 26.9354 16.3993 26.919H16.3997C16.4437 26.9138 16.4882 26.9089 16.5319 26.9026C16.5348 26.9022 16.5375 26.9018 16.5404 26.9014C16.5423 26.9011 16.5442 26.9011 16.546 26.9007C16.5793 26.8966 16.6121 26.8925 16.645 26.8876C16.673 26.8839 16.701 26.8802 16.7286 26.8764C16.7462 26.8738 16.7637 26.8712 16.7809 26.8686H16.7813C16.8093 26.8645 16.8365 26.8604 16.8642 26.8559C16.8769 26.854 16.8899 26.8518 16.9026 26.8495C16.9661 26.8398 17.0288 26.8294 17.0919 26.8182C17.1046 26.8159 17.117 26.8137 17.1293 26.8115C17.1312 26.8111 17.133 26.8107 17.1349 26.8107C17.2208 26.795 17.3067 26.7786 17.3922 26.7614C17.4112 26.7577 17.4306 26.7536 17.4497 26.7495C17.5311 26.7323 17.6136 26.7144 17.6946 26.6953H17.6976C17.7058 26.6935 17.714 26.6916 17.7222 26.6897C17.844 26.6617 17.9653 26.6315 18.0852 26.5994C18.0938 26.5971 18.102 26.5949 18.1102 26.5927H18.1124C18.1289 26.5882 18.1445 26.5837 18.161 26.5792C18.1923 26.5706 18.2241 26.562 18.2555 26.5531C18.2831 26.5452 18.3103 26.5374 18.338 26.5295C18.3705 26.5202 18.4026 26.5105 18.4351 26.5004C19.2991 26.2435 20.1224 25.891 20.8924 25.456C20.9469 25.4258 21.0007 25.3944 21.0544 25.3631C21.0955 25.3388 21.1362 25.3145 21.1769 25.2902H21.1773C21.1997 25.2768 21.2217 25.2634 21.2437 25.2499C21.2523 25.2447 21.2609 25.2395 21.2695 25.2342C21.2964 25.2178 21.3221 25.2014 21.3487 25.1842H21.3494C21.6556 24.9934 21.9524 24.7892 22.2388 24.5718C22.3957 24.4535 22.5491 24.331 22.6996 24.2048C22.7369 24.1738 22.7739 24.1424 22.8105 24.1111C22.8243 24.0987 22.8385 24.0868 22.8527 24.0745C22.9087 24.0263 22.9643 23.977 23.0196 23.9277C23.0259 23.9221 23.0319 23.9165 23.0379 23.9113C23.0547 23.896 23.0715 23.8807 23.0883 23.8654C23.1249 23.8318 23.1615 23.7978 23.1981 23.7638C23.1999 23.7619 23.2018 23.7601 23.2037 23.7586C23.2623 23.7033 23.3202 23.6481 23.3773 23.5917C23.4046 23.5652 23.4318 23.5383 23.4591 23.5114C23.468 23.5028 23.4766 23.4942 23.4852 23.4856C23.604 23.3673 23.7201 23.2459 23.8336 23.1227C23.8455 23.1096 23.8579 23.0965 23.8698 23.0835C23.8866 23.0648 23.9034 23.0465 23.9206 23.0275C23.9251 23.0226 23.9296 23.0174 23.9344 23.0122C23.9382 23.0077 23.9419 23.0036 23.9456 22.9995C23.9788 22.9621 24.0113 22.9255 24.0438 22.8882C24.1241 22.7967 24.2025 22.7045 24.2791 22.6108C24.2869 22.6018 24.2944 22.5925 24.3018 22.5831C24.3101 22.5727 24.3186 22.5622 24.3269 22.5518C24.3593 22.5122 24.3911 22.4722 24.4224 22.4323C24.4508 22.3968 24.4785 22.3613 24.5061 22.3255C24.5068 22.3244 24.508 22.3232 24.5087 22.3221C24.4008 22.268 24.2466 22.206 24.0576 22.1388H24.0569Z" fill="#FCEEDE"/>
<path d="M14.827 24.3284H15.1675L15.3068 24.6999L15.1675 25.1159H14.8057L14.678 24.6689L14.827 24.3284Z" fill="#2F1D12"/>
<path d="M15.071 25.0264H14.9138V25.4457H15.071V25.0264Z" fill="#2F1D12"/>
<path d="M15.5725 25.6806C15.4806 25.5551 15.3492 25.4606 15.1961 25.4166C15.1677 25.408 15.139 25.4016 15.1095 25.3971H15.1091C15.0968 25.3953 15.0841 25.3934 15.071 25.3919C15.0467 25.3897 15.0225 25.3882 14.9978 25.3882C14.9694 25.3882 14.9414 25.3901 14.9138 25.3934C14.9112 25.3934 14.9086 25.3934 14.906 25.3942H14.9056C14.5565 25.4393 14.2861 25.7388 14.2861 26.1002C14.2861 26.4617 14.561 26.7656 14.9146 26.8071C14.9422 26.8104 14.9698 26.8119 14.9978 26.8119C15.0359 26.8119 15.0733 26.809 15.1098 26.803C15.1364 26.7989 15.1621 26.7933 15.1879 26.7862C15.2861 26.7593 15.3757 26.7111 15.4519 26.6476C15.5307 26.5823 15.5953 26.5005 15.6397 26.4076C15.6845 26.3142 15.7095 26.2104 15.7095 26.1002C15.7095 25.9434 15.6587 25.7985 15.5725 25.6806ZM15.453 26.446C15.3862 26.5341 15.2943 26.6017 15.1886 26.6394C15.1632 26.6484 15.1367 26.6559 15.1098 26.6611C15.0736 26.6682 15.0359 26.6723 14.9978 26.6723C14.9694 26.6723 14.9414 26.6701 14.9138 26.6659C14.6382 26.6252 14.4258 26.387 14.4258 26.1002C14.4258 25.8135 14.6345 25.5794 14.9067 25.5357C14.9366 25.5304 14.9672 25.5278 14.9978 25.5278C15.0359 25.5278 15.0733 25.5319 15.1091 25.539H15.1095C15.139 25.545 15.1677 25.5532 15.195 25.5633H15.1954C15.3484 25.6197 15.4709 25.7399 15.5307 25.8915C15.5561 25.9565 15.5699 26.0267 15.5699 26.1002C15.5699 26.2298 15.5262 26.3501 15.453 26.446Z" fill="#2F1D12"/>
<g style="mix-blend-mode:multiply">
<path d="M16.3385 15.8854C15.9408 16.1538 15.5002 16.3032 15.0368 16.3032C14.5473 16.3032 14.0832 16.1367 13.668 15.8387L13.786 14.4272H16.1959L16.3381 15.8854H16.3385Z" fill="#FFC999"/>
</g>
<path d="M15.0913 15.6596C16.8627 15.6596 18.2987 13.4791 18.2987 10.7894C18.2987 8.09965 16.8627 5.91919 15.0913 5.91919C13.3198 5.91919 11.8838 8.09965 11.8838 10.7894C11.8838 13.4791 13.3198 15.6596 15.0913 15.6596Z" fill="#FFC999"/>
<path d="M20.9688 20.8858C20.6914 19.2813 20.1119 19.2784 20.3893 17.5353C20.6668 15.7923 20.0342 14.2259 19.864 13.4243C19.7374 12.8265 20.0716 11.1495 19.538 9.22281C19.0044 7.29609 19.2326 7.57166 18.2662 6.45968C17.2999 5.34809 17.0822 4.65469 15.7353 4.53595C14.3885 4.41721 12.4692 4.52998 11.5768 5.8503C10.6844 7.17026 9.65458 8.27961 9.79311 10.1612C9.93164 12.0427 10.5205 12.3687 9.78042 13.5228C9.04035 14.677 8.32231 15.8222 8.6789 16.892C9.03549 17.9614 8.95671 18.5394 8.49109 19.3004C8.02546 20.0614 7.72488 21.0628 8.20096 21.8275C8.57846 22.4332 10.0523 22.9481 11.153 22.7692C12.4719 22.5545 13.2358 20.94 12.765 20.1431C12.498 19.6917 12.576 18.7743 12.8919 17.843C13.1727 17.0145 12.7116 16.0414 12.6201 15.6336C12.5211 15.1912 12.5641 14.8103 12.0223 13.7865C11.5387 12.8716 11.7168 10.7276 12.0294 9.8897C12.7967 9.23103 12.8154 9.22244 13.5857 8.99131C14.7839 8.63173 15.1177 8.86547 15.9284 8.28484C16.2835 8.03056 16.5034 7.78188 16.5863 7.55299C16.6102 7.59331 16.6315 7.63551 16.6498 7.67957C16.8152 8.07835 17.1845 8.26356 17.4739 8.69744C18.0679 9.58874 17.8637 10.5644 18.1982 11.921C18.5425 13.3156 17.3215 14.136 17.7274 15.525C18.1333 16.914 16.8503 16.6616 17.2237 18.3628C17.5974 20.0644 16.0172 21.9885 17.9264 22.6964C19.8356 23.4044 21.2463 22.4899 20.9688 20.8854V20.8858Z" fill="#668EA5"/>
</svg>
